# 3ds Max Wavefront OBJ Exporter v0.97b - (c)2007 guruware
# File Created: 21.04.2019 05:02:43

mtllib Piller3.mtl

#
# object Cylinder008
#

v  -24.6543 0.0000 -40.2739
v  6.6731 0.0000 -45.7977
v  34.2221 0.0000 -29.8924
v  -45.1020 0.0000 15.9053
v  6.6731 0.0000 45.7977
v  45.1020 0.0000 -0.0000
v  34.2221 0.0000 29.8923
v  -24.6543 0.0000 40.2738
v  -45.1020 0.0000 -15.9054
v  25.0732 7.5076 -0.0000
v  18.8792 7.5076 -17.0181
v  3.1952 7.5076 -26.0733
v  -14.6400 7.5076 -22.9285
v  -26.2810 7.5076 -9.0552
v  -26.2810 7.5076 9.0551
v  -14.6399 7.5076 22.9284
v  3.1952 7.5076 26.0732
v  18.8791 7.5076 17.0181
v  20.6142 9.2169 -18.4740
v  27.3381 9.2169 -0.0000
v  3.5885 9.2169 -28.3038
v  -15.7724 9.2169 -24.8899
v  -28.4093 9.2169 -9.8298
v  -28.4093 9.2169 9.8297
v  -15.7724 9.2169 24.8898
v  3.5885 9.2169 28.3037
v  20.6142 9.2169 18.4739
v  22.9524 112.0523 -0.0000
v  17.2546 112.0523 -15.6550
v  18.5181 118.0931 -16.7152
v  24.6020 118.0931 -0.0000
v  2.8269 112.0523 -23.9848
v  3.1134 118.0931 -25.6092
v  -13.5796 112.0523 -21.0919
v  -14.4043 118.0931 -22.5203
v  -24.2882 112.0523 -8.3299
v  -25.8382 118.0931 -8.8940
v  -24.2882 112.0523 8.3298
v  -25.8382 118.0931 8.8939
v  -13.5796 112.0523 21.0918
v  -14.4043 118.0931 22.5202
v  2.8269 112.0523 23.9847
v  3.1134 118.0931 25.6091
v  17.2546 112.0523 15.6549
v  18.5181 118.0931 16.7151
v  22.2656 194.6500 -0.0000
v  16.7284 194.6500 -15.2134
v  15.7602 197.0847 -14.4010
v  21.0017 197.0847 -0.0000
v  2.7076 194.6500 -23.3083
v  2.4882 197.0847 -22.0636
v  -13.2361 194.6500 -20.4970
v  -12.6042 197.0847 -19.4024
v  -23.6427 194.6500 -8.0949
v  -22.4550 197.0847 -7.6626
v  -23.6427 194.6500 8.0948
v  -22.4550 197.0847 7.6626
v  -13.2361 194.6500 20.4969
v  -12.6042 197.0847 19.4023
v  2.7076 194.6500 23.3082
v  2.4882 197.0847 22.0635
v  16.7284 194.6500 15.2133
v  15.7602 197.0847 14.4009
v  22.9524 198.3759 -0.0000
v  17.2546 198.3759 -15.6550
v  18.1571 205.3478 -16.4123
v  24.1307 205.3478 -0.0000
v  2.8269 198.3759 -23.9848
v  3.0315 205.3478 -25.1451
v  -13.5796 198.3759 -21.0919
v  -14.1687 205.3478 -22.1122
v  -24.2882 198.3759 -8.3299
v  -25.3953 205.3478 -8.7328
v  -24.2882 198.3759 8.3298
v  -25.3953 205.3478 8.7327
v  -13.5796 198.3759 21.0918
v  -14.1687 205.3478 22.1121
v  2.8269 198.3759 23.9847
v  3.0315 205.3478 25.1450
v  17.2546 198.3759 15.6549
v  18.1571 205.3478 16.4122
v  -35.8022 283.5845 -12.5206
v  -35.8022 283.5845 12.5205
v  -19.7060 283.5845 31.7031
v  4.9546 283.5845 -36.0515
v  35.2054 283.5845 -0.0000
v  4.9546 283.5845 36.0514
v  26.6409 283.5845 23.5309
v  26.6409 283.5845 -23.5310
v  -19.7060 283.5845 -31.7032
v  20.5763 11.6177 -18.4422
v  27.2887 11.6177 -0.0000
v  3.5799 11.6177 -28.2550
v  -15.7477 11.6177 -24.8471
v  -28.3628 11.6177 -9.8129
v  -28.3628 11.6177 9.8128
v  -15.7477 11.6177 24.8470
v  3.5799 11.6177 28.2549
v  20.5763 11.6177 18.4421
v  18.7859 13.4124 -16.9399
v  24.9515 13.4124 -0.0000
v  3.1741 13.4124 -25.9534
v  -14.5791 13.4124 -22.8231
v  -26.1667 13.4124 -9.0136
v  -26.1667 13.4124 9.0135
v  -14.5791 13.4124 22.8230
v  3.1741 13.4124 25.9533
v  18.7859 13.4124 16.9398
v  22.9335 21.2159 -20.4202
v  30.3659 21.2159 -0.0000
v  4.1142 21.2159 -31.2855
v  -17.2863 21.2159 -27.5120
v  -31.2545 21.2159 -10.8654
v  -31.2545 21.2159 10.8653
v  -17.2863 21.2159 27.5119
v  4.1142 21.2159 31.2854
v  22.9335 21.2159 20.4201
v  16.6601 109.0844 -15.1562
v  22.1765 109.0844 -0.0000
v  2.6922 109.0844 -23.2206
v  -13.1916 109.0844 -20.4198
v  -23.5590 109.0844 -8.0644
v  -23.5590 109.0844 8.0644
v  -13.1916 109.0844 20.4197
v  2.6922 109.0844 23.2205
v  16.6601 109.0844 15.1561
v  15.3606 111.0445 -14.0657
v  20.4801 111.0445 -0.0000
v  2.3976 111.0445 -21.5499
v  -12.3434 111.0445 -18.9507
v  -21.9649 111.0445 -7.4842
v  -21.9649 111.0445 7.4842
v  -12.3434 111.0445 18.9506
v  2.3976 111.0445 21.5498
v  15.3606 111.0445 14.0656
v  17.2546 276.0118 -15.6550
v  22.9524 276.0118 -0.0000
v  2.8269 276.0118 -23.9848
v  -13.5796 276.0118 -21.0919
v  -24.2882 276.0118 -8.3299
v  -24.2882 276.0118 8.3298
v  -13.5796 276.0118 21.0918
v  2.8269 276.0118 23.9847
v  17.2546 276.0118 15.6549
v  18.8792 277.2190 -17.0181
v  18.8792 278.5910 -17.0181
v  25.0732 278.5910 -0.0000
v  25.0732 277.2190 -0.0000
v  3.1952 277.2190 -26.0733
v  3.1952 278.5910 -26.0733
v  -14.6400 277.2190 -22.9285
v  -14.6400 278.5910 -22.9285
v  -26.2810 277.2190 -9.0552
v  -26.2810 278.5910 -9.0552
v  -26.2810 277.2190 9.0551
v  -26.2810 278.5910 9.0551
v  -14.6399 277.2190 22.9284
v  -14.6399 278.5910 22.9284
v  3.1952 277.2190 26.0732
v  3.1952 278.5910 26.0732
v  18.8791 277.2190 17.0181
v  18.8791 278.5910 17.0181
v  22.9524 279.7982 -0.0000
v  17.2546 279.7982 -15.6550
v  2.8269 279.7982 -23.9848
v  -13.5796 279.7982 -21.0919
v  -24.2882 279.7982 -8.3299
v  -24.2882 279.7982 8.3298
v  -13.5796 279.7982 21.0918
v  2.8269 279.7982 23.9847
v  17.2546 279.7982 15.6549
# 171 vertices

vn -0.0000 -1.0000 0.0000
vn -0.0000 -1.0000 -0.0000
vn 0.0000 -1.0000 -0.0000
vn 0.3510 0.9364 0.0000
vn 0.2689 0.9364 -0.2256
vn 0.0609 0.9364 -0.3457
vn -0.1755 0.9364 -0.3040
vn -0.3298 0.9364 -0.1200
vn -0.3298 0.9364 0.1200
vn -0.1755 0.9364 0.3040
vn 0.0609 0.9364 0.3457
vn 0.2689 0.9364 0.2256
vn 0.6024 -0.7982 0.0000
vn 0.4615 -0.7982 -0.3872
vn 0.6024 -0.7982 -0.0000
vn 0.1046 -0.7982 -0.5932
vn -0.3012 -0.7982 -0.5217
vn -0.5661 -0.7982 -0.2060
vn -0.5661 -0.7982 0.2060
vn -0.3012 -0.7982 0.5217
vn 0.1046 -0.7982 0.5932
vn 0.4615 -0.7982 0.3872
vn 0.7554 -0.5948 -0.2749
vn 0.9343 -0.1073 -0.3400
vn 0.4019 -0.5948 -0.6962
vn 0.4971 -0.1073 -0.8610
vn -0.1396 -0.5948 -0.7916
vn -0.1726 -0.1073 -0.9791
vn -0.6158 -0.5948 -0.5167
vn -0.7616 -0.1073 -0.6391
vn -0.8038 -0.5948 0.0000
vn -0.9942 -0.1073 0.0000
vn -0.6158 -0.5948 0.5167
vn -0.7616 -0.1073 0.6391
vn -0.1396 -0.5948 0.7916
vn -0.1726 -0.1073 0.9791
vn 0.4019 -0.5948 0.6962
vn 0.4971 -0.1073 0.8610
vn 0.7554 -0.5948 0.2749
vn 0.9343 -0.1073 0.3400
vn 0.9151 0.2271 -0.3331
vn 0.9024 -0.2790 -0.3284
vn 0.4869 0.2271 -0.8434
vn 0.4801 -0.2790 -0.8316
vn -0.1691 0.2271 -0.9591
vn -0.1668 -0.2790 -0.9457
vn -0.7460 0.2271 -0.6260
vn -0.7356 -0.2790 -0.6173
vn -0.9739 0.2271 0.0000
vn -0.9603 -0.2790 0.0000
vn -0.7460 0.2271 0.6260
vn -0.7356 -0.2790 0.6173
vn -0.1691 0.2271 0.9591
vn -0.1668 -0.2790 0.9457
vn 0.4869 0.2271 0.8434
vn 0.4801 -0.2790 0.8316
vn 0.9151 0.2271 0.3331
vn 0.9024 -0.2790 0.3284
vn 0.8214 -0.4856 -0.2990
vn 0.9374 -0.0694 -0.3412
vn 0.4371 -0.4856 -0.7571
vn 0.4988 -0.0694 -0.8639
vn -0.1518 -0.4856 -0.8609
vn -0.1732 -0.0694 -0.9824
vn -0.6697 -0.4856 -0.5619
vn -0.7642 -0.0694 -0.6412
vn -0.8742 -0.4856 0.0000
vn -0.9976 -0.0694 0.0000
vn -0.6697 -0.4856 0.5619
vn -0.7642 -0.0694 0.6412
vn -0.1518 -0.4856 0.8609
vn -0.1732 -0.0694 0.9824
vn 0.4371 -0.4856 0.7571
vn 0.4988 -0.0694 0.8639
vn 0.8214 -0.4856 0.2990
vn 0.9374 -0.0694 0.3412
vn 0.0000 1.0000 -0.0000
vn 0.9395 0.0194 -0.3420
vn 0.4999 0.0194 -0.8659
vn -0.1736 0.0194 -0.9846
vn -0.7659 0.0194 -0.6427
vn -0.9998 0.0194 0.0000
vn -0.7659 0.0194 0.6427
vn -0.1736 0.0194 0.9846
vn 0.4999 0.0194 0.8659
vn 0.9395 0.0194 0.3420
vn 0.4666 0.7931 -0.3915
vn 0.6090 0.7931 -0.0000
vn 0.1058 0.7931 -0.5998
vn -0.3045 0.7931 -0.5274
vn -0.5723 0.7931 -0.2083
vn -0.5723 0.7931 0.2083
vn -0.3045 0.7931 0.5274
vn 0.1058 0.7931 0.5998
vn 0.4666 0.7931 0.3915
vn 0.7872 -0.5462 -0.2865
vn 0.4188 -0.5462 -0.7255
vn -0.1455 -0.5462 -0.8250
vn -0.6417 -0.5462 -0.5385
vn -0.8377 -0.5462 0.0000
vn -0.6417 -0.5462 0.5385
vn -0.1455 -0.5462 0.8250
vn 0.4188 -0.5462 0.7255
vn 0.7872 -0.5462 0.2865
vn 0.9361 0.0872 -0.3407
vn 0.8800 0.3507 -0.3203
vn 0.4981 0.0872 -0.8627
vn 0.4683 0.3507 -0.8110
vn -0.1730 0.0872 -0.9811
vn -0.1626 0.3507 -0.9223
vn -0.7631 0.0872 -0.6403
vn -0.7174 0.3507 -0.6020
vn -0.9962 0.0872 0.0000
vn -0.9365 0.3507 0.0000
vn -0.7631 0.0872 0.6403
vn -0.7174 0.3507 0.6020
vn -0.1730 0.0872 0.9811
vn -0.1626 0.3507 0.9223
vn 0.4981 0.0872 0.8627
vn 0.4682 0.3507 0.8110
vn 0.4683 0.3507 0.8110
vn 0.9361 0.0872 0.3407
vn 0.8800 0.3507 0.3203
vn 0.9047 -0.2704 -0.3293
vn 0.4814 -0.2704 -0.8338
vn -0.1672 -0.2704 -0.9481
vn -0.7375 -0.2704 -0.6188
vn -0.9627 -0.2704 0.0000
vn -0.7375 -0.2704 0.6188
vn -0.1672 -0.2704 0.9481
vn 0.4814 -0.2704 0.8338
vn 0.9047 -0.2704 0.3293
vn 0.9396 0.0157 -0.3420
vn 0.4999 0.0157 -0.8659
vn -0.1736 0.0157 -0.9847
vn -0.7660 0.0157 -0.6427
vn -0.9999 0.0157 0.0000
vn -0.7660 0.0157 0.6427
vn -0.1736 0.0157 0.9847
vn 0.4999 0.0157 0.8659
vn 0.9396 0.0157 0.3420
vn 0.9397 0.0000 -0.3420
vn 0.9397 -0.0000 -0.3420
vn 0.5000 0.0000 -0.8660
vn -0.1736 0.0000 -0.9848
vn -0.7660 0.0000 -0.6428
vn -1.0000 0.0000 0.0000
vn -0.7660 0.0000 0.6428
vn -0.1736 0.0000 0.9848
vn 0.5000 0.0000 0.8660
vn 0.9397 0.0000 0.3420
vn 0.2936 -0.9500 -0.1068
vn 0.1562 -0.9500 -0.2705
vn -0.0542 -0.9500 -0.3076
vn -0.2393 -0.9500 -0.2008
vn -0.3124 -0.9500 0.0000
vn -0.2393 -0.9500 0.2008
vn -0.0542 -0.9500 0.3076
vn 0.1562 -0.9500 0.2705
vn 0.2936 -0.9500 0.1068
vn 0.4869 0.8553 -0.1772
vn 0.4869 -0.8553 -0.1772
vn 0.2591 0.8553 -0.4487
vn 0.2591 -0.8553 -0.4487
vn -0.0900 0.8553 -0.5102
vn -0.0900 -0.8553 -0.5102
vn -0.3969 0.8553 -0.3330
vn -0.3969 -0.8553 -0.3330
vn -0.5181 0.8553 0.0000
vn -0.5181 -0.8553 0.0000
vn -0.3969 0.8553 0.3330
vn -0.3969 -0.8553 0.3330
vn -0.0900 0.8553 0.5102
vn -0.0900 -0.8553 0.5102
vn 0.2591 0.8553 0.4487
vn 0.2591 -0.8553 0.4487
vn 0.4869 0.8553 0.1772
vn 0.4869 -0.8553 0.1772
# 178 vertex normals

vt 0.6937 0.6114 0.0000
vt 0.7880 0.5751 0.0000
vt 0.8835 0.6080 0.0000
vt 0.6641 0.7990 0.0000
vt 0.8437 0.8607 0.0000
vt 0.9356 0.6945 0.0000
vt 0.9199 0.7943 0.0000
vt 0.7427 0.8625 0.0000
vt 0.6448 0.6998 0.0000
vt 0.1791 0.0899 0.0000
vt 0.1586 0.0291 0.0000
vt 0.2326 0.0187 0.0000
vt 0.2416 0.0811 0.0000
vt 0.3026 0.0155 0.0000
vt 0.3053 0.0778 0.0000
vt 0.3711 0.0150 0.0000
vt 0.3693 0.0774 0.0000
vt 0.4412 0.0171 0.0000
vt 0.4331 0.0796 0.0000
vt 0.5153 0.0265 0.0000
vt 0.4957 0.0875 0.0000
vt 0.5924 0.0547 0.0000
vt 0.5539 0.1061 0.0000
vt 0.6539 0.1210 0.0000
vt 0.5970 0.1424 0.0000
vt 0.0786 0.1462 0.0000
vt 0.0214 0.1256 0.0000
vt 0.0819 0.0584 0.0000
vt 0.1212 0.1092 0.0000
vt 0.2444 0.0911 0.0000
vt 0.1839 0.0990 0.0000
vt 0.3063 0.0878 0.0000
vt 0.3685 0.0875 0.0000
vt 0.4304 0.0895 0.0000
vt 0.4910 0.0968 0.0000
vt 0.5485 0.1119 0.0000
vt 0.5986 0.1422 0.0000
vt 0.1266 0.1149 0.0000
vt 0.0771 0.1460 0.0000
vt 0.2184 0.4249 0.0000
vt 0.2672 0.4225 0.0000
vt 0.2675 0.4422 0.0000
vt 0.2185 0.4435 0.0000
vt 0.3161 0.4213 0.0000
vt 0.3162 0.4415 0.0000
vt 0.3649 0.4213 0.0000
vt 0.3651 0.4414 0.0000
vt 0.4138 0.4217 0.0000
vt 0.4139 0.4415 0.0000
vt 0.4628 0.4237 0.0000
vt 0.4629 0.4425 0.0000
vt 0.5118 0.4261 0.0000
vt 0.5129 0.4436 0.0000
vt 0.5614 0.4275 0.0000
vt 0.5650 0.4442 0.0000
vt 0.1198 0.4293 0.0000
vt 0.1694 0.4274 0.0000
vt 0.1684 0.4447 0.0000
vt 0.1163 0.4456 0.0000
vt 0.2184 0.6732 0.0000
vt 0.2673 0.6729 0.0000
vt 0.2672 0.6817 0.0000
vt 0.2182 0.6814 0.0000
vt 0.3162 0.6725 0.0000
vt 0.3162 0.6817 0.0000
vt 0.3652 0.6723 0.0000
vt 0.3653 0.6814 0.0000
vt 0.4141 0.6724 0.0000
vt 0.4143 0.6813 0.0000
vt 0.4630 0.6725 0.0000
vt 0.4632 0.6808 0.0000
vt 0.5116 0.6725 0.0000
vt 0.5118 0.6800 0.0000
vt 0.5599 0.6723 0.0000
vt 0.5590 0.6781 0.0000
vt 0.1215 0.6733 0.0000
vt 0.1698 0.6734 0.0000
vt 0.1696 0.6807 0.0000
vt 0.1225 0.6790 0.0000
vt 0.2177 0.6884 0.0000
vt 0.2669 0.6892 0.0000
vt 0.2664 0.7111 0.0000
vt 0.2167 0.7096 0.0000
vt 0.3161 0.6894 0.0000
vt 0.3160 0.7116 0.0000
vt 0.3654 0.6891 0.0000
vt 0.3656 0.7113 0.0000
vt 0.4146 0.6889 0.0000
vt 0.4152 0.7109 0.0000
vt 0.4637 0.6879 0.0000
vt 0.4649 0.7092 0.0000
vt 0.5129 0.6859 0.0000
vt 0.5150 0.7060 0.0000
vt 0.5624 0.6825 0.0000
vt 0.5663 0.7021 0.0000
vt 0.1190 0.6833 0.0000
vt 0.1685 0.6866 0.0000
vt 0.1665 0.7066 0.0000
vt 0.1152 0.7027 0.0000
vt 0.6897 0.3807 0.0000
vt 0.6897 0.3012 0.0000
vt 0.7408 0.2403 0.0000
vt 0.8191 0.4555 0.0000
vt 0.9152 0.3410 0.0000
vt 0.8191 0.2265 0.0000
vt 0.8880 0.2662 0.0000
vt 0.8880 0.4157 0.0000
vt 0.7408 0.4417 0.0000
vt 0.2463 0.1000 0.0000
vt 0.1867 0.1073 0.0000
vt 0.3070 0.0968 0.0000
vt 0.3680 0.0966 0.0000
vt 0.4287 0.0986 0.0000
vt 0.4884 0.1052 0.0000
vt 0.5459 0.1177 0.0000
vt 0.5997 0.1405 0.0000
vt 0.1293 0.1207 0.0000
vt 0.0759 0.1443 0.0000
vt 0.2476 0.1103 0.0000
vt 0.1884 0.1170 0.0000
vt 0.3075 0.1071 0.0000
vt 0.3676 0.1068 0.0000
vt 0.4276 0.1090 0.0000
vt 0.4869 0.1149 0.0000
vt 0.5449 0.1255 0.0000
vt 0.5992 0.1397 0.0000
vt 0.1305 0.1283 0.0000
vt 0.0765 0.1435 0.0000
vt 0.2500 0.1396 0.0000
vt 0.1918 0.1453 0.0000
vt 0.3085 0.1367 0.0000
vt 0.3671 0.1363 0.0000
vt 0.4256 0.1384 0.0000
vt 0.4839 0.1434 0.0000
vt 0.5424 0.1517 0.0000
vt 0.6040 0.1624 0.0000
vt 0.1334 0.1545 0.0000
vt 0.0720 0.1663 0.0000
vt 0.2671 0.4052 0.0000
vt 0.2186 0.4092 0.0000
vt 0.3159 0.4031 0.0000
vt 0.3649 0.4029 0.0000
vt 0.4138 0.4044 0.0000
vt 0.4623 0.4078 0.0000
vt 0.5104 0.4129 0.0000
vt 0.5582 0.4192 0.0000
vt 0.1706 0.4149 0.0000
vt 0.1229 0.4219 0.0000
vt 0.2673 0.4139 0.0000
vt 0.2187 0.4171 0.0000
vt 0.3160 0.4123 0.0000
vt 0.3649 0.4121 0.0000
vt 0.4137 0.4131 0.0000
vt 0.4623 0.4158 0.0000
vt 0.5105 0.4195 0.0000
vt 0.5568 0.4230 0.0000
vt 0.1706 0.4211 0.0000
vt 0.1243 0.4252 0.0000
vt 0.2599 0.9239 0.0000
vt 0.2066 0.9221 0.0000
vt 0.3136 0.9245 0.0000
vt 0.3674 0.9244 0.0000
vt 0.4211 0.9238 0.0000
vt 0.4745 0.9217 0.0000
vt 0.5269 0.9173 0.0000
vt 0.5774 0.9107 0.0000
vt 0.1543 0.9178 0.0000
vt 0.1038 0.9112 0.0000
vt 0.2592 0.9317 0.0000
vt 0.2583 0.9367 0.0000
vt 0.2038 0.9355 0.0000
vt 0.2054 0.9303 0.0000
vt 0.3134 0.9322 0.0000
vt 0.3131 0.9369 0.0000
vt 0.3677 0.9320 0.0000
vt 0.3680 0.9368 0.0000
vt 0.4219 0.9318 0.0000
vt 0.4229 0.9368 0.0000
vt 0.4757 0.9298 0.0000
vt 0.4773 0.9349 0.0000
vt 0.5287 0.9243 0.0000
vt 0.5306 0.9283 0.0000
vt 0.5808 0.9116 0.0000
vt 0.5813 0.9103 0.0000
vt 0.1524 0.9248 0.0000
vt 0.1505 0.9289 0.0000
vt 0.0999 0.9109 0.0000
vt 0.1003 0.9121 0.0000
vt 0.1959 0.9808 0.0000
vt 0.2013 0.9433 0.0000
vt 0.2570 0.9446 0.0000
vt 0.2555 0.9817 0.0000
vt 0.3127 0.9445 0.0000
vt 0.3125 0.9811 0.0000
vt 0.3684 0.9444 0.0000
vt 0.3687 0.9811 0.0000
vt 0.4242 0.9446 0.0000
vt 0.4258 0.9817 0.0000
vt 0.4799 0.9429 0.0000
vt 0.4854 0.9803 0.0000
vt 0.5343 0.9348 0.0000
vt 0.5490 0.9705 0.0000
vt 0.5811 0.9124 0.0000
vt 0.6103 0.9347 0.0000
vt 0.0709 0.9353 0.0000
vt 0.1000 0.9130 0.0000
vt 0.1469 0.9354 0.0000
vt 0.1323 0.9710 0.0000
# 208 texture coords

o Cylinder008
g Cylinder008
usemtl Pillar3__1__wire_108008136
s off
f 1/1/1 2/2/1 3/3/1 4/4/2 
f 5/5/2 4/4/2 3/3/1 6/6/3 
f 6/6/3 7/7/2 5/5/2 
f 5/5/2 8/8/1 4/4/2 
f 1/1/1 4/4/2 9/9/3 
f 10/10/4 6/11/4 3/12/5 11/13/5 
f 11/13/5 3/12/5 2/14/6 12/15/6 
f 12/15/6 2/14/6 1/16/7 13/17/7 
f 13/17/7 1/16/7 9/18/8 14/19/8 
f 14/19/8 9/18/8 4/20/9 15/21/9 
f 15/21/9 4/20/9 8/22/10 16/23/10 
f 16/23/10 8/22/10 5/24/11 17/25/11 
f 17/26/11 5/27/11 7/28/12 18/29/12 
f 18/29/12 7/28/12 6/11/4 10/10/4 
f 10/10/13 11/13/14 19/30/14 20/31/15 
f 11/13/14 12/15/16 21/32/16 19/30/14 
f 12/15/16 13/17/17 22/33/17 21/32/16 
f 13/17/17 14/19/18 23/34/18 22/33/17 
f 14/19/18 15/21/19 24/35/19 23/34/18 
f 15/21/19 16/23/20 25/36/20 24/35/19 
f 16/23/20 17/25/21 26/37/21 25/36/20 
f 17/26/21 18/29/22 27/38/22 26/39/21 
f 18/29/22 10/10/13 20/31/15 27/38/22 
f 28/40/23 29/41/23 30/42/24 31/43/24 
f 29/41/25 32/44/25 33/45/26 30/42/26 
f 32/44/27 34/46/27 35/47/28 33/45/28 
f 34/46/29 36/48/29 37/49/30 35/47/30 
f 36/48/31 38/50/31 39/51/32 37/49/32 
f 38/50/33 40/52/33 41/53/34 39/51/34 
f 40/52/35 42/54/35 43/55/36 41/53/36 
f 42/56/37 44/57/37 45/58/38 43/59/38 
f 44/57/39 28/40/39 31/43/40 45/58/40 
f 46/60/41 47/61/41 48/62/42 49/63/42 
f 47/61/43 50/64/43 51/65/44 48/62/44 
f 50/64/45 52/66/45 53/67/46 51/65/46 
f 52/66/47 54/68/47 55/69/48 53/67/48 
f 54/68/49 56/70/49 57/71/50 55/69/50 
f 56/70/51 58/72/51 59/73/52 57/71/52 
f 58/72/53 60/74/53 61/75/54 59/73/54 
f 60/76/55 62/77/55 63/78/56 61/79/56 
f 62/77/57 46/60/57 49/63/58 63/78/58 
f 64/80/59 65/81/59 66/82/60 67/83/60 
f 65/81/61 68/84/61 69/85/62 66/82/62 
f 68/84/63 70/86/63 71/87/64 69/85/64 
f 70/86/65 72/88/65 73/89/66 71/87/66 
f 72/88/67 74/90/67 75/91/68 73/89/68 
f 74/90/69 76/92/69 77/93/70 75/91/70 
f 76/92/71 78/94/71 79/95/72 77/93/72 
f 78/96/73 80/97/73 81/98/74 79/99/74 
f 80/97/75 64/80/75 67/83/76 81/98/76 
f 82/100/77 83/101/77 84/102/77 85/103/77 
f 86/104/77 85/103/77 84/102/77 87/105/77 
f 87/105/77 88/106/77 86/104/77 
f 86/104/77 89/107/77 85/103/77 
f 82/100/77 85/103/77 90/108/77 
f 19/30/78 91/109/78 92/110/78 20/31/78 
f 21/32/79 93/111/79 91/109/79 19/30/79 
f 22/33/80 94/112/80 93/111/80 21/32/80 
f 23/34/81 95/113/81 94/112/81 22/33/81 
f 24/35/82 96/114/82 95/113/82 23/34/82 
f 25/36/83 97/115/83 96/114/83 24/35/83 
f 26/37/84 98/116/84 97/115/84 25/36/84 
f 27/38/85 99/117/85 98/118/85 26/39/85 
f 20/31/86 92/110/86 99/117/86 27/38/86 
f 91/109/87 100/119/87 101/120/88 92/110/88 
f 93/111/89 102/121/89 100/119/87 91/109/87 
f 94/112/90 103/122/90 102/121/89 93/111/89 
f 95/113/91 104/123/91 103/122/90 94/112/90 
f 96/114/92 105/124/92 104/123/91 95/113/91 
f 97/115/93 106/125/93 105/124/92 96/114/92 
f 98/116/94 107/126/94 106/125/93 97/115/93 
f 99/117/95 108/127/95 107/128/94 98/118/94 
f 92/110/88 101/120/88 108/127/95 99/117/95 
f 100/119/96 109/129/96 110/130/96 101/120/96 
f 102/121/97 111/131/97 109/129/97 100/119/97 
f 103/122/98 112/132/98 111/131/98 102/121/98 
f 104/123/99 113/133/99 112/132/99 103/122/99 
f 105/124/100 114/134/100 113/133/100 104/123/100 
f 106/125/101 115/135/101 114/134/101 105/124/101 
f 107/126/102 116/136/102 115/135/102 106/125/102 
f 108/127/103 117/137/103 116/138/103 107/128/103 
f 101/120/104 110/130/104 117/137/104 108/127/104 
f 109/129/105 118/139/106 119/140/106 110/130/105 
f 111/131/107 120/141/108 118/139/108 109/129/107 
f 112/132/109 121/142/110 120/141/110 111/131/109 
f 113/133/111 122/143/112 121/142/112 112/132/111 
f 114/134/113 123/144/114 122/143/114 113/133/113 
f 115/135/115 124/145/116 123/144/116 114/134/115 
f 116/136/117 125/146/118 124/145/118 115/135/117 
f 117/137/119 126/147/120 125/148/121 116/138/119 
f 110/130/122 119/140/123 126/147/123 117/137/122 
f 118/139/106 127/149/124 128/150/124 119/140/106 
f 120/141/108 129/151/125 127/149/125 118/139/108 
f 121/142/110 130/152/126 129/151/126 120/141/110 
f 122/143/112 131/153/127 130/152/127 121/142/112 
f 123/144/114 132/154/128 131/153/128 122/143/114 
f 124/145/116 133/155/129 132/154/129 123/144/116 
f 125/146/118 134/156/130 133/155/130 124/145/118 
f 126/147/120 135/157/131 134/158/131 125/148/121 
f 119/140/123 128/150/132 135/157/132 126/147/123 
f 127/149/124 29/41/23 28/40/23 128/150/124 
f 129/151/125 32/44/25 29/41/25 127/149/125 
f 130/152/126 34/46/27 32/44/27 129/151/126 
f 131/153/127 36/48/29 34/46/29 130/152/127 
f 132/154/128 38/50/31 36/48/31 131/153/128 
f 133/155/129 40/52/33 38/50/33 132/154/129 
f 134/156/130 42/54/35 40/52/35 133/155/130 
f 135/157/131 44/57/37 42/56/37 134/158/131 
f 128/150/132 28/40/39 44/57/39 135/157/132 
f 48/62/42 65/81/59 64/80/59 49/63/42 
f 51/65/44 68/84/61 65/81/61 48/62/44 
f 53/67/46 70/86/63 68/84/63 51/65/46 
f 55/69/48 72/88/65 70/86/65 53/67/48 
f 57/71/50 74/90/67 72/88/67 55/69/50 
f 59/73/52 76/92/69 74/90/69 57/71/52 
f 61/75/54 78/94/71 76/92/71 59/73/54 
f 63/78/56 80/97/73 78/96/73 61/79/56 
f 49/63/58 64/80/75 80/97/75 63/78/58 
f 30/42/24 47/61/41 46/60/41 31/43/24 
f 33/45/26 50/64/43 47/61/43 30/42/26 
f 35/47/28 52/66/45 50/64/45 33/45/28 
f 37/49/30 54/68/47 52/66/47 35/47/30 
f 39/51/32 56/70/49 54/68/49 37/49/32 
f 41/53/34 58/72/51 56/70/51 39/51/34 
f 43/55/36 60/74/53 58/72/53 41/53/36 
f 45/58/38 62/77/55 60/76/55 43/59/38 
f 31/43/40 46/60/57 62/77/57 45/58/40 
f 66/82/60 136/159/133 137/160/133 67/83/60 
f 69/85/62 138/161/134 136/159/134 66/82/62 
f 71/87/64 139/162/135 138/161/135 69/85/64 
f 73/89/66 140/163/136 139/162/136 71/87/66 
f 75/91/68 141/164/137 140/163/137 73/89/68 
f 77/93/70 142/165/138 141/164/138 75/91/70 
f 79/95/72 143/166/139 142/165/139 77/93/72 
f 81/98/74 144/167/140 143/168/140 79/99/74 
f 67/83/76 137/160/141 144/167/141 81/98/76 
f 145/169/142 146/170/143 147/171/143 148/172/143 
f 149/173/144 150/174/144 146/170/144 145/169/144 
f 151/175/145 152/176/145 150/174/145 149/173/145 
f 153/177/146 154/178/146 152/176/146 151/175/146 
f 155/179/147 156/180/147 154/178/147 153/177/147 
f 157/181/148 158/182/148 156/180/148 155/179/148 
f 159/183/149 160/184/149 158/182/149 157/181/149 
f 161/185/150 162/186/150 160/187/150 159/188/150 
f 148/172/151 147/171/151 162/186/151 161/185/151 
f 86/189/152 163/190/152 164/191/152 89/192/152 
f 89/192/153 164/191/153 165/193/153 85/194/153 
f 85/194/154 165/193/154 166/195/154 90/196/154 
f 90/196/155 166/195/155 167/197/155 82/198/155 
f 82/198/156 167/197/156 168/199/156 83/200/156 
f 83/200/157 168/199/157 169/201/157 84/202/157 
f 84/202/158 169/201/158 170/203/158 87/204/158 
f 87/205/159 170/206/159 171/207/159 88/208/159 
f 88/208/160 171/207/160 163/190/160 86/189/160 
f 146/170/161 164/191/161 163/190/161 147/171/161 
f 148/172/162 137/160/162 136/159/162 145/169/162 
f 150/174/163 165/193/163 164/191/163 146/170/163 
f 145/169/164 136/159/164 138/161/164 149/173/164 
f 152/176/165 166/195/165 165/193/165 150/174/165 
f 149/173/166 138/161/166 139/162/166 151/175/166 
f 154/178/167 167/197/167 166/195/167 152/176/167 
f 151/175/168 139/162/168 140/163/168 153/177/168 
f 156/180/169 168/199/169 167/197/169 154/178/169 
f 153/177/170 140/163/170 141/164/170 155/179/170 
f 158/182/171 169/201/171 168/199/171 156/180/171 
f 155/179/172 141/164/172 142/165/172 157/181/172 
f 160/184/173 170/203/173 169/201/173 158/182/173 
f 157/181/174 142/165/174 143/166/174 159/183/174 
f 162/186/175 171/207/175 170/206/175 160/187/175 
f 159/188/176 143/168/176 144/167/176 161/185/176 
f 147/171/177 163/190/177 171/207/177 162/186/177 
f 161/185/178 144/167/178 137/160/178 148/172/178 
# 166 polygons - 6 triangles

