# 3ds Max Wavefront OBJ Exporter v0.97b - (c)2007 guruware
# File Created: 21.04.2019 01:14:43

mtllib Boulder.mtl

#
# object Box009
#

v  -60.6082 -49.3461 18.0934
v  -18.2430 -54.1994 17.1184
v  -23.7368 -53.9834 34.7930
v  -23.5606 13.6093 4.4254
v  -90.7400 -2.8593 0.5587
v  -26.1818 -2.2106 32.2355
v  -33.4356 -27.4308 44.2912
v  -85.9532 -38.0138 17.7648
v  74.7518 -45.2540 11.9577
v  90.7401 -27.5491 15.5097
v  65.0447 -26.3389 51.0437
v  64.8671 -47.2844 35.1025
v  22.7307 -58.8632 -25.0897
v  33.6457 -45.8596 -53.8240
v  81.4921 -26.7762 -33.4925
v  65.9771 -46.1980 -27.1765
v  -57.7849 -53.5575 1.8534
v  -84.9484 -42.9773 -8.2546
v  -69.8142 -41.1625 -28.6395
v  -54.0743 -53.3634 -12.6823
v  69.8168 -46.8540 -10.1841
v  22.7985 -60.3010 -6.5609
v  60.7472 20.3081 26.2243
v  40.6803 53.9385 3.1858
v  22.7531 53.3794 4.9670
v  29.7422 19.2700 30.5892
v  24.8634 -35.3097 53.8240
v  22.9460 -58.9096 36.4179
v  -16.3859 -55.4933 -18.6269
v  -24.0932 -34.5352 -48.4891
v  39.6659 57.7688 -20.9261
v  41.5920 60.5542 -7.8247
v  69.1568 30.5477 -4.6931
v  61.6246 33.9027 -38.3813
v  23.5542 55.2098 -22.6532
v  32.0829 28.8139 -45.5615
v  -76.9087 -1.8982 -32.6501
v  -21.1130 19.0664 -32.0701
v  -24.9136 -2.9962 -44.0545
v  -17.3939 -55.4983 -2.4688
v  87.1686 -26.1845 -8.3031
v  -19.3183 21.8336 -17.9405
v  -86.4399 -1.7261 -10.2045
v  22.6169 -60.5542 16.2771
v  22.0197 59.8604 -7.3248
v  72.0665 28.2638 11.4132
# 46 vertices

vn -0.0825 -0.9912 0.1032
vn -0.1125 -0.9925 0.0477
vn -0.1209 -0.9927 0.0025
vn -0.3892 0.8215 0.4168
vn -0.8068 0.4938 0.3245
vn -0.2848 0.5753 0.7667
vn -0.2294 -0.4981 0.8362
vn -0.3139 -0.0043 0.9495
vn -0.7793 -0.3110 0.5440
vn -0.3984 -0.7185 0.5700
vn 0.7785 -0.6111 0.1431
vn 0.9620 -0.1471 0.2299
vn 0.8154 -0.0619 0.5756
vn 0.7308 -0.5254 0.4358
vn 0.0086 -0.8627 -0.5057
vn 0.1469 -0.4809 -0.8644
vn 0.3787 -0.2501 -0.8911
vn 0.3730 -0.8042 -0.4627
vn -0.3832 -0.9233 -0.0275
vn -0.7792 -0.5878 -0.2175
vn -0.7058 -0.5624 -0.4308
vn -0.3401 -0.9103 -0.2359
vn 0.2718 -0.9585 -0.0864
vn 0.2757 -0.9604 -0.0397
vn 0.0793 -0.9965 -0.0280
vn 0.0971 -0.9929 -0.0681
vn 0.0525 0.5078 0.8599
vn 0.0435 0.7458 0.6648
vn -0.2792 0.7772 0.5639
vn -0.1012 0.5513 0.8281
vn 0.1881 -0.5942 0.7820
vn 0.1195 -0.0430 0.9919
vn -0.0042 -0.1229 0.9924
vn 0.0032 -0.5439 0.8392
vn -0.1582 -0.8400 -0.5191
vn -0.1996 -0.3973 -0.8957
vn 0.7112 0.6898 -0.1354
vn 0.6967 0.7174 0.0031
vn 0.8443 0.5332 -0.0536
vn 0.8462 0.5050 -0.1703
vn -0.1088 0.6056 -0.7883
vn 0.0421 0.6410 -0.7664
vn 0.2134 0.3241 -0.9217
vn 0.0025 0.3799 -0.9250
vn -0.2805 0.0993 -0.9547
vn -0.2605 0.5253 -0.8101
vn -0.2047 0.2501 -0.9463
vn -0.0926 -0.9954 0.0244
vn -0.0850 -0.9959 -0.0316
vn -0.1221 -0.8327 -0.5401
vn -0.2480 -0.4459 -0.8600
vn 0.9654 -0.1560 -0.2091
vn 0.9681 -0.1767 -0.1779
vn -0.0649 -0.9945 0.0816
vn -0.5218 0.8530 0.0084
vn -0.8109 0.5627 -0.1606
vn 0.7547 -0.6371 -0.1563
vn 0.2778 -0.9592 0.0528
vn 0.0798 -0.9959 0.0431
vn 0.0729 -0.9970 0.0272
vn 0.2782 -0.9603 0.0224
vn -0.0422 0.9905 0.1307
vn -0.3616 0.9272 0.0976
vn 0.6158 0.7356 0.2824
vn 0.6345 0.4561 0.6239
vn 0.7681 0.5455 0.3354
vn -0.0540 -0.9984 -0.0148
vn -0.4596 0.8726 -0.1655
vn -0.7224 0.5757 -0.3831
vn 0.7526 -0.6359 -0.1708
vn -0.0793 0.9647 -0.2512
vn -0.3893 0.8930 -0.2257
# 72 vertex normals

vt 0.4485 0.5660 0.0000
vt 0.5906 0.5696 0.0000
vt 0.5695 0.6275 0.0000
vt 0.5541 0.3206 0.0000
vt 0.3259 0.2349 0.0000
vt 0.5710 0.2118 0.0000
vt 0.5794 0.0198 0.0000
vt 0.5580 0.1172 0.0000
vt 0.3557 0.0984 0.0000
vt 0.4352 0.0381 0.0000
vt 0.9731 0.0566 0.0000
vt 0.9900 0.1427 0.0000
vt 0.8515 0.1349 0.0000
vt 0.8813 0.0575 0.0000
vt 0.3728 0.9538 0.0000
vt 0.3820 0.8486 0.0000
vt 0.5509 0.7911 0.0000
vt 0.5101 0.8759 0.0000
vt 0.2843 0.3701 0.0000
vt 0.2031 0.4264 0.0000
vt 0.1590 0.3579 0.0000
vt 0.2468 0.3298 0.0000
vt 0.8856 0.4379 0.0000
vt 0.8936 0.4952 0.0000
vt 0.7321 0.4983 0.0000
vt 0.7357 0.4370 0.0000
vt 0.8599 0.2880 0.0000
vt 0.8049 0.4354 0.0000
vt 0.7406 0.4343 0.0000
vt 0.7551 0.2855 0.0000
vt 0.7416 0.0991 0.0000
vt 0.7419 0.0052 0.0000
vt 0.2381 0.9777 0.0000
vt 0.2081 0.8592 0.0000
vt 0.0306 0.2641 0.0000
vt 0.0073 0.2258 0.0000
vt 0.1220 0.1529 0.0000
vt 0.1528 0.2641 0.0000
vt 0.3081 0.5151 0.0000
vt 0.3629 0.4956 0.0000
vt 0.4527 0.5900 0.0000
vt 0.3560 0.6262 0.0000
vt 0.0005 0.7862 0.0000
vt 0.1722 0.6679 0.0000
vt 0.1804 0.7555 0.0000
vt 0.5974 0.5044 0.0000
vt 0.6039 0.4507 0.0000
vt 0.1036 0.9914 0.0000
vt 0.0498 0.9186 0.0000
vt 0.3390 0.1617 0.0000
vt 0.3072 0.0822 0.0000
vt 0.4620 0.5109 0.0000
vt 0.7501 0.7249 0.0000
vt 0.5140 0.6887 0.0000
vt 0.5003 0.6528 0.0000
vt 0.7289 0.6465 0.0000
vt 0.9833 0.5009 0.0000
vt 0.9875 0.5815 0.0000
vt 0.9077 0.5693 0.0000
vt 0.8698 0.6446 0.0000
vt 0.7252 0.6403 0.0000
vt 0.7274 0.5735 0.0000
vt 0.9995 0.7061 0.0000
vt 0.9366 0.7039 0.0000
vt 0.9318 0.6595 0.0000
vt 0.9942 0.6607 0.0000
vt 0.9126 0.3333 0.0000
vt 0.1262 0.5332 0.0000
vt 0.0969 0.5031 0.0000
vt 0.2569 0.4916 0.0000
vt 0.3190 0.4179 0.0000
vt 0.0005 0.1836 0.0000
vt 0.1092 0.0995 0.0000
vt 0.2816 0.0063 0.0000
vt 0.4771 0.4633 0.0000
vt 0.7372 0.7722 0.0000
vt 0.5395 0.7639 0.0000
vt 0.9686 0.4154 0.0000
vt 0.9897 0.7529 0.0000
vt 0.9325 0.7550 0.0000
vt 0.0481 0.4364 0.0000
# 81 texture coords

o Box009
g Box009
usemtl wire_008008136
s off
f 1/1/1 2/2/2 3/3/3 
f 4/4/4 5/5/5 6/6/6 
f 3/7/7 7/8/8 8/9/9 1/10/10 
f 9/11/11 10/12/12 11/13/13 12/14/14 
f 13/15/15 14/16/16 15/17/17 16/18/18 
f 17/19/19 18/20/20 19/21/21 20/22/22 
f 16/23/23 21/24/24 22/25/25 13/26/26 
f 23/27/27 24/28/28 25/29/29 26/30/30 
f 12/14/31 11/13/32 27/31/33 28/32/34 
f 29/33/35 30/34/36 14/16/16 13/15/15 
f 31/35/37 32/36/38 33/37/39 34/38/40 
f 35/39/41 31/40/42 34/41/43 36/42/44 
f 37/43/45 38/44/46 39/45/47 
f 13/26/26 22/25/25 40/46/48 29/47/49 
f 26/30/30 25/29/29 4/4/4 6/6/6 
f 28/32/34 27/31/33 7/8/8 3/7/7 
f 20/48/50 19/49/51 30/34/36 29/33/35 
f 35/39/41 36/42/44 39/45/47 38/44/46 
f 6/6/6 5/5/5 8/9/9 7/8/8 
f 15/50/52 34/38/40 33/37/39 41/51/53 
f 36/42/44 34/41/43 15/17/17 14/16/16 
f 11/13/32 23/27/27 26/30/30 27/31/33 
f 39/45/47 36/42/44 14/16/16 30/34/36 
f 27/31/33 26/30/30 6/6/6 7/8/8 
f 19/49/51 37/43/45 39/45/47 30/34/36 
f 17/52/54 40/46/48 2/2/2 1/1/1 
f 42/53/55 43/54/56 5/55/5 4/56/4 
f 21/24/57 41/57/53 10/58/12 9/59/11 
f 12/60/58 28/61/59 44/62/60 9/59/61 
f 32/63/62 45/64/63 25/65/29 24/66/28 
f 24/28/64 23/27/65 46/67/66 
f 28/61/59 3/3/3 2/2/2 44/62/60 
f 45/64/63 42/53/55 4/56/4 25/65/29 
f 46/67/66 23/27/65 11/13/13 10/12/12 
f 5/68/5 43/69/56 18/20/20 8/70/9 
f 1/71/10 8/70/9 18/20/20 17/19/19 
f 9/59/61 44/62/60 22/25/25 21/24/24 
f 24/72/64 46/73/66 33/37/39 32/36/38 
f 44/62/60 2/2/2 40/46/48 22/25/25 
f 33/37/39 46/73/66 10/74/12 41/51/53 
f 20/75/67 29/47/49 40/46/48 17/52/54 
f 38/76/68 37/77/69 43/54/56 42/53/55 
f 16/23/70 15/78/52 41/57/53 21/24/57 
f 31/79/71 35/80/72 45/64/63 32/63/62 
f 35/80/72 38/76/68 42/53/55 45/64/63 
f 43/69/56 37/81/69 19/21/21 18/20/20 
# 42 polygons - 4 triangles

