# 3ds Max Wavefront OBJ Exporter v0.97b - (c)2007 guruware
# File Created: 21.04.2019 03:25:03

mtllib Pedestal.mtl

#
# object Box005
#

v  -24.0804 14.6104 29.7989
v  -24.0804 14.6104 18.8839
v  -40.2590 14.6104 18.8839
v  -40.2590 14.6104 29.7989
v  -51.8019 1.7181 38.3433
v  -30.9846 1.7181 38.3433
v  40.2590 14.6104 29.7989
v  52.2090 1.2635 38.6448
v  52.2090 1.2635 24.4900
v  40.2590 14.6104 18.8839
v  40.2590 14.6104 -29.8040
v  51.8059 1.7137 -38.3514
v  31.3160 1.7137 -38.3514
v  24.3361 14.6104 -29.8040
v  -40.2590 14.6104 -29.8040
v  -52.0420 1.4499 -38.5263
v  -52.0420 1.4499 -23.8438
v  -40.2590 14.6104 -18.4458
v  22.4200 14.6104 29.7989
v  22.4200 14.6104 18.8839
v  -22.0601 14.6104 18.8839
v  -22.0601 14.6104 29.7989
v  24.3361 14.6104 29.7989
v  24.3361 14.6104 18.8839
v  -22.0601 14.6104 -17.1321
v  -24.0804 14.6104 -17.1321
v  -24.0804 14.6104 17.4828
v  -22.0601 14.6104 17.4828
v  22.4200 14.6104 -17.1321
v  22.4200 14.6104 17.4828
v  40.2590 14.6104 -17.1321
v  24.3361 14.6104 -17.1321
v  24.3361 14.6104 17.4828
v  40.2590 14.6104 17.4828
v  -22.0601 14.6104 -18.4458
v  -24.0804 14.6104 -18.4458
v  22.4200 14.6104 -18.4458
v  40.2590 14.6104 -18.4458
v  24.3361 14.6104 -18.4458
v  -40.2590 14.6104 -17.1321
v  -40.2590 14.6104 17.4828
v  -24.0804 14.6104 -29.8040
v  22.4200 14.6104 -29.8040
v  -22.0601 14.6104 -29.8040
v  -54.0802 -0.8265 40.0299
v  -32.3473 -0.8265 40.0299
v  54.0406 -0.7822 40.0005
v  54.0406 -0.7822 25.3492
v  54.1627 -0.9186 -40.0961
v  32.7407 -0.9186 -40.0961
v  -54.0815 -0.8279 -40.0359
v  -54.0815 -0.8279 -24.7781
v  21.7526 13.7769 29.8002
v  -21.3887 13.7769 29.8002
v  -28.6257 -0.9745 29.7964
v  29.1099 -0.9788 29.7993
v  -28.7360 -0.9219 -29.7847
v  -31.1282 1.4499 -38.5263
v  29.2181 -0.9219 -29.7847
v  29.0749 1.2635 38.6448
v  31.5597 1.2635 38.6448
v  40.2616 -0.6590 23.4205
v  40.2616 -0.6590 -22.9489
v  -40.2546 -0.6590 23.4205
v  -51.8019 1.7181 24.2990
v  -40.2546 -0.6590 -22.9489
v  51.8059 1.7137 -23.7356
v  -28.3850 1.7181 38.3433
v  -29.6334 -0.8265 40.0299
v  -29.3197 -0.9541 40.1163
v  29.8986 -0.9555 40.1173
v  -31.9223 -0.9470 -40.0784
v  -32.3479 -0.8279 -40.0359
v  32.5065 -0.9470 -40.0784
v  29.8979 -0.9209 40.0942
v  32.6669 -0.7822 40.0005
v  53.9160 -0.6767 25.1032
v  53.9160 -0.6767 -24.5308
v  -53.7272 -0.7194 24.7017
v  -54.0802 -0.8265 25.3678
v  -53.7272 -0.7194 -24.1293
v  54.1627 -0.9186 -24.8153
v  -66.2782 -14.4505 49.0594
v  -39.6432 -14.4505 49.0594
v  66.2782 -14.4505 49.0594
v  66.2782 -14.4505 31.0902
v  65.9799 -14.1173 -48.8438
v  39.8842 -14.1173 -48.8438
v  -66.2717 -14.4431 -49.0597
v  -66.2717 -14.4431 -30.3626
v  -36.3173 -14.4505 49.0594
v  -33.8247 -14.5649 41.3055
v  34.4389 -14.5655 41.3057
v  -35.2224 -14.6103 -40.0595
v  -39.6394 -14.4431 -49.0597
v  35.8446 -14.6103 -40.0595
v  36.8528 -14.4505 49.0597
v  40.0644 -14.4505 49.0594
v  53.9339 -14.6084 27.6150
v  53.9339 -14.6084 -27.0051
v  -53.7458 -14.4988 28.1182
v  -66.2782 -14.4505 31.0902
v  -53.7458 -14.4988 -27.9596
v  65.9799 -14.1173 -30.2290
v  35.6219 -14.6032 -27.1716
v  -35.0121 -14.6035 -27.8197
v  34.6737 -14.5730 27.7098
v  -34.0531 -14.5724 28.0099
v  -41.5975 -14.4703 41.7571
v  41.5173 -14.5303 40.9947
# 110 vertices

vn 0.0000 1.0000 -0.0000
vn 0.0000 0.5524 0.8335
vn 0.7450 0.6670 -0.0000
vn 0.0000 0.5524 -0.8335
vn -0.7450 0.6670 -0.0000
vn 0.7450 0.6670 0.0000
vn -0.0000 0.0008 1.0000
vn -0.0000 0.0007 1.0000
vn -0.0000 -0.0002 1.0000
vn -0.0001 -0.0001 1.0000
vn 0.2418 -0.0737 -0.9675
vn 0.0000 -0.0012 -1.0000
vn 0.8931 -0.2436 -0.3781
vn 0.9272 -0.1537 -0.3416
vn 0.0000 0.5526 0.8334
vn 0.0001 0.5526 0.8335
vn 1.0000 0.0002 -0.0000
vn -0.1759 -0.2561 -0.9505
vn -0.1499 -0.1200 -0.9814
vn -0.9425 -0.0954 -0.3203
vn -1.0000 -0.0003 -0.0000
vn 0.1681 -0.2714 0.9477
vn 0.1282 -0.2317 0.9643
vn 0.9420 -0.0948 0.3221
vn -0.0000 0.5524 -0.8335
vn -0.8916 -0.2685 -0.3645
vn -0.2397 -0.0765 -0.9678
vn -0.9183 -0.2359 -0.3179
vn 0.9426 -0.0950 -0.3201
vn 0.1401 -0.2132 -0.9669
vn 0.1791 -0.2721 -0.9455
vn -0.9418 -0.0953 0.3222
vn -0.1470 -0.0970 0.9844
vn -0.1659 -0.2551 0.9526
vn 0.0000 0.0016 1.0000
vn -0.0000 0.0016 1.0000
vn 0.9173 -0.3865 0.0959
vn 0.9214 -0.3656 0.1319
vn -0.0014 0.0004 1.0000
vn 0.3950 -0.1666 0.9034
vn 0.6214 0.4807 0.6187
vn 0.0779 0.6833 0.7260
vn -0.4261 0.3425 0.8373
vn -0.6088 0.1884 0.7706
vn -0.9008 -0.4218 0.1035
vn -0.9295 -0.3540 0.1033
vn 0.0000 1.0000 -0.0022
vn 0.0001 1.0000 -0.0020
vn 0.0000 1.0000 -0.0023
vn 0.2504 0.2180 -0.9433
vn 0.1533 0.2203 -0.9633
vn 0.0000 1.0000 -0.0024
vn 0.0004 0.5527 0.8334
vn 0.0002 0.5525 0.8335
vn 0.0013 1.0000 -0.0000
vn -0.7630 0.2610 -0.5913
vn -0.7943 0.0349 -0.6065
vn -0.0045 1.0000 -0.0000
vn 0.7736 0.3954 0.4951
vn 0.6587 -0.0466 0.7509
vn -0.2575 0.1468 -0.9550
vn -0.3348 0.1934 -0.9222
vn 0.8199 0.0473 -0.5705
vn 0.8136 0.3605 -0.4561
vn -0.7849 0.0149 0.6194
vn -0.7536 0.2610 0.6033
vn 0.9200 -0.2529 0.2995
vn 0.9162 -0.2505 0.3127
vn -0.4374 0.4450 0.7814
vn -0.9838 -0.0069 0.1791
vn -0.0000 0.0870 0.9962
vn 0.8735 -0.1814 -0.4518
vn 0.8812 -0.1830 -0.4359
vn 0.0000 -0.0014 -1.0000
vn 0.0001 0.5525 0.8335
vn 0.0000 0.5525 0.8335
vn 1.0000 0.0013 0.0000
vn 1.0000 0.0013 -0.0000
vn -0.2494 -0.1968 -0.9482
vn -0.2269 -0.1974 -0.9537
vn -1.0000 0.0013 0.0000
vn -1.0000 0.0013 -0.0000
vn 0.2686 -0.1565 0.9505
vn 0.2613 -0.1567 0.9525
vn -0.8818 -0.2010 -0.4267
vn -0.8855 -0.2019 -0.4185
vn 0.2772 -0.1575 -0.9478
vn 0.2695 -0.1578 -0.9500
vn -0.2069 -0.2266 0.9518
vn -0.1845 -0.2271 0.9563
vn -0.9154 -0.2801 0.2891
vn -0.9153 -0.2796 0.2899
vn 0.0022 -1.0000 0.0080
vn 0.0000 -0.9999 0.0148
vn 0.0068 -1.0000 0.0034
vn -0.0019 -1.0000 -0.0034
vn 0.0081 -0.9999 -0.0111
vn 0.0124 -0.9998 -0.0172
vn 0.0087 -0.9999 -0.0124
vn 0.0032 -1.0000 -0.0045
vn -0.0024 -1.0000 0.0009
vn -0.0025 -1.0000 0.0007
vn 0.0014 -1.0000 0.0033
vn -0.0003 -1.0000 0.0012
vn -0.0028 -1.0000 0.0016
vn -0.0028 -1.0000 0.0019
vn -0.0050 -1.0000 0.0009
vn 0.0036 -1.0000 0.0053
vn 0.0039 -0.9999 0.0098
vn 0.0011 -1.0000 0.0049
vn -0.0076 -1.0000 0.0031
vn -0.0063 -1.0000 0.0037
vn -0.0049 -1.0000 0.0039
vn 0.0038 -0.9999 0.0121
vn 0.0030 -1.0000 0.0082
vn -0.0008 -1.0000 0.0025
vn -0.0011 -1.0000 0.0016
vn -0.0052 -1.0000 0.0012
vn 0.0116 -0.9998 -0.0163
# 119 vertex normals

vt 0.2260 0.6033 0.0000
vt 0.2289 0.6482 0.0000
vt 0.1624 0.6507 0.0000
vt 0.1647 0.6089 0.0000
vt 0.1082 0.5628 0.0000
vt 0.1899 0.5449 0.0000
vt 0.4900 0.5907 0.0000
vt 0.5469 0.5371 0.0000
vt 0.5642 0.5952 0.0000
vt 0.4952 0.6340 0.0000
vt 0.5023 0.8342 0.0000
vt 0.5621 0.8800 0.0000
vt 0.4783 0.9013 0.0000
vt 0.4393 0.8392 0.0000
vt 0.1745 0.8504 0.0000
vt 0.1184 0.9028 0.0000
vt 0.1008 0.8427 0.0000
vt 0.1694 0.8053 0.0000
vt 0.4188 0.5926 0.0000
vt 0.4212 0.6378 0.0000
vt 0.2372 0.6477 0.0000
vt 0.2343 0.6024 0.0000
vt 0.4268 0.5922 0.0000
vt 0.4291 0.6374 0.0000
vt 0.2445 0.7963 0.0000
vt 0.2361 0.7967 0.0000
vt 0.2292 0.6539 0.0000
vt 0.2375 0.6535 0.0000
vt 0.4287 0.7871 0.0000
vt 0.4215 0.6436 0.0000
vt 0.5027 0.7834 0.0000
vt 0.4367 0.7867 0.0000
vt 0.4294 0.6432 0.0000
vt 0.4955 0.6398 0.0000
vt 0.2447 0.8018 0.0000
vt 0.2364 0.8022 0.0000
vt 0.4290 0.7925 0.0000
vt 0.5030 0.7888 0.0000
vt 0.4370 0.7921 0.0000
vt 0.1692 0.7999 0.0000
vt 0.1627 0.6565 0.0000
vt 0.2386 0.8492 0.0000
vt 0.4314 0.8396 0.0000
vt 0.2470 0.8488 0.0000
vt 0.0963 0.5528 0.0000
vt 0.1821 0.5339 0.0000
vt 0.5563 0.5280 0.0000
vt 0.5744 0.5882 0.0000
vt 0.5754 0.8903 0.0000
vt 0.4875 0.9128 0.0000
vt 0.1079 0.9128 0.0000
vt 0.0894 0.8502 0.0000
vt 0.7861 0.2379 0.0000
vt 0.7969 0.4217 0.0000
vt 0.7352 0.4489 0.0000
vt 0.7243 0.2111 0.0000
vt 0.8078 0.4263 0.0000
vt 0.8077 0.4182 0.0000
vt 0.8697 0.4444 0.0000
vt 0.8533 0.4779 0.0000
vt 0.8065 0.2412 0.0000
vt 0.8681 0.2138 0.0000
vt 0.7932 0.2282 0.0000
vt 0.7893 0.2350 0.0000
vt 0.7461 0.1779 0.0000
vt 0.7512 0.1701 0.0000
vt 0.6238 0.7588 0.0000
vt 0.6273 0.6213 0.0000
vt 0.6885 0.5993 0.0000
vt 0.6838 0.7835 0.0000
vt 0.9278 0.6021 0.0000
vt 0.9490 0.5601 0.0000
vt 0.9884 0.6204 0.0000
vt 0.9884 0.6260 0.0000
vt 0.9877 0.7635 0.0000
vt 0.9269 0.7863 0.0000
vt 0.6619 0.8250 0.0000
vt 0.6236 0.7641 0.0000
vt 0.2002 0.5432 0.0000
vt 0.2056 0.9160 0.0000
vt 0.8065 0.2336 0.0000
vt 0.8500 0.1820 0.0000
vt 0.4604 0.5243 0.0000
vt 0.6274 0.6158 0.0000
vt 0.6702 0.5546 0.0000
vt 0.0958 0.6192 0.0000
vt 0.9876 0.7687 0.0000
vt 0.9468 0.8296 0.0000
vt 0.5736 0.8187 0.0000
vt 0.8006 0.4238 0.0000
vt 0.7553 0.4745 0.0000
vt 0.7492 0.4847 0.0000
vt 0.7481 0.4842 0.0000
vt 0.6929 0.4538 0.0000
vt 0.6816 0.2098 0.0000
vt 0.8614 0.4864 0.0000
vt 0.8601 0.4877 0.0000
vt 0.9090 0.2004 0.0000
vt 0.9107 0.4568 0.0000
vt 0.7388 0.1682 0.0000
vt 0.7471 0.1619 0.0000
vt 0.7430 0.5940 0.0000
vt 0.7379 0.7912 0.0000
vt 0.9416 0.5501 0.0000
vt 0.9428 0.5473 0.0000
vt 0.8733 0.7907 0.0000
vt 0.8743 0.5967 0.0000
vt 0.6688 0.8360 0.0000
vt 0.6690 0.8378 0.0000
vt 0.1930 0.5318 0.0000
vt 0.1987 0.9267 0.0000
vt 0.8584 0.1710 0.0000
vt 0.8588 0.1718 0.0000
vt 0.4666 0.5146 0.0000
vt 0.6761 0.5449 0.0000
vt 0.6763 0.5460 0.0000
vt 0.0829 0.6117 0.0000
vt 0.9413 0.8411 0.0000
vt 0.9401 0.8383 0.0000
vt 0.5877 0.8261 0.0000
vt 0.0323 0.4990 0.0000
vt 0.1392 0.4749 0.0000
vt 0.6193 0.4675 0.0000
vt 0.6426 0.5412 0.0000
vt 0.6417 0.9422 0.0000
vt 0.5338 0.9707 0.0000
vt 0.0451 0.9727 0.0000
vt 0.0212 0.8961 0.0000
vt 0.7420 0.5488 0.0000
vt 0.7201 0.5286 0.0000
vt 0.7380 0.1676 0.0000
vt 0.6374 0.4749 0.0000
vt 0.6245 0.1937 0.0000
vt 0.9013 0.5260 0.0000
vt 0.8763 0.5574 0.0000
vt 0.9633 0.1868 0.0000
vt 0.9652 0.4696 0.0000
vt 0.7417 0.1176 0.0000
vt 0.7496 0.1145 0.0000
vt 0.7986 0.5854 0.0000
vt 0.7930 0.8024 0.0000
vt 0.9006 0.5111 0.0000
vt 0.9333 0.4716 0.0000
vt 0.8197 0.5829 0.0000
vt 0.8185 0.8056 0.0000
vt 0.7165 0.8679 0.0000
vt 0.6888 0.9102 0.0000
vt 0.1525 0.4721 0.0000
vt 0.1574 0.9908 0.0000
vt 0.9027 0.1400 0.0000
vt 0.8826 0.1085 0.0000
vt 0.5083 0.4500 0.0000
vt 0.7195 0.5120 0.0000
vt 0.6904 0.4716 0.0000
vt 0.0147 0.5712 0.0000
vt 0.8999 0.8784 0.0000
vt 0.9333 0.9165 0.0000
vt 0.6579 0.8639 0.0000
vt 0.7247 0.1299 0.0000
vt 0.3504 0.2049 0.0000
vt 0.3495 0.2489 0.0000
vt 0.2869 0.2476 0.0000
vt 0.2770 0.2263 0.0000
vt 0.1100 0.2229 0.0000
vt 0.0396 0.1984 0.0000
vt 0.0681 0.1914 0.0000
vt 0.1111 0.1927 0.0000
vt 0.2770 0.1975 0.0000
vt 0.0706 0.0631 0.0000
vt 0.1159 0.0637 0.0000
vt 0.2774 0.0663 0.0000
vt 0.3237 0.0669 0.0000
vt 0.3211 0.1987 0.0000
vt 0.0418 0.0543 0.0000
vt 0.0426 0.0121 0.0000
vt 0.1042 0.0133 0.0000
vt 0.1171 0.0318 0.0000
vt 0.2775 0.0350 0.0000
vt 0.2837 0.0169 0.0000
vt 0.2958 0.0343 0.0000
vt 0.1118 0.0135 0.0000
vt 0.1004 0.0322 0.0000
vt 0.2915 0.0171 0.0000
vt 0.3541 0.0183 0.0000
vt 0.3533 0.0605 0.0000
vt 0.1001 0.2434 0.0000
vt 0.0388 0.2422 0.0000
# 187 texture coords

o Box005
g Box005
usemtl pedestal_wire_061135006
s 1
f 1/1/1 2/2/1 3/3/1 4/4/1 
s 2
f 4/4/2 5/5/2 6/6/2 1/1/2 
f 7/7/3 8/8/3 9/9/3 10/10/3 
f 11/11/4 12/12/4 13/13/4 14/14/4 
f 15/15/5 16/16/5 17/17/5 18/18/5 
s 1
f 19/19/1 20/20/1 21/21/1 22/22/1 
f 23/23/1 24/24/1 20/20/1 19/19/1 
f 25/25/1 26/26/1 27/27/1 28/28/1 
f 29/29/1 25/25/1 28/28/1 30/30/1 
f 31/31/1 32/32/1 33/33/1 34/34/1 
f 35/35/1 36/36/1 26/26/1 25/25/1 
f 37/37/1 35/35/1 25/25/1 29/29/1 
f 38/38/1 39/39/1 32/32/1 31/31/1 
f 22/22/1 21/21/1 2/2/1 1/1/1 
f 40/40/1 41/41/1 27/27/1 26/26/1 
f 15/15/1 18/18/1 36/36/1 42/42/1 
f 7/7/1 10/10/1 24/24/1 23/23/1 
f 29/29/1 30/30/1 33/33/1 32/32/1 
f 43/43/1 37/37/1 39/39/1 14/14/1 
f 27/27/1 41/41/1 3/3/1 2/2/1 
f 30/30/1 28/28/1 21/21/1 20/20/1 
f 33/33/1 30/30/1 20/20/1 24/24/1 
f 28/28/1 27/27/1 2/2/1 21/21/1 
f 34/34/1 33/33/1 24/24/1 10/10/1 
f 44/44/1 42/42/1 36/36/1 35/35/1 
f 43/43/1 44/44/1 35/35/1 37/37/1 
f 11/11/1 14/14/1 39/39/1 38/38/1 
f 40/40/1 26/26/1 36/36/1 18/18/1 
f 29/29/1 32/32/1 39/39/1 37/37/1 
s 2
f 5/5/2 45/45/2 46/46/2 6/6/2 
f 8/8/3 47/47/6 48/48/3 9/9/3 
f 12/12/4 49/49/4 50/50/4 13/13/4 
f 16/16/5 51/51/5 52/52/5 17/17/5 
s 4
f 53/53/7 54/54/8 55/55/9 56/56/10 
s 2
f 42/57/11 44/58/12 57/59/13 58/60/14 
s 4
f 44/58/12 43/61/12 59/62/12 57/59/12 
s 8
f 23/63/2 19/64/2 60/65/15 61/66/16 
s 2
f 31/67/17 34/68/17 62/69/17 63/70/17 
f 64/71/18 65/72/19 3/73/20 41/74/21 
s 4
f 41/74/21 40/75/21 66/76/21 64/71/21 
f 63/70/22 67/77/23 38/78/24 31/67/17 
s 2
f 68/79/2 22/22/2 1/1/2 6/6/2 
s 4
f 15/15/25 42/42/4 58/80/25 16/16/25 
s 8
f 59/62/26 43/61/12 14/81/27 13/82/28 
f 7/7/2 23/23/2 61/83/16 8/8/2 
s 4
f 10/84/29 9/85/30 62/69/31 34/68/17 
f 4/4/5 3/3/5 65/86/5 5/5/5 
s 8
f 18/87/32 17/88/33 66/76/34 40/75/21 
f 11/11/3 38/38/3 67/89/3 12/12/3 
s 4
f 22/90/35 54/54/8 53/53/7 19/64/36 
s 8
f 68/91/37 55/55/38 54/54/39 22/90/40 
f 55/55/38 68/91/37 69/92/41 70/93/42 
s 2
f 19/64/43 53/53/44 56/56/45 60/65/46 
s 1
f 56/56/47 55/55/48 70/94/48 71/95/49 
s 2
f 58/60/14 57/59/13 72/96/50 73/97/51 
s 1
f 57/59/52 59/62/52 74/98/52 72/99/52 
s 8
f 61/66/16 60/65/15 75/100/53 76/101/54 
s 1
f 63/70/55 62/69/55 77/102/55 78/103/55 
s 2
f 79/104/56 80/105/57 65/72/19 64/71/18 
s 1
f 64/71/58 66/76/58 81/106/58 79/107/58 
s 4
f 78/108/59 82/109/60 67/77/23 63/70/22 
s 2
f 69/110/2 68/79/2 6/6/2 46/46/2 
s 4
f 16/16/25 58/80/25 73/111/25 51/51/25 
s 8
f 13/82/28 50/112/61 74/113/62 59/62/26 
f 8/8/2 61/83/16 76/114/54 47/47/2 
s 4
f 9/85/30 48/115/63 77/116/64 62/69/31 
f 5/5/5 65/86/5 80/117/5 45/45/5 
s 8
f 17/88/33 52/118/65 81/119/66 66/76/34 
f 12/12/3 67/89/3 82/120/3 49/49/3 
s 2
f 45/45/2 83/121/2 84/122/2 46/46/2 
f 47/47/6 85/123/6 86/124/6 48/48/3 
f 49/49/4 87/125/4 88/126/4 50/50/4 
f 51/51/5 89/127/5 90/128/5 52/52/5 
s 8
f 69/92/41 91/129/67 92/130/68 70/93/42 
s 2
f 56/56/45 71/131/69 75/100/70 60/65/46 
s 4
f 71/95/71 70/94/71 92/132/71 93/133/71 
s 2
f 73/97/51 72/96/50 94/134/72 95/135/73 
s 4
f 72/99/74 74/98/74 96/136/74 94/137/74 
s 8
f 76/101/54 75/100/53 97/138/75 98/139/76 
s 2
f 78/103/77 77/102/78 99/140/78 100/141/77 
f 80/105/57 79/104/56 101/142/79 102/143/80 
s 4
f 101/144/81 79/107/81 81/106/82 103/145/82 
f 82/109/60 78/108/59 100/146/83 104/147/84 
s 2
f 91/148/2 69/110/2 46/46/2 84/122/2 
s 4
f 51/51/25 73/111/25 95/149/25 89/127/25 
s 8
f 96/150/85 74/113/62 50/112/61 88/151/86 
f 47/47/2 76/114/54 98/152/76 85/123/2 
s 4
f 99/153/87 77/116/64 48/115/63 86/154/88 
f 45/45/5 80/117/5 102/155/5 83/121/5 
s 8
f 103/156/89 81/119/66 52/118/65 90/157/90 
f 49/49/3 82/120/3 104/158/3 87/125/3 
s 2
f 71/131/69 93/159/91 97/138/92 75/100/70 
s 1
f 90/160/93 89/161/94 95/162/95 94/163/96 
f 96/164/97 104/165/98 100/166/99 105/167/100 
f 94/163/101 96/164/97 105/167/100 106/168/102 
f 100/166/99 99/169/103 107/170/104 105/167/100 
f 105/167/100 107/170/104 108/171/105 106/168/102 
f 106/168/102 108/171/105 101/172/106 103/173/107 
f 99/169/103 86/174/108 85/175/108 98/176/109 
f 107/170/104 93/177/110 92/178/111 108/171/105 
f 108/171/105 92/178/111 91/179/112 109/180/113 
f 98/176/109 97/181/114 93/177/110 110/182/115 
f 99/169/103 98/176/109 110/182/115 
f 110/182/115 93/177/110 107/170/104 99/169/103 
f 84/183/116 83/184/117 102/185/117 101/172/106 
f 101/172/106 108/171/105 109/180/113 
f 109/180/113 91/179/112 84/183/116 101/172/106 
f 94/163/101 106/168/102 103/173/107 90/160/118 
f 96/164/97 88/186/119 87/187/119 104/165/98 
# 107 polygons - 2 triangles

