# 3ds Max Wavefront OBJ Exporter v0.97b - (c)2007 guruware
# File Created: 16.04.2019 00:07:15

mtllib rock1.mtl

#
# object Box008
#

v  66.1234 -35.4627 4.1197
v  87.9687 -35.7412 2.4490
v  91.8319 -33.2463 17.2244
v  76.7477 -31.3973 15.0348
v  65.6782 18.0460 7.5567
v  89.2659 31.7959 13.7979
v  89.9707 36.3347 -2.9052
v  63.2219 21.4753 -2.6785
v  84.6695 -8.4528 32.7075
v  61.0968 -11.1025 18.5478
v  135.8284 -32.6111 12.9841
v  142.0620 -36.3347 4.5659
v  153.4589 -4.4292 1.0825
v  145.6721 -0.5556 18.8774
v  136.1229 -33.7927 -6.1615
v  86.2048 -32.3007 -12.6891
v  86.3953 -7.1989 -32.7075
v  145.1333 -0.3927 -17.2789
v  71.4523 -33.9758 -6.8392
v  54.5706 -9.1331 -1.4095
v  60.9486 -8.3209 -22.0133
v  134.4794 9.1061 18.7613
v  87.5192 15.4714 25.3053
v  134.3103 9.6854 -17.3218
v  139.7368 11.1323 1.2412
v  87.6798 15.1146 -20.9015
v  61.4971 8.1437 18.6676
v  55.5042 7.2003 0.3399
v  61.4868 9.2442 -17.3396
v  132.5250 15.5842 14.9578
v  133.3131 16.6754 -15.4794
v  135.8125 19.7439 -0.4133
v  88.5681 31.2353 -18.9094
v  64.7658 20.9895 -12.1195
# 34 vertices

vn -0.0286 -0.9991 0.0304
vn -0.0161 -0.9996 0.0240
vn -0.0207 -0.9634 0.2673
vn -0.0591 -0.9587 0.2782
vn -0.4997 0.8213 0.2754
vn -0.0796 0.9482 0.3077
vn -0.0636 0.9978 0.0193
vn -0.4933 0.8684 0.0494
vn -0.0277 -0.4314 0.9017
vn -0.1295 -0.1122 0.9852
vn -0.3983 -0.1348 0.9073
vn -0.3278 -0.5028 0.7998
vn 0.8074 -0.2875 0.5152
vn 0.9281 -0.3705 0.0366
vn 0.9928 0.1200 -0.0046
vn 0.8548 0.3407 0.3916
vn 0.1960 -0.4846 -0.8525
vn -0.0552 -0.5546 -0.8303
vn -0.0590 -0.0914 -0.9941
vn 0.2002 -0.1483 -0.9685
vn -0.8116 -0.4781 -0.3358
vn -0.8631 -0.4941 0.1046
vn -0.9782 -0.2075 -0.0042
vn -0.9273 -0.1753 -0.3309
vn 0.1813 0.3581 0.9159
vn -0.1271 0.4565 0.8806
vn 0.1909 -0.1032 0.9762
vn 0.8675 0.3374 -0.3654
vn 0.8284 0.5057 -0.2408
vn 0.8261 0.5628 0.0291
vn -0.0791 0.3033 -0.9496
vn 0.1435 0.3050 -0.9415
vn -0.8857 -0.2292 0.4038
vn -0.9207 0.2358 0.3109
vn -0.9628 0.2668 0.0434
vn -0.3245 -0.0977 -0.9408
vn -0.2886 0.3383 -0.8957
vn 0.1860 0.5489 0.8149
vn -0.1156 0.6277 0.7698
vn 0.9209 0.2936 -0.2565
vn 0.9278 0.3728 -0.0135
vn -0.0737 0.2224 -0.9722
vn 0.1109 0.1632 -0.9803
vn -0.7861 0.5508 0.2805
vn -0.8793 0.4758 -0.0190
vn -0.2803 0.2796 -0.9183
vn -0.0008 -0.9743 -0.2251
vn 0.0026 -0.9999 0.0142
vn -0.0007 -0.9786 -0.2056
vn 0.3209 0.9033 0.2849
vn 0.3383 0.9410 0.0112
vn 0.1865 -0.3535 0.9167
vn -0.2735 -0.5850 -0.7635
vn -0.4368 0.3861 0.8124
vn -0.4364 0.6421 0.6302
vn -0.0006 -0.9826 -0.1856
vn -0.0709 0.9639 -0.2567
vn -0.4578 0.8678 -0.1930
vn 0.8040 -0.3575 -0.4751
vn -0.7754 -0.4325 0.4601
vn 0.7673 0.5869 0.2582
vn -0.9343 0.2338 -0.2690
vn 0.8461 0.4390 0.3024
vn -0.8907 0.3954 -0.2245
vn 0.0060 -0.9657 0.2595
vn 0.3286 0.9025 -0.2785
# 66 vertex normals

vt 0.1287 0.0568 0.0000
vt 0.2641 0.0116 0.0000
vt 0.2904 0.0874 0.0000
vt 0.2022 0.0986 0.0000
vt 0.1397 0.4013 0.0000
vt 0.2895 0.4496 0.0000
vt 0.2884 0.5346 0.0000
vt 0.1040 0.4502 0.0000
vt 0.2610 0.2346 0.0000
vt 0.1276 0.2185 0.0000
vt 0.5394 0.0847 0.0000
vt 0.5841 0.0472 0.0000
vt 0.6882 0.2403 0.0000
vt 0.5923 0.2577 0.0000
vt 0.9102 0.7704 0.0000
vt 0.6492 0.8776 0.0000
vt 0.5875 0.7266 0.0000
vt 0.8702 0.5820 0.0000
vt 0.5733 0.9284 0.0000
vt 0.5452 0.9871 0.0000
vt 0.3930 0.8588 0.0000
vt 0.4747 0.7894 0.0000
vt 0.5382 0.3124 0.0000
vt 0.2798 0.3545 0.0000
vt 0.8001 0.5522 0.0000
vt 0.8657 0.4673 0.0000
vt 0.9712 0.5665 0.0000
vt 0.5432 0.6122 0.0000
vt 0.1391 0.3189 0.0000
vt 0.0435 0.3434 0.0000
vt 0.0207 0.2153 0.0000
vt 0.4287 0.7091 0.0000
vt 0.5279 0.3532 0.0000
vt 0.7756 0.5246 0.0000
vt 0.7926 0.4428 0.0000
vt 0.5179 0.5398 0.0000
vt 0.4119 0.6403 0.0000
vt 0.9726 0.7898 0.0000
vt 0.6877 0.9500 0.0000
vt 0.5742 0.4290 0.0000
vt 0.4881 0.4642 0.0000
vt 0.3631 0.6252 0.0000
vt 0.6218 0.3677 0.0000
vt 0.3337 0.7428 0.0000
# 44 texture coords

o Box008
g Box008
usemtl wire_214229166
s off
f 1/1/1 2/2/2 3/3/3 4/4/4 
f 5/5/5 6/6/6 7/7/7 8/8/8 
f 3/3/9 9/9/10 10/10/11 4/4/12 
f 11/11/13 12/12/14 13/13/15 14/14/16 
f 15/15/17 16/16/18 17/17/19 18/18/20 
f 19/19/21 1/20/22 20/21/23 21/22/24 
f 22/23/25 23/24/26 9/9/10 14/14/27 
f 18/18/28 24/25/29 25/26/30 13/27/15 
f 26/28/31 24/25/32 18/18/20 17/17/19 
f 10/10/33 27/29/34 28/30/35 20/31/23 
f 21/22/36 29/32/37 26/28/31 17/17/19 
f 22/23/25 30/33/38 6/6/39 23/24/26 
f 31/34/40 32/35/41 25/26/30 24/25/29 
f 26/28/31 33/36/42 31/34/43 24/25/32 
f 5/5/44 8/8/45 28/30/35 27/29/34 
f 34/37/46 33/36/42 26/28/31 29/32/37 
f 15/15/47 12/38/48 2/39/2 16/16/49 
f 6/6/6 30/33/50 32/40/51 7/7/7 
f 11/11/52 14/14/27 9/9/10 3/3/9 
f 19/19/53 21/22/36 17/17/19 16/16/18 
f 27/29/54 10/10/11 9/9/10 23/24/26 
f 6/6/39 5/5/55 27/29/54 23/24/26 
f 19/19/56 16/16/49 2/39/2 1/20/1 
f 7/41/7 33/36/57 34/37/58 8/42/8 
f 15/15/59 18/18/28 13/27/15 12/38/14 
f 1/1/22 4/4/60 10/10/33 20/31/23 
f 25/43/30 22/23/61 14/14/16 13/13/15 
f 29/32/62 21/22/24 20/21/23 28/44/35 
f 30/33/63 22/23/61 25/43/30 32/40/41 
f 34/37/64 29/32/62 28/44/35 8/42/45 
f 11/11/65 3/3/3 2/2/2 12/12/48 
f 31/34/66 33/36/57 7/41/7 32/35/51 
# 32 polygons

