# 3ds Max Wavefront OBJ Exporter v0.97b - (c)2007 guruware
# File Created: 10.04.2019 16:52:03

mtllib vase3.mtl

#
# object Cylinder004
#

v  43.0028 0.1820 6.2517
v  37.4480 0.1820 8.5526
v  31.8933 0.1820 6.2517
v  29.5924 0.1820 0.6970
v  31.8933 0.1820 -4.8578
v  37.4480 0.1820 -7.1586
v  43.0028 0.1820 -4.8578
v  45.3036 0.1820 0.6970
v  45.3674 8.0270 -7.2224
v  48.6478 8.0270 0.6970
v  37.4480 8.0270 -10.5028
v  29.5286 8.0270 -7.2224
v  26.2483 8.0270 0.6970
v  29.5286 8.0270 8.6164
v  37.4480 8.0270 11.8967
v  45.3674 8.0270 8.6164
v  45.2600 15.8720 -7.1150
v  48.4958 15.8720 0.6970
v  37.4480 15.8720 -10.3508
v  29.6361 15.8720 -7.1150
v  26.4003 15.8720 0.6970
v  29.6361 15.8720 8.5089
v  37.4480 15.8720 11.7447
v  45.2600 15.8720 8.5089
v  41.4810 23.7170 -3.3360
v  43.1516 23.7170 0.6970
v  37.4480 23.7170 -5.0066
v  33.4150 23.7170 -3.3360
v  31.7445 23.7170 0.6970
v  33.4150 23.7170 4.7300
v  37.4480 23.7170 6.4005
v  41.4810 23.7170 4.7300
v  43.6329 26.1180 0.6970
v  41.8214 26.1180 -3.6764
v  41.4875 29.1611 -3.3425
v  43.1607 29.1611 0.6970
v  37.4480 26.1180 -5.4879
v  37.4480 29.1611 -5.0157
v  33.0747 26.1180 -3.6764
v  33.4085 29.1611 -3.3425
v  31.2632 26.1180 0.6970
v  31.7353 29.1611 0.6970
v  33.0747 26.1180 5.0703
v  33.4085 29.1611 4.7365
v  37.4480 26.1180 6.8818
v  37.4480 29.1611 6.4097
v  41.8214 26.1180 5.0703
v  41.4875 29.1611 4.7365
v  42.1342 31.5621 0.6970
v  40.7617 31.5621 -2.6167
v  41.5180 36.2449 -3.3730
v  43.2039 36.2449 0.6970
v  37.4480 31.5621 -3.9892
v  37.4480 36.2449 -5.0589
v  34.1344 31.5621 -2.6167
v  33.3780 36.2449 -3.3730
v  32.7618 31.5621 0.6970
v  31.6922 36.2449 0.6970
v  34.1344 31.5621 4.0106
v  33.3780 36.2449 4.7670
v  37.4480 31.5621 5.3832
v  37.4480 36.2449 6.4528
v  40.7617 31.5621 4.0106
v  41.5180 36.2449 4.7670
v  42.7086 0.5756 5.9575
v  44.8876 0.5756 0.6970
v  42.7086 0.5756 -4.5636
v  37.4480 0.5756 -6.7426
v  32.1875 0.5756 -4.5636
v  30.0084 0.5756 0.6970
v  32.1875 0.5756 5.9575
v  37.4480 0.5756 8.1366
v  43.0028 39.4071 -4.8578
v  45.3036 39.4071 0.6970
v  37.4480 39.4071 -7.1586
v  31.8933 39.4071 -4.8578
v  29.5924 39.4071 0.6970
v  31.8933 39.4071 6.2517
v  37.4480 39.4071 8.5526
v  43.0028 39.4071 6.2517
v  42.1573 40.0283 -4.0123
v  44.1079 40.0283 0.6970
v  37.4480 40.0283 -5.9629
v  32.7388 40.0283 -4.0123
v  30.7882 40.0283 0.6970
v  32.7388 40.0283 5.4062
v  37.4480 40.0283 7.3568
v  42.1573 40.0283 5.4062
v  43.1502 39.4071 0.6970
v  41.4800 39.4071 -3.3351
v  40.5075 35.9292 -2.3625
v  41.7748 35.9292 0.6970
v  37.4480 39.4071 -5.0052
v  37.4480 35.9292 -3.6298
v  33.4160 39.4071 -3.3351
v  34.3885 35.9292 -2.3625
v  31.7459 39.4071 0.6970
v  33.1213 35.9292 0.6970
v  33.4160 39.4071 4.7290
v  34.3885 35.9292 3.7565
v  37.4480 39.4071 6.3991
v  37.4480 35.9292 5.0237
v  41.4800 39.4071 4.7290
v  40.5075 35.9292 3.7565
v  40.8177 23.6928 -2.6727
v  42.2135 23.6928 0.6970
v  37.4480 23.6928 -4.0685
v  34.0783 23.6928 -2.6727
v  32.6826 23.6928 0.6970
v  34.0784 23.6928 4.0667
v  37.4480 23.6928 5.4624
v  40.8177 23.6928 4.0667
v  41.3068 25.9434 -3.1618
v  42.9051 25.9434 0.6970
v  37.4480 25.9434 -4.7601
v  33.5893 25.9434 -3.1618
v  31.9909 25.9434 0.6970
v  33.5893 25.9434 4.5557
v  37.4480 25.9434 6.1541
v  41.3068 25.9434 4.5557
v  42.3807 29.3357 0.6970
v  40.9359 29.3357 -2.7909
v  40.9359 29.3357 4.1849
v  37.4480 29.3357 5.6296
v  33.9601 29.3357 4.1849
v  32.5154 29.3357 0.6970
v  33.9601 29.3357 -2.7909
v  37.4480 29.3357 -4.2357
v  41.6023 25.8366 -3.4573
v  43.3230 25.8366 0.6970
v  37.4480 25.8366 -5.1780
v  33.2938 25.8366 -3.4573
v  31.5731 25.8366 0.6970
v  33.2938 25.8366 4.8512
v  37.4480 25.8366 6.5719
v  41.6023 25.8366 4.8512
v  42.7365 29.4347 0.6970
v  41.1875 29.4347 -3.0425
v  41.1875 29.4347 4.4365
v  37.4480 29.4347 5.9854
v  33.7085 29.4347 4.4365
v  32.1596 29.4347 0.6970
v  33.7085 29.4347 -3.0425
v  37.4480 29.4347 -4.5915
v  44.7109 15.8535 -6.5659
v  47.7193 15.8535 0.6970
v  37.4480 15.8535 -9.5743
v  30.1851 15.8535 -6.5659
v  27.1768 15.8535 0.6970
v  30.1851 15.8535 7.9599
v  37.4480 15.8535 10.9682
v  44.7109 15.8535 7.9599
v  44.7109 8.0142 -6.5659
v  47.7193 8.0142 0.6970
v  37.4480 8.0142 -9.5743
v  30.1851 8.0142 -6.5659
v  27.1768 8.0142 0.6970
v  30.1851 8.0142 7.9599
v  37.4480 8.0142 10.9682
v  44.7109 8.0142 7.9599
# 160 vertices

vn 0.4477 -0.7740 0.4477
vn -0.0000 -0.7740 0.6332
vn -0.4477 -0.7740 0.4477
vn -0.6332 -0.7740 0.0000
vn -0.4477 -0.7740 -0.4477
vn -0.0000 -0.7740 -0.6332
vn 0.4477 -0.7740 -0.4477
vn 0.6332 -0.7740 0.0000
vn 0.6953 -0.1817 -0.6953
vn 0.9834 -0.1817 -0.0000
vn -0.0000 -0.1817 -0.9834
vn -0.6953 -0.1817 -0.6953
vn -0.9834 -0.1817 -0.0000
vn -0.6953 -0.1817 0.6953
vn 0.0000 -0.1817 0.9834
vn 0.6953 -0.1817 0.6953
vn 0.6777 0.2854 -0.6777
vn 0.9584 0.2854 0.0000
vn 0.0000 0.2854 -0.9584
vn -0.6777 0.2854 -0.6777
vn -0.9584 0.2854 -0.0000
vn -0.6777 0.2854 0.6777
vn -0.0000 0.2854 0.9584
vn 0.6777 0.2854 0.6777
vn 0.6576 0.3676 -0.6576
vn 0.9300 0.3676 -0.0000
vn -0.0000 0.3676 -0.9300
vn -0.6576 0.3676 -0.6576
vn -0.9300 0.3676 0.0000
vn -0.6576 0.3676 0.6576
vn -0.0000 0.3676 0.9300
vn 0.6576 0.3676 0.6576
vn 0.9534 -0.3018 0.0000
vn 0.6741 -0.3018 -0.6741
vn 0.6110 0.5033 -0.6110
vn 0.8641 0.5033 0.0000
vn -0.0000 -0.3018 -0.9534
vn -0.0000 0.5033 -0.8641
vn -0.6741 -0.3018 -0.6741
vn -0.6110 0.5033 -0.6110
vn -0.9534 -0.3018 0.0000
vn -0.8641 0.5033 0.0000
vn -0.6741 -0.3018 0.6741
vn -0.6110 0.5033 0.6110
vn 0.0000 -0.3018 0.9534
vn 0.0000 0.5033 0.8641
vn 0.6741 -0.3018 0.6741
vn 0.6110 0.5033 0.6110
vn 0.9982 -0.0596 0.0000
vn 0.7059 -0.0596 -0.7058
vn 0.6445 -0.4112 -0.6445
vn 0.9115 -0.4112 0.0000
vn -0.0000 -0.0596 -0.9982
vn 0.0000 -0.4112 -0.9115
vn -0.7058 -0.0596 -0.7058
vn -0.6445 -0.4112 -0.6445
vn -0.9982 -0.0596 0.0000
vn -0.9115 -0.4112 0.0000
vn -0.7058 -0.0596 0.7058
vn -0.6445 -0.4112 0.6445
vn -0.0000 -0.0596 0.9982
vn -0.0000 -0.4112 0.9115
vn 0.7059 -0.0596 0.7058
vn 0.6445 -0.4112 0.6445
vn -0.4589 0.7608 -0.4589
vn -0.6490 0.7608 -0.0000
vn -0.4589 0.7608 0.4589
vn 0.0000 0.7608 0.6490
vn 0.4589 0.7608 0.4589
vn 0.6490 0.7608 -0.0000
vn 0.4589 0.7608 -0.4589
vn 0.0000 0.7608 -0.6490
vn 0.6906 0.2149 -0.6906
vn 0.9766 0.2149 -0.0000
vn -0.0000 0.2149 -0.9766
vn -0.6906 0.2149 -0.6906
vn -0.9766 0.2149 0.0000
vn -0.6906 0.2149 0.6906
vn -0.0000 0.2149 0.9766
vn 0.6906 0.2149 0.6906
vn 0.0545 0.9970 -0.0545
vn 0.0771 0.9970 -0.0000
vn 0.0000 0.9970 -0.0771
vn -0.0545 0.9970 -0.0545
vn -0.0771 0.9970 0.0000
vn -0.0545 0.9970 0.0545
vn -0.0000 0.9970 0.0771
vn 0.0545 0.9970 0.0545
vn -0.7399 0.6727 -0.0000
vn -0.5232 0.6727 0.5232
vn -0.6957 0.1785 0.6957
vn -0.9839 0.1785 -0.0000
vn 0.0000 0.6727 0.7399
vn -0.0000 0.1785 0.9839
vn 0.5232 0.6727 0.5232
vn 0.6957 0.1785 0.6957
vn 0.7399 0.6727 -0.0000
vn 0.9839 0.1785 0.0000
vn 0.5232 0.6727 -0.5232
vn 0.6957 0.1785 -0.6957
vn 0.0000 0.6727 -0.7399
vn 0.0000 0.1785 -0.9839
vn -0.5232 0.6727 -0.5232
vn -0.6957 0.1785 -0.6957
vn -0.6646 -0.3415 0.6646
vn -0.9399 -0.3415 0.0000
vn 0.0000 -0.3415 0.9399
vn 0.6646 -0.3415 0.6646
vn 0.9399 -0.3415 -0.0000
vn 0.6646 -0.3415 -0.6646
vn -0.0000 -0.3415 -0.9399
vn -0.6646 -0.3415 -0.6646
vn 0.3565 -0.8636 -0.3565
vn 0.5042 -0.8636 -0.0000
vn -0.0000 -0.8636 -0.5042
vn -0.3565 -0.8636 -0.3565
vn -0.5042 -0.8636 0.0000
vn -0.3565 -0.8636 0.3565
vn 0.0000 -0.8636 0.5042
vn 0.3565 -0.8636 0.3565
vn 0.4014 0.9159 0.0000
vn 0.2838 0.9159 -0.2838
vn 0.2838 0.9159 0.2838
vn 0.0000 0.9159 0.4014
vn -0.2838 0.9159 0.2838
vn -0.4014 0.9159 -0.0000
vn -0.2838 0.9159 -0.2838
vn 0.0000 0.9159 -0.4014
vn 0.2442 -0.9385 -0.2442
vn 0.3453 -0.9385 0.0000
vn -0.0000 -0.9385 -0.3453
vn -0.2442 -0.9385 -0.2442
vn -0.3453 -0.9385 0.0000
vn -0.2442 -0.9385 0.2442
vn -0.0000 -0.9385 0.3453
vn 0.2442 -0.9385 0.2442
vn 0.2462 0.9692 0.0000
vn 0.1741 0.9692 -0.1741
vn 0.1741 0.9692 0.1741
vn -0.0000 0.9692 0.2462
vn -0.1741 0.9692 0.1741
vn -0.2462 0.9692 0.0000
vn -0.1741 0.9692 -0.1741
vn 0.0000 0.9692 -0.2462
vn -0.6784 -0.2822 0.6784
vn -0.9594 -0.2822 -0.0000
vn 0.0000 -0.2822 0.9594
vn 0.6784 -0.2822 0.6784
vn 0.9594 -0.2822 -0.0000
vn 0.6784 -0.2822 -0.6784
vn 0.0000 -0.2822 -0.9594
vn -0.6784 -0.2822 -0.6784
vn -0.6964 0.1735 0.6964
vn -0.9848 0.1735 -0.0000
vn 0.0000 0.1735 0.9848
vn 0.6964 0.1735 0.6964
vn 0.9848 0.1735 -0.0000
vn 0.6964 0.1735 -0.6964
vn 0.0000 0.1735 -0.9848
vn -0.6964 0.1735 -0.6964
# 160 vertex normals

vt 0.6250 0.0000 1.0000
vt 0.5000 0.0000 1.0000
vt 0.3750 0.0000 1.0000
vt 0.2500 0.0000 1.0000
vt 0.1250 0.0000 1.0000
vt 0.0000 0.0000 1.0000
vt -0.1250 0.0000 1.0000
vt 0.1161 0.0000 0.4142
vt 0.7500 0.0000 1.0000
vt 0.8750 0.0000 1.0000
vt 0.8750 0.2000 1.0000
vt 0.7500 0.2000 1.0000
vt 0.0000 0.2000 1.0000
vt -0.1250 0.2000 1.0000
vt 0.1250 0.2000 1.0000
vt 0.2500 0.2000 1.0000
vt 0.3750 0.2000 1.0000
vt 0.5000 0.2000 1.0000
vt 0.6250 0.2000 1.0000
vt 0.8750 0.4000 1.0000
vt 0.7500 0.4000 1.0000
vt 0.0000 0.4000 1.0000
vt -0.1250 0.4000 1.0000
vt 0.1250 0.4000 1.0000
vt 0.2500 0.4000 1.0000
vt 0.3750 0.4000 1.0000
vt 0.5000 0.4000 1.0000
vt 0.6250 0.4000 1.0000
vt 0.8750 0.6000 1.0000
vt 0.7500 0.6000 1.0000
vt 0.0000 0.6000 1.0000
vt -0.1250 0.6000 1.0000
vt 0.1250 0.6000 1.0000
vt 0.2500 0.6000 1.0000
vt 0.3750 0.6000 1.0000
vt 0.5000 0.6000 1.0000
vt 0.6250 0.6000 1.0000
vt 0.7500 0.6198 1.0000
vt 0.8750 0.6198 1.0000
vt 0.8750 0.7802 1.0000
vt 0.7500 0.7802 1.0000
vt -0.1250 0.6198 1.0000
vt 0.0000 0.6198 1.0000
vt 0.0000 0.7802 1.0000
vt -0.1250 0.7802 1.0000
vt 0.1250 0.6198 1.0000
vt 0.1250 0.7802 1.0000
vt 0.2500 0.6198 1.0000
vt 0.2500 0.7802 1.0000
vt 0.3750 0.6198 1.0000
vt 0.3750 0.7802 1.0000
vt 0.5000 0.6198 1.0000
vt 0.5000 0.7802 1.0000
vt 0.6250 0.6198 1.0000
vt 0.6250 0.7802 1.0000
vt 0.7500 0.8000 1.0000
vt 0.8750 0.8000 1.0000
vt 0.8750 0.9194 1.0000
vt 0.7500 0.9194 1.0000
vt -0.1250 0.8000 1.0000
vt 0.0000 0.8000 1.0000
vt 0.0000 0.9194 1.0000
vt -0.1250 0.9194 1.0000
vt 0.1250 0.8000 1.0000
vt 0.1250 0.9194 1.0000
vt 0.2500 0.8000 1.0000
vt 0.2500 0.9194 1.0000
vt 0.3750 0.8000 1.0000
vt 0.3750 0.9194 1.0000
vt 0.5000 0.8000 1.0000
vt 0.5000 0.9194 1.0000
vt 0.6250 0.8000 1.0000
vt 0.6250 0.9194 1.0000
vt 0.6250 1.0000 1.0000
vt 0.7500 1.0000 1.0000
vt 0.8750 1.0000 1.0000
vt 0.7803 1.0000 0.4142
vt 0.5214 1.0000 -0.4142
vt 0.2500 1.0000 -1.0000
vt 0.1250 1.0000 -1.0000
vt 0.2197 1.0000 -0.4142
vt 0.0000 1.0000 1.0000
vt -0.1250 1.0000 1.0000
vt 0.1250 1.0000 1.0000
vt 0.2500 1.0000 1.0000
vt 0.3750 1.0000 1.0000
vt 0.5000 1.0000 1.0000
# 87 texture coords

o Cylinder004
g Cylinder004
usemtl wire_198225087
s 1
f 1/1/1 2/2/2 3/3/3 4/4/4 5/5/5 6/6/6 7/7/7 8/8/8 
s 2
f 8/9/8 7/10/7 9/11/9 10/12/10 
s 4
f 7/7/7 6/6/6 11/13/11 9/14/9 
s 2
f 6/6/6 5/5/5 12/15/12 11/13/11 
s 4
f 5/5/5 4/4/4 13/16/13 12/15/12 
s 2
f 4/4/4 3/3/3 14/17/14 13/16/13 
s 4
f 3/3/3 2/2/2 15/18/15 14/17/14 
s 2
f 2/2/2 1/1/1 16/19/16 15/18/15 
s 4
f 1/1/1 8/9/8 10/12/10 16/19/16 
s 2
f 10/12/10 9/11/9 17/20/17 18/21/18 
s 4
f 9/14/9 11/13/11 19/22/19 17/23/17 
s 2
f 11/13/11 12/15/12 20/24/20 19/22/19 
s 4
f 12/15/12 13/16/13 21/25/21 20/24/20 
s 2
f 13/16/13 14/17/14 22/26/22 21/25/21 
s 4
f 14/17/14 15/18/15 23/27/23 22/26/22 
s 2
f 15/18/15 16/19/16 24/28/24 23/27/23 
s 4
f 16/19/16 10/12/10 18/21/18 24/28/24 
s 1
f 18/21/18 17/20/17 25/29/25 26/30/26 
s 8
f 17/23/17 19/22/19 27/31/27 25/32/25 
s 1
f 19/22/19 20/24/20 28/33/28 27/31/27 
s 8
f 20/24/20 21/25/21 29/34/29 28/33/28 
s 1
f 21/25/21 22/26/22 30/35/30 29/34/29 
s 8
f 22/26/22 23/27/23 31/36/31 30/35/30 
s 1
f 23/27/23 24/28/24 32/37/32 31/36/31 
s 8
f 24/28/24 18/21/18 26/30/26 32/37/32 
s 1
f 33/38/33 34/39/34 35/40/35 36/41/36 
s 2
f 34/42/34 37/43/37 38/44/38 35/45/35 
s 1
f 37/43/37 39/46/39 40/47/40 38/44/38 
s 2
f 39/46/39 41/48/41 42/49/42 40/47/40 
s 1
f 41/48/41 43/50/43 44/51/44 42/49/42 
s 2
f 43/50/43 45/52/45 46/53/46 44/51/44 
s 1
f 45/52/45 47/54/47 48/55/48 46/53/46 
s 2
f 47/54/47 33/38/33 36/41/36 48/55/48 
s 1
f 49/56/49 50/57/50 51/58/51 52/59/52 
s 2
f 50/60/50 53/61/53 54/62/54 51/63/51 
s 1
f 53/61/53 55/64/55 56/65/56 54/62/54 
s 2
f 55/64/55 57/66/57 58/67/58 56/65/56 
s 1
f 57/66/57 59/68/59 60/69/60 58/67/58 
s 2
f 59/68/59 61/70/61 62/71/62 60/69/60 
s 1
f 61/70/61 63/72/63 64/73/64 62/71/62 
s 2
f 63/72/63 49/56/49 52/59/52 64/73/64 
s 1
f 65/74/65 66/75/66 67/76/67 68/77/68 69/78/69 70/79/70 71/80/71 72/81/72 
f 51/58/51 73/76/73 74/75/74 52/59/52 
s 2
f 54/62/54 75/82/75 73/83/73 51/63/51 
s 1
f 56/65/56 76/84/76 75/82/75 54/62/54 
s 2
f 58/67/58 77/85/77 76/84/76 56/65/56 
s 1
f 60/69/60 78/86/78 77/85/77 58/67/58 
s 2
f 62/71/62 79/87/79 78/86/78 60/69/60 
s 1
f 64/73/64 80/74/80 79/87/79 62/71/62 
s 2
f 52/59/52 74/75/74 80/74/80 64/73/64 
s 4
f 74/75/74 73/76/73 81/76/81 82/75/82 
f 73/76/73 75/77/75 83/77/83 81/76/81 
f 75/77/75 76/78/76 84/78/84 83/77/83 
f 76/78/76 77/79/77 85/79/85 84/78/84 
f 77/79/77 78/80/78 86/80/86 85/79/85 
f 78/80/78 79/81/79 87/81/87 86/80/86 
f 79/81/79 80/74/80 88/74/88 87/81/87 
f 80/74/80 74/75/74 82/75/82 88/74/88 
s 2
f 89/75/89 90/76/90 91/76/91 92/75/92 
s 4
f 90/76/90 93/77/93 94/77/94 91/76/91 
s 2
f 93/77/93 95/78/95 96/78/96 94/77/94 
s 4
f 95/78/95 97/79/97 98/79/98 96/78/96 
s 2
f 97/79/97 99/80/99 100/80/100 98/79/98 
s 4
f 99/80/99 101/81/101 102/81/102 100/80/100 
s 2
f 101/81/101 103/74/103 104/74/104 102/81/102 
s 4
f 103/74/103 89/75/89 92/75/92 104/74/104 
s 2
f 92/75/92 91/76/91 105/76/105 106/75/106 
s 4
f 91/76/91 94/77/94 107/77/107 105/76/105 
s 2
f 94/77/94 96/78/96 108/78/108 107/77/107 
s 4
f 96/78/96 98/79/98 109/79/109 108/78/108 
s 2
f 98/79/98 100/80/100 110/80/110 109/79/109 
s 4
f 100/80/100 102/81/102 111/81/111 110/80/110 
s 2
f 102/81/102 104/74/104 112/74/112 111/81/111 
s 4
f 104/74/104 92/75/92 106/75/106 112/74/112 
s 1
f 81/76/81 90/76/90 89/75/89 82/75/82 
f 83/77/83 93/77/93 90/76/90 81/76/81 
f 84/78/84 95/78/95 93/77/93 83/77/83 
f 85/79/85 97/79/97 95/78/95 84/78/84 
f 86/80/86 99/80/99 97/79/97 85/79/85 
f 87/81/87 101/81/101 99/80/99 86/80/86 
f 88/74/88 103/74/103 101/81/101 87/81/87 
f 82/75/82 89/75/89 103/74/103 88/74/88 
f 26/30/26 25/29/25 113/29/113 114/30/114 
s 8
f 25/32/25 27/31/27 115/31/115 113/32/113 
s 1
f 27/31/27 28/33/28 116/33/116 115/31/115 
s 8
f 28/33/28 29/34/29 117/34/117 116/33/116 
s 1
f 29/34/29 30/35/30 118/35/118 117/34/117 
s 8
f 30/35/30 31/36/31 119/36/119 118/35/118 
s 1
f 31/36/31 32/37/32 120/37/120 119/36/119 
s 8
f 32/37/32 26/30/26 114/30/114 120/37/120 
s 1
f 50/57/50 49/56/49 121/56/121 122/57/122 
s 2
f 49/56/49 63/72/63 123/72/123 121/56/121 
s 1
f 63/72/63 61/70/61 124/70/124 123/72/123 
s 2
f 61/70/61 59/68/59 125/68/125 124/70/124 
s 1
f 59/68/59 57/66/57 126/66/126 125/68/125 
s 2
f 57/66/57 55/64/55 127/64/127 126/66/126 
s 1
f 55/64/55 53/61/53 128/61/128 127/64/127 
s 2
f 53/61/53 50/60/50 122/60/122 128/61/128 
f 114/30/114 113/29/113 129/29/129 130/30/130 
f 113/32/113 115/31/115 131/31/131 129/32/129 
f 115/31/115 116/33/116 132/33/132 131/31/131 
f 116/33/116 117/34/117 133/34/133 132/33/132 
f 117/34/117 118/35/118 134/35/134 133/34/133 
f 118/35/118 119/36/119 135/36/135 134/35/134 
f 119/36/119 120/37/120 136/37/136 135/36/135 
f 120/37/120 114/30/114 130/30/130 136/37/136 
s 4
f 122/57/122 121/56/121 137/56/137 138/57/138 
f 121/56/121 123/72/123 139/72/139 137/56/137 
f 123/72/123 124/70/124 140/70/140 139/72/139 
f 124/70/124 125/68/125 141/68/141 140/70/140 
f 125/68/125 126/66/126 142/66/142 141/68/141 
f 126/66/126 127/64/127 143/64/143 142/66/142 
f 127/64/127 128/61/128 144/61/144 143/64/143 
f 128/61/128 122/60/122 138/60/138 144/61/144 
f 33/38/33 130/30/130 129/29/129 34/39/34 
s 8
f 34/42/34 129/32/129 131/31/131 37/43/37 
s 4
f 37/43/37 131/31/131 132/33/132 39/46/39 
s 8
f 39/46/39 132/33/132 133/34/133 41/48/41 
s 4
f 41/48/41 133/34/133 134/35/134 43/50/43 
s 8
f 43/50/43 134/35/134 135/36/135 45/52/45 
s 4
f 45/52/45 135/36/135 136/37/136 47/54/47 
s 8
f 47/54/47 136/37/136 130/30/130 33/38/33 
f 35/40/35 138/57/138 137/56/137 36/41/36 
f 36/41/36 137/56/137 139/72/139 48/55/48 
f 48/55/48 139/72/139 140/70/140 46/53/46 
f 46/53/46 140/70/140 141/68/141 44/51/44 
f 44/51/44 141/68/141 142/66/142 42/49/42 
f 42/49/42 142/66/142 143/64/143 40/47/40 
f 40/47/40 143/64/143 144/61/144 38/44/38 
f 38/44/38 144/61/144 138/60/138 35/45/35 
s off
f 106/75/106 105/76/105 145/76/145 146/75/146 
f 105/76/105 107/77/107 147/77/147 145/76/145 
f 107/77/107 108/78/108 148/78/148 147/77/147 
f 108/78/108 109/79/109 149/79/149 148/78/148 
f 109/79/109 110/80/110 150/80/150 149/79/149 
f 110/80/110 111/81/111 151/81/151 150/80/150 
f 111/81/111 112/74/112 152/74/152 151/81/151 
f 112/74/112 106/75/106 146/75/146 152/74/152 
f 146/75/146 145/76/145 153/76/153 154/75/154 
f 145/76/145 147/77/147 155/77/155 153/76/153 
f 147/77/147 148/78/148 156/78/156 155/77/155 
f 148/78/148 149/79/149 157/79/157 156/78/156 
f 149/79/149 150/80/150 158/80/158 157/79/157 
f 150/80/150 151/81/151 159/81/159 158/80/158 
f 151/81/151 152/74/152 160/74/160 159/81/159 
f 152/74/152 146/75/146 154/75/154 160/74/160 
f 154/75/154 153/76/153 67/76/67 66/75/66 
f 153/76/153 155/77/155 68/77/68 67/76/67 
f 155/77/155 156/78/156 69/78/69 68/77/68 
f 156/78/156 157/79/157 70/79/70 69/78/69 
f 157/79/157 158/80/158 71/80/71 70/79/70 
f 158/80/158 159/81/159 72/81/72 71/80/71 
f 159/81/159 160/74/160 65/74/65 72/81/72 
f 160/74/160 154/75/154 66/75/66 65/74/65 
# 154 polygons

