# 3ds Max Wavefront OBJ Exporter v0.97b - (c)2007 guruware
# File Created: 21.04.2019 05:06:46

mtllib vase2.mtl

#
# object vase
#

v  -0.0000 0.7480 -5.4580
v  3.8593 0.7480 -3.8594
v  5.4578 0.7480 -0.0001
v  2.2607 0.7480 -0.0001
v  3.8593 0.7480 3.8592
v  -0.0000 0.7480 5.4578
v  -3.8592 0.7480 3.8592
v  -5.4578 0.7480 -0.0001
v  -3.8592 0.7480 -3.8594
v  7.7873 0.1820 -0.0001
v  5.5065 0.1820 -5.5065
v  5.6469 1.0448 -5.6469
v  7.9858 1.0448 -0.0001
v  -0.0000 0.1820 -7.7873
v  -0.0000 1.0448 -7.9859
v  -5.5064 0.1820 -5.5065
v  -5.6469 1.0448 -5.6469
v  -7.7872 0.1820 -0.0001
v  -7.9858 1.0448 -0.0001
v  -5.5064 0.1820 5.5064
v  -5.6469 1.0448 5.6467
v  -0.0000 0.1820 7.7873
v  -0.0000 1.0448 7.9857
v  5.5065 0.1820 5.5064
v  5.6469 1.0448 5.6467
v  13.4379 4.8321 -0.0001
v  9.5020 4.8321 -9.5021
v  9.5020 9.4822 -9.5021
v  13.4379 9.4822 -0.0001
v  -0.0000 4.8321 -13.4378
v  -0.0000 9.4822 -13.4378
v  -9.5019 4.8321 -9.5021
v  -9.5019 9.4822 -9.5021
v  -13.4379 4.8321 -0.0001
v  -13.4379 9.4822 -0.0001
v  -9.5019 4.8321 9.5020
v  -9.5019 9.4822 9.5020
v  -0.0000 4.8321 13.4378
v  -0.0000 9.4822 13.4378
v  9.5020 4.8321 9.5020
v  9.5020 9.4822 9.5020
v  8.4106 14.1323 -8.4106
v  11.8943 14.1323 -0.0001
v  -0.0000 14.1323 -11.8944
v  -8.4105 14.1323 -8.4106
v  -11.8943 14.1323 -0.0001
v  -8.4105 14.1323 8.4105
v  -0.0000 14.1323 11.8942
v  8.4106 14.1323 8.4105
v  6.7898 18.7824 -6.7899
v  9.6022 18.7824 -0.0001
v  -0.0000 18.7824 -9.6023
v  -6.7898 18.7824 -6.7899
v  -9.6022 18.7824 -0.0001
v  -6.7898 18.7824 6.7897
v  -0.0000 18.7824 9.6021
v  6.7898 18.7824 6.7897
v  4.0499 22.2837 -4.0500
v  5.7274 22.2837 -0.0001
v  -0.0000 22.2837 -5.7275
v  -4.0499 22.2837 -4.0500
v  -5.7274 22.2837 -0.0001
v  -4.0499 22.2837 4.0498
v  -0.0000 22.2837 5.7273
v  4.0499 22.2837 4.0498
v  -5.5558 1.8394 -0.0001
v  -3.9286 1.8394 3.9285
v  -0.0000 1.8394 5.5559
v  -0.0000 1.8394 -5.5560
v  5.5559 1.8394 -0.0001
v  3.9286 1.8394 3.9285
v  3.9286 1.8394 -3.9287
v  -3.9286 1.8394 -3.9287
v  5.5371 23.4325 -0.0001
v  3.9154 23.4325 -3.9155
v  3.3523 23.7255 -3.3525
v  4.7410 23.7255 -0.0001
v  -0.0000 23.4325 -5.5373
v  -0.0000 23.7255 -4.7411
v  -3.9154 23.4325 -3.9155
v  -3.3523 23.7255 -3.3525
v  -5.5372 23.4325 -0.0001
v  -4.7410 23.7255 -0.0001
v  -3.9154 23.4325 3.9153
v  -3.3523 23.7255 3.3523
v  -0.0000 23.4325 5.5371
v  -0.0000 23.7255 4.7409
v  3.9154 23.4325 3.9153
v  3.3523 23.7255 3.3523
v  3.8681 23.4325 -0.0001
v  2.7352 23.4325 -2.7353
v  7.1593 14.2626 -7.1595
v  10.1250 14.2626 -0.0001
v  -0.0000 23.4325 -3.8682
v  -0.0000 14.2626 -10.1250
v  -2.7353 23.4325 -2.7353
v  -7.1593 14.2626 -7.1595
v  -3.8681 23.4325 -0.0001
v  -10.1249 14.2626 -0.0001
v  -2.7353 23.4325 2.7351
v  -7.1593 14.2626 7.1593
v  -0.0000 23.4325 3.8681
v  -0.0000 14.2626 10.1249
v  2.7352 23.4325 2.7351
v  7.1593 14.2626 7.1593
v  7.9956 9.4425 -7.9957
v  11.3074 9.4425 -0.0001
v  -0.0000 9.4425 -11.3076
v  -7.9956 9.4425 -7.9957
v  -11.3074 9.4425 -0.0001
v  -7.9956 9.4425 7.9955
v  -0.0000 9.4425 11.3074
v  7.9956 9.4425 7.9955
v  7.9956 4.8161 -7.9957
v  11.3074 4.8161 -0.0001
v  -0.0000 4.8161 -11.3076
v  -7.9956 4.8161 -7.9957
v  -11.3074 4.8161 -0.0001
v  -7.9956 4.8161 7.9955
v  -0.0000 4.8161 11.3074
v  7.9956 4.8161 7.9955
v  6.2868 0.1820 -0.0001
v  4.4454 0.1820 -4.4455
v  4.4454 0.1820 4.4454
v  -0.0000 0.1820 6.2867
v  -4.4454 0.1820 4.4454
v  -6.2868 0.1820 -0.0001
v  -4.4454 0.1820 -4.4455
v  -0.0000 0.1820 -6.2868
v  4.4757 22.9181 -4.4757
v  6.3296 22.9181 -0.0001
v  -0.0000 22.9181 -6.3296
v  -4.4756 22.9181 -4.4757
v  -6.3296 22.9181 -0.0001
v  -4.4756 22.9181 4.4756
v  -0.0000 22.9181 6.3294
v  4.4757 22.9181 4.4756
v  8.0354 2.5691 -8.0354
v  11.3638 2.5691 -0.0001
v  -0.0000 2.5691 -11.3639
v  -8.0354 2.5691 -8.0354
v  -11.3637 2.5691 -0.0001
v  -8.0354 2.5691 8.0353
v  -0.0000 2.5691 11.3637
v  8.0354 2.5691 8.0353
# 145 vertices

vn 0.0000 -0.9333 0.3592
vn -0.2540 -0.9333 0.2540
vn -0.3592 -0.9333 -0.0000
vn 0.3592 -0.9333 -0.0000
vn 0.0000 -0.9333 -0.3592
vn 0.2540 -0.9333 -0.2540
vn 0.2540 -0.9333 0.2540
vn 0.7011 -0.7131 -0.0000
vn 0.4958 -0.7131 -0.4958
vn 0.5098 -0.6929 -0.5098
vn 0.7210 -0.6929 -0.0000
vn 0.0000 -0.7131 -0.7011
vn 0.0000 -0.6929 -0.7210
vn -0.4958 -0.7131 -0.4958
vn -0.5098 -0.6929 -0.5098
vn -0.7011 -0.7131 -0.0000
vn -0.7210 -0.6929 -0.0000
vn -0.4958 -0.7131 0.4958
vn -0.5098 -0.6929 0.5098
vn 0.0000 -0.7131 0.7011
vn 0.0000 -0.6929 0.7210
vn 0.4958 -0.7131 0.4958
vn 0.5098 -0.6929 0.5098
vn 0.9420 -0.3357 -0.0000
vn 0.6661 -0.3357 -0.6661
vn 0.6987 0.1538 -0.6987
vn 0.9881 0.1538 -0.0000
vn 0.0000 -0.3356 -0.9420
vn 0.0000 0.1538 -0.9881
vn -0.6661 -0.3357 -0.6661
vn -0.6987 0.1538 -0.6987
vn -0.9420 -0.3357 -0.0000
vn -0.9881 0.1538 -0.0000
vn -0.6661 -0.3357 0.6661
vn -0.6987 0.1538 0.6987
vn 0.0000 -0.3357 0.9420
vn 0.0000 0.1538 0.9881
vn 0.6661 -0.3357 0.6661
vn 0.6987 0.1538 0.6987
vn 0.6559 0.3737 -0.6559
vn 0.9275 0.3737 -0.0000
vn 0.0000 0.3737 -0.9275
vn -0.6559 0.3737 -0.6559
vn -0.9275 0.3737 -0.0000
vn -0.6559 0.3737 0.6559
vn 0.0000 0.3737 0.9275
vn 0.6559 0.3737 0.6559
vn 0.5753 0.5815 -0.5753
vn 0.8135 0.5815 -0.0000
vn 0.0000 0.5815 -0.8135
vn -0.5753 0.5815 -0.5753
vn -0.8135 0.5815 -0.0000
vn -0.5753 0.5815 0.5753
vn 0.0000 0.5815 0.8135
vn 0.5753 0.5815 0.5753
vn 0.7063 0.0474 -0.7063
vn 0.9989 0.0474 -0.0000
vn 0.0000 0.0474 -0.9989
vn -0.7063 0.0474 -0.7063
vn -0.9989 0.0474 -0.0000
vn -0.7063 0.0474 0.7063
vn 0.0000 0.0474 0.9989
vn 0.7063 0.0474 0.7063
vn 0.2906 0.9569 -0.0000
vn 0.2055 0.9569 -0.2055
vn 0.0000 0.9569 -0.2906
vn 0.0000 0.9569 0.2906
vn -0.2906 0.9569 -0.0000
vn -0.2055 0.9569 -0.2055
vn -0.2055 0.9569 0.2055
vn 0.2055 0.9569 0.2055
vn 0.4693 0.8830 -0.0000
vn 0.3319 0.8830 -0.3319
vn 0.0683 0.9953 -0.0683
vn 0.0966 0.9953 -0.0000
vn 0.0000 0.8830 -0.4693
vn 0.0000 0.9953 -0.0966
vn -0.3319 0.8830 -0.3319
vn -0.0683 0.9953 -0.0683
vn -0.4693 0.8830 -0.0000
vn -0.0966 0.9953 -0.0000
vn -0.3319 0.8830 0.3319
vn -0.0683 0.9953 0.0683
vn 0.0000 0.8830 0.4693
vn 0.0000 0.9953 0.0966
vn 0.3319 0.8830 0.3319
vn 0.0683 0.9953 0.0683
vn -0.9175 0.3978 -0.0000
vn -0.6488 0.3978 0.6488
vn -0.6505 -0.3921 0.6505
vn -0.9199 -0.3921 -0.0000
vn 0.0000 0.3978 0.9175
vn 0.0000 -0.3921 0.9199
vn 0.6488 0.3978 0.6488
vn 0.6505 -0.3921 0.6505
vn 0.9175 0.3978 -0.0000
vn 0.9199 -0.3921 -0.0000
vn 0.6488 0.3978 -0.6488
vn 0.6505 -0.3921 -0.6505
vn 0.0000 0.3978 -0.9175
vn 0.0000 -0.3921 -0.9199
vn -0.6488 0.3978 -0.6488
vn -0.6505 -0.3921 -0.6505
vn -0.7023 -0.1167 0.7023
vn -0.9932 -0.1167 -0.0000
vn 0.0000 -0.1167 0.9932
vn 0.7023 -0.1167 0.7023
vn 0.9932 -0.1167 -0.0000
vn 0.7023 -0.1167 -0.7023
vn 0.0000 -0.1167 -0.9932
vn -0.7023 -0.1167 -0.7023
vn -0.6240 0.4703 0.6240
vn -0.8825 0.4703 -0.0000
vn 0.0000 0.4703 0.8825
vn 0.6240 0.4703 0.6240
vn 0.8825 0.4703 -0.0000
vn 0.6240 0.4703 -0.6240
vn 0.0000 0.4703 -0.8825
vn -0.6240 0.4703 -0.6240
vn -0.2252 -0.9743 -0.0000
vn -0.1592 -0.9743 0.1592
vn -0.1592 -0.9743 -0.1592
vn 0.0000 -0.9743 -0.2252
vn 0.1592 -0.9743 -0.1592
vn 0.2252 -0.9743 -0.0000
vn 0.1592 -0.9743 0.1592
vn 0.0000 -0.9743 0.2252
vn -0.2540 -0.9333 -0.2540
vn 0.7035 0.1004 -0.7035
vn 0.9950 0.1004 -0.0000
vn 0.0000 0.1004 -0.9950
vn -0.7035 0.1004 -0.7035
vn -0.9950 0.1004 -0.0000
vn -0.7035 0.1004 0.7035
vn 0.0000 0.1004 0.9950
vn 0.7035 0.1004 0.7035
vn 0.4363 -0.7869 -0.4363
vn 0.6171 -0.7869 -0.0000
vn 0.0000 -0.7869 -0.6171
vn -0.4363 -0.7869 -0.4363
vn -0.6171 -0.7869 -0.0000
vn -0.4363 -0.7869 0.4363
vn 0.0000 -0.7869 0.6171
vn 0.4363 -0.7869 0.4363
vn 0.0000 -1.0000 -0.0000
# 145 vertex normals

vt 0.6397 0.7329 0.0000
vt 0.7135 0.7709 0.0000
vt 0.7386 0.8501 0.0000
vt 0.6753 0.8448 0.0000
vt 0.7005 0.9239 0.0000
vt 0.6214 0.9491 0.0000
vt 0.5476 0.9110 0.0000
vt 0.5224 0.8319 0.0000
vt 0.5605 0.7581 0.0000
vt 0.0394 0.3734 0.0000
vt 0.0655 0.2626 0.0000
vt 0.0782 0.2607 0.0000
vt 0.0498 0.3729 0.0000
vt 0.0923 0.1632 0.0000
vt 0.1074 0.1581 0.0000
vt 0.0886 0.0737 0.0000
vt 0.1014 0.0658 0.0000
vt 0.0560 0.9132 0.0000
vt 0.0667 0.8242 0.0000
vt 0.0813 0.8305 0.0000
vt 0.0682 0.9220 0.0000
vt 0.0477 0.7230 0.0000
vt 0.0602 0.7259 0.0000
vt 0.0302 0.6105 0.0000
vt 0.0406 0.6118 0.0000
vt 0.0263 0.4917 0.0000
vt 0.0361 0.4920 0.0000
vt 0.1238 0.3741 0.0000
vt 0.1623 0.2565 0.0000
vt 0.2191 0.2661 0.0000
vt 0.1805 0.3808 0.0000
vt 0.2101 0.1376 0.0000
vt 0.2725 0.1494 0.0000
vt 0.2279 0.0023 0.0000
vt 0.3268 0.0233 0.0000
vt 0.1892 0.9951 0.0000
vt 0.1820 0.8589 0.0000
vt 0.2451 0.8520 0.0000
vt 0.2894 0.9819 0.0000
vt 0.1439 0.7365 0.0000
vt 0.2013 0.7314 0.0000
vt 0.1145 0.6164 0.0000
vt 0.1716 0.6141 0.0000
vt 0.1074 0.4948 0.0000
vt 0.1643 0.4970 0.0000
vt 0.2775 0.2865 0.0000
vt 0.2421 0.3923 0.0000
vt 0.3326 0.1823 0.0000
vt 0.4102 0.0861 0.0000
vt 0.3076 0.8239 0.0000
vt 0.3775 0.9258 0.0000
vt 0.2611 0.7157 0.0000
vt 0.2339 0.6074 0.0000
vt 0.2275 0.4995 0.0000
vt 0.3394 0.3190 0.0000
vt 0.3099 0.4096 0.0000
vt 0.3888 0.2344 0.0000
vt 0.4670 0.1718 0.0000
vt 0.3678 0.7763 0.0000
vt 0.4409 0.8448 0.0000
vt 0.3252 0.6881 0.0000
vt 0.3028 0.5954 0.0000
vt 0.2979 0.5022 0.0000
vt 0.4013 0.3600 0.0000
vt 0.3799 0.4309 0.0000
vt 0.4369 0.2976 0.0000
vt 0.4902 0.2601 0.0000
vt 0.4207 0.7169 0.0000
vt 0.4709 0.7585 0.0000
vt 0.3901 0.6520 0.0000
vt 0.3742 0.5796 0.0000
vt 0.3709 0.5050 0.0000
vt 0.4379 0.5171 0.0000
vt 0.4684 0.4437 0.0000
vt 0.5418 0.4132 0.0000
vt 0.5418 0.6210 0.0000
vt 0.6457 0.5171 0.0000
vt 0.6153 0.4437 0.0000
vt 0.6153 0.5905 0.0000
vt 0.4684 0.5905 0.0000
vt 0.4058 0.4430 0.0000
vt 0.4222 0.3825 0.0000
vt 0.4329 0.3914 0.0000
vt 0.4182 0.4475 0.0000
vt 0.4509 0.3284 0.0000
vt 0.4581 0.3420 0.0000
vt 0.5015 0.2965 0.0000
vt 0.5016 0.3128 0.0000
vt 0.4850 0.7231 0.0000
vt 0.4371 0.6873 0.0000
vt 0.4453 0.6744 0.0000
vt 0.4864 0.7068 0.0000
vt 0.4127 0.6311 0.0000
vt 0.4240 0.6231 0.0000
vt 0.4010 0.5696 0.0000
vt 0.4137 0.5660 0.0000
vt 0.3989 0.5061 0.0000
vt 0.4119 0.5066 0.0000
vt 0.6770 0.2564 0.0000
vt 0.6666 0.2039 0.0000
vt 0.7802 0.1399 0.0000
vt 0.8008 0.2225 0.0000
vt 0.6468 0.1686 0.0000
vt 0.7393 0.0622 0.0000
vt 0.6360 0.5939 0.0000
vt 0.6575 0.5597 0.0000
vt 0.7678 0.6294 0.0000
vt 0.7230 0.7049 0.0000
vt 0.6706 0.5078 0.0000
vt 0.7925 0.5479 0.0000
vt 0.6792 0.4470 0.0000
vt 0.8062 0.4665 0.0000
vt 0.6833 0.3823 0.0000
vt 0.8119 0.3856 0.0000
vt 0.6825 0.3176 0.0000
vt 0.8103 0.3045 0.0000
vt 0.8341 0.1223 0.0000
vt 0.8543 0.2129 0.0000
vt 0.8108 0.0272 0.0000
vt 0.8207 0.6497 0.0000
vt 0.7926 0.7435 0.0000
vt 0.8455 0.5602 0.0000
vt 0.8617 0.4733 0.0000
vt 0.8685 0.3870 0.0000
vt 0.8661 0.3005 0.0000
vt 0.8857 0.1186 0.0000
vt 0.9042 0.2087 0.0000
vt 0.8864 0.0223 0.0000
vt 0.8721 0.6560 0.0000
vt 0.8678 0.7522 0.0000
vt 0.8951 0.5669 0.0000
vt 0.9128 0.4783 0.0000
vt 0.9204 0.3884 0.0000
vt 0.9174 0.2982 0.0000
vt 0.9592 0.1234 0.0000
vt 0.9738 0.2032 0.0000
vt 0.9632 0.0630 0.0000
vt 0.9457 0.6549 0.0000
vt 0.9466 0.7155 0.0000
vt 0.9643 0.5761 0.0000
vt 0.9814 0.4856 0.0000
vt 0.9893 0.3901 0.0000
vt 0.9863 0.2943 0.0000
vt 0.7509 0.7394 0.0000
vt 0.7874 0.8542 0.0000
vt 0.7578 0.8517 0.0000
vt 0.7282 0.7586 0.0000
vt 0.7321 0.9613 0.0000
vt 0.7129 0.9386 0.0000
vt 0.6173 0.9978 0.0000
vt 0.6198 0.9682 0.0000
vt 0.5102 0.9426 0.0000
vt 0.5329 0.9234 0.0000
vt 0.4737 0.8277 0.0000
vt 0.5033 0.8302 0.0000
vt 0.5290 0.7207 0.0000
vt 0.5481 0.7434 0.0000
vt 0.6438 0.6842 0.0000
vt 0.6413 0.7138 0.0000
vt 0.4108 0.3716 0.0000
vt 0.3921 0.4371 0.0000
vt 0.4430 0.3130 0.0000
vt 0.4994 0.2768 0.0000
vt 0.4280 0.7021 0.0000
vt 0.4814 0.7425 0.0000
vt 0.4004 0.6411 0.0000
vt 0.3869 0.5743 0.0000
vt 0.3843 0.5055 0.0000
vt 0.4447 0.3978 0.0000
vt 0.4309 0.4507 0.0000
vt 0.4671 0.3528 0.0000
vt 0.5032 0.3270 0.0000
vt 0.4551 0.6643 0.0000
vt 0.4891 0.6927 0.0000
vt 0.4362 0.6177 0.0000
vt 0.4267 0.5638 0.0000
vt 0.4251 0.5071 0.0000
vt 0.1257 0.2592 0.0000
vt 0.0914 0.3743 0.0000
vt 0.1645 0.1453 0.0000
vt 0.1580 0.0254 0.0000
vt 0.1372 0.8476 0.0000
vt 0.1214 0.9667 0.0000
vt 0.1075 0.7310 0.0000
vt 0.0822 0.6137 0.0000
vt 0.0761 0.4936 0.0000
# 186 texture coords

o vase
g vase
usemtl Vase1__1__wire_229166215
s off
f 1/1/1 2/2/2 3/3/3 4/4/4 
f 4/4/5 3/3/4 5/5/3 
f 6/6/5 7/7/6 8/8/4 
f 1/1/1 8/8/4 9/9/7 
f 10/10/8 11/11/9 12/12/10 13/13/11 
f 11/11/9 14/14/12 15/15/13 12/12/10 
f 14/14/12 16/16/14 17/17/15 15/15/13 
f 16/18/14 18/19/16 19/20/17 17/21/15 
f 18/19/16 20/22/18 21/23/19 19/20/17 
f 20/22/18 22/24/20 23/25/21 21/23/19 
f 22/24/20 24/26/22 25/27/23 23/25/21 
f 24/26/22 10/10/8 13/13/11 25/27/23 
f 26/28/24 27/29/25 28/30/26 29/31/27 
f 27/29/25 30/32/28 31/33/29 28/30/26 
f 30/32/28 32/34/30 33/35/31 31/33/29 
f 32/36/30 34/37/32 35/38/33 33/39/31 
f 34/37/32 36/40/34 37/41/35 35/38/33 
f 36/40/34 38/42/36 39/43/37 37/41/35 
f 38/42/36 40/44/38 41/45/39 39/43/37 
f 40/44/38 26/28/24 29/31/27 41/45/39 
f 29/31/27 28/30/26 42/46/40 43/47/41 
f 28/30/26 31/33/29 44/48/42 42/46/40 
f 31/33/29 33/35/31 45/49/43 44/48/42 
f 33/39/31 35/38/33 46/50/44 45/51/43 
f 35/38/33 37/41/35 47/52/45 46/50/44 
f 37/41/35 39/43/37 48/53/46 47/52/45 
f 39/43/37 41/45/39 49/54/47 48/53/46 
f 41/45/39 29/31/27 43/47/41 49/54/47 
f 43/47/41 42/46/40 50/55/48 51/56/49 
f 42/46/40 44/48/42 52/57/50 50/55/48 
f 44/48/42 45/49/43 53/58/51 52/57/50 
f 45/51/43 46/50/44 54/59/52 53/60/51 
f 46/50/44 47/52/45 55/61/53 54/59/52 
f 47/52/45 48/53/46 56/62/54 55/61/53 
f 48/53/46 49/54/47 57/63/55 56/62/54 
f 49/54/47 43/47/41 51/56/49 57/63/55 
f 51/56/49 50/55/48 58/64/56 59/65/57 
f 50/55/48 52/57/50 60/66/58 58/64/56 
f 52/57/50 53/58/51 61/67/59 60/66/58 
f 53/60/51 54/59/52 62/68/60 61/69/59 
f 54/59/52 55/61/53 63/70/61 62/68/60 
f 55/61/53 56/62/54 64/71/62 63/70/61 
f 56/62/54 57/63/55 65/72/63 64/71/62 
f 57/63/55 51/56/49 59/65/57 65/72/63 
f 66/73/64 67/74/65 68/75/66 69/76/67 
f 70/77/68 69/76/67 68/75/66 71/78/69 
f 70/77/68 72/79/70 69/76/67 
f 66/73/64 69/76/67 73/80/71 
f 74/81/72 75/82/73 76/83/74 77/84/75 
f 75/82/73 78/85/76 79/86/77 76/83/74 
f 78/85/76 80/87/78 81/88/79 79/86/77 
f 80/89/78 82/90/80 83/91/81 81/92/79 
f 82/90/80 84/93/82 85/94/83 83/91/81 
f 84/93/82 86/95/84 87/96/85 85/94/83 
f 86/95/84 88/97/86 89/98/87 87/96/85 
f 88/97/86 74/81/72 77/84/75 89/98/87 
f 90/99/88 91/100/89 92/101/90 93/102/91 
f 91/100/89 94/103/92 95/104/93 92/101/90 
f 94/105/92 96/106/94 97/107/95 95/108/93 
f 96/106/94 98/109/96 99/110/97 97/107/95 
f 98/109/96 100/111/98 101/112/99 99/110/97 
f 100/111/98 102/113/100 103/114/101 101/112/99 
f 102/113/100 104/115/102 105/116/103 103/114/101 
f 104/115/102 90/99/88 93/102/91 105/116/103 
f 93/102/91 92/101/90 106/117/104 107/118/105 
f 92/101/90 95/104/93 108/119/106 106/117/104 
f 95/108/93 97/107/95 109/120/107 108/121/106 
f 97/107/95 99/110/97 110/122/108 109/120/107 
f 99/110/97 101/112/99 111/123/109 110/122/108 
f 101/112/99 103/114/101 112/124/110 111/123/109 
f 103/114/101 105/116/103 113/125/111 112/124/110 
f 105/116/103 93/102/91 107/118/105 113/125/111 
f 107/118/105 106/117/104 114/126/112 115/127/113 
f 106/117/104 108/119/106 116/128/114 114/126/112 
f 108/121/106 109/120/107 117/129/115 116/130/114 
f 109/120/107 110/122/108 118/131/116 117/129/115 
f 110/122/108 111/123/109 119/132/117 118/131/116 
f 111/123/109 112/124/110 120/133/118 119/132/117 
f 112/124/110 113/125/111 121/134/119 120/133/118 
f 113/125/111 107/118/105 115/127/113 121/134/119 
f 115/127/113 114/126/112 72/135/70 70/136/68 
f 114/126/112 116/128/114 69/137/67 72/135/70 
f 116/130/114 117/129/115 73/138/71 69/139/67 
f 117/129/115 118/131/116 66/140/64 73/138/71 
f 118/131/116 119/132/117 67/141/65 66/140/64 
f 119/132/117 120/133/118 68/142/66 67/141/65 
f 120/133/118 121/134/119 71/143/69 68/142/66 
f 121/134/119 115/127/113 70/136/68 71/143/69 
f 11/144/9 10/145/8 122/146/120 123/147/121 
f 10/145/8 24/148/22 124/149/122 122/146/120 
f 24/148/22 22/150/20 125/151/123 124/149/122 
f 22/150/20 20/152/18 126/153/124 125/151/123 
f 20/152/18 18/154/16 127/155/125 126/153/124 
f 18/154/16 16/156/14 128/157/126 127/155/125 
f 16/156/14 14/158/12 129/159/127 128/157/126 
f 14/158/12 11/144/9 123/147/121 129/159/127 
f 123/147/121 122/146/120 3/3/3 2/2/2 
f 122/146/120 124/149/122 5/5/128 3/3/3 
f 124/149/122 125/151/123 6/6/5 5/5/128 
f 125/151/123 126/153/124 7/7/6 6/6/5 
f 126/153/124 127/155/125 8/8/4 7/7/6 
f 127/155/125 128/157/126 9/9/7 8/8/4 
f 128/157/126 129/159/127 1/1/1 9/9/7 
f 129/159/127 123/147/121 2/2/2 1/1/1 
f 58/64/56 130/160/129 131/161/130 59/65/57 
f 60/66/58 132/162/131 130/160/129 58/64/56 
f 61/67/59 133/163/132 132/162/131 60/66/58 
f 62/68/60 134/164/133 133/165/132 61/69/59 
f 63/70/61 135/166/134 134/164/133 62/68/60 
f 64/71/62 136/167/135 135/166/134 63/70/61 
f 65/72/63 137/168/136 136/167/135 64/71/62 
f 59/65/57 131/161/130 137/168/136 65/72/63 
f 130/160/129 75/82/73 74/81/72 131/161/130 
f 132/162/131 78/85/76 75/82/73 130/160/129 
f 133/163/132 80/87/78 78/85/76 132/162/131 
f 134/164/133 82/90/80 80/89/78 133/165/132 
f 135/166/134 84/93/82 82/90/80 134/164/133 
f 136/167/135 86/95/84 84/93/82 135/166/134 
f 137/168/136 88/97/86 86/95/84 136/167/135 
f 131/161/130 74/81/72 88/97/86 137/168/136 
f 76/83/74 91/169/89 90/170/88 77/84/75 
f 79/86/77 94/171/92 91/169/89 76/83/74 
f 81/88/79 96/172/94 94/171/92 79/86/77 
f 83/91/81 98/173/96 96/174/94 81/92/79 
f 85/94/83 100/175/98 98/173/96 83/91/81 
f 87/96/85 102/176/100 100/175/98 85/94/83 
f 89/98/87 104/177/102 102/176/100 87/96/85 
f 77/84/75 90/170/88 104/177/102 89/98/87 
f 12/12/10 138/178/137 139/179/138 13/13/11 
f 15/15/13 140/180/139 138/178/137 12/12/10 
f 17/17/15 141/181/140 140/180/139 15/15/13 
f 19/20/17 142/182/141 141/183/140 17/21/15 
f 21/23/19 143/184/142 142/182/141 19/20/17 
f 23/25/21 144/185/143 143/184/142 21/23/19 
f 25/27/23 145/186/144 144/185/143 23/25/21 
f 13/13/11 139/179/138 145/186/144 25/27/23 
f 138/178/137 27/29/25 26/28/24 139/179/138 
f 140/180/139 30/32/28 27/29/25 138/178/137 
f 141/181/140 32/34/30 30/32/28 140/180/139 
f 142/182/141 34/37/32 32/36/30 141/183/140 
f 143/184/142 36/40/34 34/37/32 142/182/141 
f 144/185/143 38/42/36 36/40/34 143/184/142 
f 145/186/144 40/44/38 38/42/36 144/185/143 
f 139/179/138 26/28/24 40/44/38 145/186/144 
f 5/5/145 6/6/145 8/8/145 4/4/145 
f 4/4/145 8/8/145 1/1/145 
# 140 polygons - 6 triangles

