# 3ds Max Wavefront OBJ Exporter v0.97b - (c)2007 guruware
# File Created: 17.04.2019 18:34:55

mtllib Burial box latest.mtl

#
# object Box001
#

v  -21.8747 0.0000 8.1935
v  -21.8747 0.0000 -5.7958
v  -6.3152 0.0000 -12.7217
v  -6.3152 0.0000 15.1194
v  -24.9318 20.6789 8.8909
v  -7.7759 20.6789 16.5274
v  -7.7759 20.6789 -14.1297
v  -24.9318 20.6789 -6.4932
v  -22.8403 0.0483 8.4673
v  -6.6730 0.0484 15.6637
v  -6.7697 1.3267 15.7522
v  -23.0370 1.3267 8.5111
v  38.2586 0.0485 12.3291
v  38.2586 0.0485 -9.9314
v  38.4577 1.3266 -10.0032
v  38.4577 1.3266 12.4009
v  -6.6730 0.0484 -13.2660
v  -6.7697 1.3267 -13.3545
v  -22.8403 0.0483 -6.0696
v  -23.0370 1.3267 -6.1134
v  36.9357 0.0000 -9.5144
v  36.9357 0.0000 11.9121
v  39.9928 20.6789 12.9850
v  39.9928 20.6789 -10.5873
v  -8.4598 18.0471 17.7307
v  -8.6933 21.2915 17.9564
v  -27.4243 21.2916 9.6186
v  -26.9375 18.0471 9.5059
v  41.9688 18.0473 -11.5221
v  42.4582 21.2914 -11.6996
v  42.4582 21.2914 14.0973
v  41.9688 18.0473 13.9198
v  -8.4598 18.0471 -15.3330
v  -8.6933 21.2915 -15.5587
v  -27.4243 21.2916 -7.2209
v  -26.9375 18.0471 -7.1082
v  -7.7887 21.2320 16.6009
v  -25.0041 21.2320 8.9379
v  -25.0041 21.2320 -6.5402
v  -7.7887 21.2320 -14.2032
v  40.0651 21.2320 -10.6545
v  40.0651 21.2320 13.0522
v  -24.5435 18.1067 8.8283
v  -7.5718 18.1067 16.3828
v  39.6045 18.1067 12.8844
v  39.6045 18.1067 -10.4867
v  -7.5718 18.1067 -13.9851
v  -24.5435 18.1067 -6.4306
v  -6.4106 1.3751 15.2154
v  -22.0774 1.3751 8.2417
v  37.1383 1.3751 -9.5882
v  37.1383 1.3751 11.9859
v  -6.4106 1.3751 -12.8177
v  -22.0774 1.3751 -5.8440
v  -7.7759 21.2320 16.5274
v  -24.9318 21.2320 8.8909
v  39.9928 21.2320 12.9850
v  39.9928 21.2320 -10.5873
v  -7.7759 21.2320 -14.1297
v  -24.9318 21.2320 -6.4932
# 60 vertices

vn 0.0000 -1.0000 -0.0000
vn 0.0000 1.0000 -0.0000
vn -0.4049 -0.0934 0.9096
vn -0.1613 -0.0803 0.9836
vn -0.1803 -0.0816 0.9802
vn 0.9881 -0.1540 0.0000
vn 0.9881 -0.1540 -0.0000
vn 0.0738 -0.0674 -0.9950
vn -0.1613 -0.0804 -0.9836
vn -0.1803 -0.0815 -0.9802
vn -0.9884 -0.1521 0.0000
vn -0.9884 -0.1521 -0.0000
vn 0.0737 -0.0674 0.9950
vn -0.4049 -0.0934 -0.9096
vn -0.1612 -0.0801 0.9837
vn -0.1792 -0.0811 0.9805
vn -0.4049 -0.0923 0.9097
vn -0.4049 -0.0924 0.9097
vn 0.9888 -0.1492 -0.0000
vn -0.1611 -0.0800 -0.9837
vn -0.1791 -0.0811 -0.9805
vn 0.0751 -0.0658 -0.9950
vn 0.0751 -0.0657 -0.9950
vn -0.9889 -0.1484 -0.0000
vn 0.0752 -0.0658 0.9950
vn 0.0752 -0.0657 0.9950
vn -0.4049 -0.0924 -0.9097
vn -0.4049 -0.0923 -0.9097
vn 0.0151 0.9993 -0.0339
vn 0.0246 0.9997 -0.0000
vn 0.0151 0.9993 0.0339
vn -0.0035 0.9989 0.0473
vn -0.0248 0.9997 -0.0000
vn -0.0035 0.9989 -0.0473
vn 0.0152 -0.9993 -0.0341
vn -0.0036 -0.9989 -0.0476
vn -0.0251 -0.9997 -0.0000
vn -0.0036 -0.9989 0.0476
vn 0.0152 -0.9993 0.0341
vn 0.0249 -0.9997 -0.0000
vn -0.1623 -0.0799 0.9835
vn -0.1794 -0.0809 0.9805
vn -0.4050 -0.0916 0.9097
vn 0.9893 -0.1458 -0.0000
vn -0.1623 -0.0799 -0.9835
vn -0.1794 -0.0809 -0.9805
vn 0.0738 -0.0643 -0.9952
vn -0.9893 -0.1458 -0.0000
vn 0.0738 -0.0643 0.9952
vn -0.4050 -0.0916 -0.9097
vn -0.0500 -0.9987 0.0000
vn -0.0305 -0.9972 0.0685
vn 0.0069 -0.9956 0.0934
vn 0.0367 -0.9993 0.0000
vn 0.0069 -0.9956 -0.0934
vn -0.0305 -0.9972 -0.0685
vn -0.0308 0.9971 0.0692
vn -0.0503 0.9987 0.0000
vn -0.0308 0.9971 -0.0692
vn 0.0070 0.9955 -0.0943
vn 0.0368 0.9993 -0.0000
vn 0.0070 0.9955 0.0943
vn 0.4067 0.0000 -0.9136
vn -0.0740 0.0000 -0.9973
vn -1.0000 0.0000 -0.0000
vn -0.0740 0.0000 0.9973
vn 0.4067 0.0000 0.9136
vn 1.0000 0.0000 -0.0000
# 68 vertex normals

vt 0.9230 0.4485 0.0000
vt 0.7901 0.4485 0.0000
vt 0.7242 0.3326 0.0000
vt 0.9888 0.3325 0.0000
vt 0.1159 0.7077 0.0000
vt 0.0222 0.4841 0.0000
vt 0.3829 0.4834 0.0000
vt 0.2862 0.7079 0.0000
vt 0.3944 0.1861 0.0000
vt 0.4872 0.1922 0.0000
vt 0.4868 0.2191 0.0000
vt 0.3934 0.2183 0.0000
vt 0.4516 0.2826 0.0000
vt 0.6281 0.2826 0.0000
vt 0.6287 0.2985 0.0000
vt 0.4511 0.2985 0.0000
vt 0.6994 0.1220 0.0000
vt 0.4874 0.1205 0.0000
vt 0.4870 0.0897 0.0000
vt 0.7004 0.0898 0.0000
vt 0.5926 0.3667 0.0000
vt 0.4773 0.3667 0.0000
vt 0.4770 0.3507 0.0000
vt 0.5929 0.3507 0.0000
vt 0.7545 0.0103 0.0000
vt 0.9581 0.0103 0.0000
vt 0.0918 0.0171 0.0000
vt 0.3019 0.0190 0.0000
vt 0.6965 0.1893 0.0000
vt 0.6975 0.2175 0.0000
vt 0.3935 0.1282 0.0000
vt 0.3925 0.0915 0.0000
vt 0.4998 0.5798 0.0000
vt 0.4991 0.6096 0.0000
vt 0.4161 0.6110 0.0000
vt 0.4178 0.5782 0.0000
vt 0.6826 0.6594 0.0000
vt 0.6834 0.6919 0.0000
vt 0.5675 0.6919 0.0000
vt 0.5683 0.6594 0.0000
vt 0.4999 0.5303 0.0000
vt 0.4991 0.5005 0.0000
vt 0.7336 0.4962 0.0000
vt 0.7312 0.5325 0.0000
vt 0.4543 0.6929 0.0000
vt 0.4536 0.6589 0.0000
vt 0.5576 0.6589 0.0000
vt 0.5569 0.6929 0.0000
vt 0.7312 0.5754 0.0000
vt 0.7336 0.6116 0.0000
vt 0.4179 0.5327 0.0000
vt 0.4161 0.5000 0.0000
vt 0.5022 0.6230 0.0000
vt 0.4248 0.6266 0.0000
vt 0.4578 0.6338 0.0000
vt 0.5534 0.6338 0.0000
vt 0.4248 0.4842 0.0000
vt 0.5021 0.4871 0.0000
vt 0.7220 0.4830 0.0000
vt 0.6787 0.7156 0.0000
vt 0.5722 0.7156 0.0000
vt 0.7221 0.6250 0.0000
vt 0.4264 0.5629 0.0000
vt 0.5028 0.5665 0.0000
vt 0.7199 0.5624 0.0000
vt 0.5729 0.6359 0.0000
vt 0.6780 0.6359 0.0000
vt 0.7200 0.5456 0.0000
vt 0.5029 0.5436 0.0000
vt 0.4265 0.5480 0.0000
vt 0.5527 0.7178 0.0000
vt 0.4585 0.7178 0.0000
vt 0.4132 0.9881 0.0000
vt 0.4195 0.7407 0.0000
vt 0.5239 0.7396 0.0000
vt 0.5239 0.9842 0.0000
vt 0.1518 0.7387 0.0000
vt 0.1668 0.9925 0.0000
vt 0.0297 0.9930 0.0000
vt 0.0253 0.7484 0.0000
vt 0.7212 0.9837 0.0000
vt 0.7212 0.7389 0.0000
vt 0.9668 0.7432 0.0000
vt 0.9661 0.9829 0.0000
vt 0.6149 0.7445 0.0000
vt 0.6234 0.9849 0.0000
vt 0.5255 0.9831 0.0000
vt 0.5255 0.7423 0.0000
vt 0.1676 0.9928 0.0000
vt 0.1535 0.7386 0.0000
vt 0.6248 0.9818 0.0000
vt 0.6168 0.7413 0.0000
vt 0.5904 0.3786 0.0000
vt 0.4795 0.3786 0.0000
vt 0.3988 0.1706 0.0000
vt 0.4888 0.1774 0.0000
vt 0.6871 0.1730 0.0000
vt 0.4549 0.2662 0.0000
vt 0.6248 0.2662 0.0000
vt 0.6899 0.1406 0.0000
vt 0.4891 0.1373 0.0000
vt 0.3980 0.1458 0.0000
vt 0.4884 0.2339 0.0000
vt 0.3978 0.2342 0.0000
vt 0.4791 0.3388 0.0000
vt 0.5908 0.3388 0.0000
vt 0.3969 0.0733 0.0000
vt 0.4887 0.0729 0.0000
vt 0.6906 0.0707 0.0000
vt 0.6254 0.3149 0.0000
vt 0.4543 0.3149 0.0000
vt 0.6879 0.2343 0.0000
vt 0.7675 0.5707 0.0000
vt 0.8562 0.5155 0.0000
vt 0.8565 0.5179 0.0000
vt 0.7691 0.5712 0.0000
vt 0.9713 0.5539 0.0000
vt 0.9702 0.5561 0.0000
vt 0.9739 0.6718 0.0000
vt 0.9722 0.6711 0.0000
vt 0.8927 0.7106 0.0000
vt 0.8925 0.7085 0.0000
vt 0.7922 0.6821 0.0000
vt 0.7931 0.6801 0.0000
vt 0.1123 0.7164 0.0000
vt 0.0145 0.4858 0.0000
vt 0.0858 0.0111 0.0000
vt 0.3074 0.0105 0.0000
vt 0.3913 0.4838 0.0000
vt 0.2907 0.7148 0.0000
# 130 texture coords

g Box001
usemtl 01___Default
s 2
f 1/1/1 2/2/1 3/3/1 4/4/1 
s 4
f 5/5/2 6/6/2 7/7/2 8/8/2 
s 8
f 9/9/3 10/10/4 11/11/5 12/12/3 
s 16
f 13/13/6 14/14/6 15/15/7 16/16/6 
s 32
f 14/17/8 17/18/9 18/19/10 15/20/8 
s 64
f 19/21/11 9/22/12 12/23/12 20/24/11 
s 2
f 3/3/1 21/25/1 22/26/1 4/4/1 
s 4
f 6/6/2 23/27/2 24/28/2 7/7/2 
s 8
f 10/10/4 13/29/13 16/30/13 11/11/5 
s 32
f 17/18/9 19/31/14 20/32/14 18/19/10 
s 8
f 25/33/15 26/34/16 27/35/17 28/36/18 
s 16
f 29/37/19 30/38/19 31/39/19 32/40/19 
s 32
f 33/41/20 34/42/21 30/43/22 29/44/23 
s 64
f 28/45/24 27/46/24 35/47/24 36/48/24 
s 8
f 32/49/25 31/50/26 26/34/16 25/33/15 
s 32
f 36/51/27 35/52/28 34/42/21 33/41/20 
s off
f 37/53/29 38/54/29 27/35/29 26/34/29 
f 38/55/30 39/56/30 35/47/30 27/46/30 
f 39/57/31 40/58/31 34/42/31 35/52/31 
f 40/58/32 41/59/32 30/43/32 34/42/32 
f 41/60/33 42/61/33 31/39/33 30/38/33 
f 42/62/34 37/53/34 26/34/34 31/50/34 
f 43/63/35 44/64/35 25/33/35 28/36/35 
f 44/64/36 45/65/36 32/49/36 25/33/36 
f 45/66/37 46/67/37 29/37/37 32/40/37 
f 46/68/38 47/69/38 33/41/38 29/44/38 
f 47/69/39 48/70/39 36/51/39 33/41/39 
f 48/71/40 43/72/40 28/45/40 36/48/40 
s 8
f 49/73/41 44/74/42 43/75/43 50/76/43 
s 16
f 51/77/44 46/78/44 45/79/44 52/80/44 
s 32
f 53/81/45 47/82/46 46/83/47 51/84/47 
s 64
f 50/85/48 43/86/48 48/87/48 54/88/48 
s 8
f 52/89/49 45/90/49 44/74/42 49/73/41 
s 32
f 54/91/50 48/92/50 47/82/46 53/81/45 
s off
f 2/93/51 1/94/51 9/22/51 19/21/51 
f 1/95/52 4/96/52 10/10/52 9/9/52 
f 4/96/53 22/97/53 13/29/53 10/10/53 
f 22/98/54 21/99/54 14/14/54 13/13/54 
f 21/100/55 3/101/55 17/18/55 14/17/55 
f 3/101/56 2/102/56 19/31/56 17/18/56 
f 49/103/57 50/104/57 12/12/57 11/11/57 
f 50/105/58 54/106/58 20/24/58 12/23/58 
f 54/107/59 53/108/59 18/19/59 20/32/59 
f 53/108/60 51/109/60 15/20/60 18/19/60 
f 51/110/61 52/111/61 16/16/61 15/15/61 
f 52/112/62 49/103/62 11/11/62 16/30/62 
f 38/113/2 37/114/2 55/115/2 56/116/2 
f 37/114/2 42/117/2 57/118/2 55/115/2 
f 42/117/2 41/119/2 58/120/2 57/118/2 
f 41/119/2 40/121/2 59/122/2 58/120/2 
f 40/121/2 39/123/2 60/124/2 59/122/2 
f 39/123/2 38/113/2 56/116/2 60/124/2 
f 56/125/63 55/126/63 6/6/63 5/5/63 
f 55/126/64 57/127/64 23/27/64 6/6/64 
f 57/127/65 58/128/65 24/28/65 23/27/65 
f 58/128/66 59/129/66 7/7/66 24/28/66 
f 59/129/67 60/130/67 8/8/67 7/7/67 
f 60/130/68 56/125/68 5/5/68 8/8/68 
# 58 polygons

