# 3ds Max Wavefront OBJ Exporter v0.97b - (c)2007 guruware
# File Created: 01.05.2019 18:18:12

mtllib lever1.mtl

#
# object Box002
#

v  85.5418 22.9063 0.0000
v  86.8850 22.9092 -0.0000
v  86.8851 22.9604 1.1883
v  85.5418 22.9604 1.1883
v  82.8555 69.7556 4.1389
v  86.9048 69.9559 5.4333
v  86.8993 72.1652 -0.0000
v  81.4571 69.8746 -0.0000
v  86.8855 44.9674 1.5382
v  85.1467 44.9674 1.5382
v  88.2035 22.9604 1.1883
v  88.2035 22.9063 0.0000
v  89.1930 43.7966 0.0129
v  88.5922 44.9674 1.5382
v  86.8851 22.9604 -1.1883
v  86.8852 42.6257 -1.5125
v  88.5635 42.6257 -1.5125
v  88.2035 22.9604 -1.1883
v  84.5459 43.7966 0.0129
v  85.1755 42.6257 -1.5125
v  85.5418 22.9604 -1.1883
v  89.6242 64.7564 2.8441
v  86.9022 65.8384 2.8441
v  86.8939 62.5316 2.4924
v  89.5651 61.5719 2.4924
v  89.5651 61.5719 -2.4923
v  89.6242 64.7564 -2.8441
v  90.6189 64.7056 0.0000
v  90.4077 61.2692 0.0000
v  84.1725 63.5094 -2.4923
v  83.9404 64.5799 -2.8441
v  86.9022 65.8384 -2.8441
v  86.8939 62.5316 -2.4923
v  84.1725 63.5094 2.4924
v  83.9404 64.5799 2.8441
v  82.9457 64.6306 -0.0000
v  83.3299 63.8122 0.0000
v  89.1492 49.6995 1.9520
v  86.8831 50.1298 2.0115
v  86.8855 45.7488 1.9381
v  88.8368 45.7354 1.8538
v  89.1157 48.8231 -1.9578
v  89.8955 49.1331 -0.0104
v  89.5908 44.5719 -0.0265
v  88.7473 43.3989 -1.8672
v  84.9918 43.4019 -1.8675
v  84.8571 49.6714 -1.9372
v  86.8833 49.2517 -2.0027
v  86.8852 43.4095 -1.9125
v  84.9011 45.7393 1.8533
v  84.8228 50.5485 1.9308
v  84.1056 50.2471 -0.0110
v  84.1481 44.5759 -0.0281
v  90.3108 65.1672 3.2539
v  90.8847 69.7669 4.1370
v  86.9163 66.3175 3.8261
v  90.3108 65.1672 -3.1184
v  90.8847 69.7669 -3.9245
v  92.2814 69.9454 -0.0000
v  91.5339 65.0938 0.0000
v  83.2850 64.9639 -3.1311
v  82.8555 69.7556 -3.9265
v  86.9048 69.9559 -5.2208
v  86.9163 66.3175 -3.6906
v  83.2850 64.9639 3.2666
v  82.0559 64.9855 -0.0000
v  86.8908 61.7668 3.0661
v  83.7506 62.7756 2.9497
v  89.9234 60.7551 -2.9996
v  86.8913 61.7696 -3.0662
v  89.6571 65.3567 2.8651
v  86.9192 66.4367 2.8871
v  90.6592 65.3064 0.0000
v  86.9192 66.4367 -2.8871
v  89.6571 65.3567 -2.8651
v  83.9219 65.1827 -2.8663
v  82.9195 65.2348 -0.0000
v  83.9219 65.1827 2.8663
v  91.2384 60.4425 -0.0001
v  89.9229 60.7509 2.9996
v  83.7509 62.7791 -2.9501
v  82.7132 63.1003 -0.0000
# 82 vertices

vn 0.0008 -1.0000 0.0000
vn -0.0000 -1.0000 0.0000
vn -0.0000 -0.9995 0.0331
vn 0.0008 -0.9995 0.0331
vn -0.2148 0.9550 0.2047
vn -0.0017 0.9774 0.2115
vn -0.0015 1.0000 -0.0046
vn -0.2201 0.9755 -0.0034
vn 0.0000 -0.0213 0.9998
vn 0.9721 -0.0445 0.2302
vn 0.9989 -0.0463 0.0090
vn 0.9957 -0.0459 0.0805
vn 0.0000 -0.0221 -0.9998
vn -0.9989 -0.0467 0.0091
vn -0.9957 -0.0463 0.0806
vn -0.9761 -0.0462 -0.2123
vn -0.0404 -0.1431 0.9889
vn -0.0166 -0.1764 0.9842
vn -0.0203 -0.1713 0.9850
vn 0.9417 -0.0749 -0.3279
vn 0.9969 -0.0793 -0.0000
vn 0.9969 -0.0793 0.0000
vn 0.0077 -0.2101 -0.9776
vn -0.0166 -0.1765 -0.9842
vn -0.0203 -0.1713 -0.9850
vn -0.8547 -0.4419 0.2724
vn -0.8883 -0.4593 -0.0000
vn -0.8883 -0.4593 0.0000
vn 0.0156 -0.0750 0.9971
vn -0.0189 -0.0735 0.9971
vn -0.0054 -0.0258 0.9997
vn 0.0318 -0.0291 0.9991
vn 0.9191 -0.1106 -0.3783
vn 0.9922 -0.1247 0.0076
vn 0.9908 -0.0973 -0.0943
vn 0.9246 -0.0873 -0.3707
vn -0.0296 -0.0181 -0.9994
vn -0.0457 -0.0711 -0.9964
vn -0.0173 -0.0665 -0.9976
vn -0.0047 -0.0203 -0.9998
vn -0.9314 -0.0188 0.3635
vn -0.9336 -0.0857 0.3480
vn -0.9961 -0.0880 0.0002
vn -0.9931 -0.0214 -0.1152
vn 0.1777 -0.3836 0.9063
vn 0.0062 -0.3833 0.9236
vn 0.0065 -0.3834 0.9236
vn 0.9170 -0.2107 -0.3388
vn 0.9744 -0.2247 -0.0071
vn 0.9744 -0.2247 -0.0078
vn -0.1690 -0.3524 -0.9205
vn 0.0061 -0.3638 -0.9314
vn 0.0064 -0.3638 -0.9314
vn -0.9292 -0.1719 0.3272
vn -0.9835 -0.1810 -0.0072
vn -0.9834 -0.1810 -0.0079
vn -0.0008 -0.9995 -0.0331
vn -0.0008 -1.0000 -0.0000
vn -0.0000 -0.9995 -0.0331
vn 0.2121 0.9548 0.2085
vn 0.2175 0.9761 -0.0035
vn 0.0077 -0.2101 0.9776
vn -0.0404 -0.1431 -0.9889
vn -0.0363 -0.1209 0.9920
vn -0.0619 -0.1192 0.9909
vn -0.0536 -0.0774 0.9956
vn -0.0024 -0.1146 -0.9934
vn 0.0093 -0.0670 -0.9977
vn -0.0343 -0.1126 -0.9930
vn -0.1644 -0.3718 0.9136
vn 0.1821 -0.3640 -0.9134
vn -0.0168 -0.0705 0.9974
vn 0.9402 -0.0845 0.3299
vn -0.0168 -0.0705 -0.9974
vn 0.0194 -0.0726 -0.9972
vn -0.9427 -0.0549 -0.3290
vn 0.0194 -0.0726 0.9972
vn -0.2650 -0.9635 -0.0372
vn -0.1798 -0.9824 -0.0506
vn -0.2657 -0.9630 0.0462
vn 0.2855 -0.9568 0.0548
vn 0.2111 -0.9735 0.0875
vn 0.2848 -0.9576 -0.0442
vn 0.0008 -0.9995 -0.0331
vn -0.0017 0.9753 -0.2210
vn -0.2156 0.9527 -0.2140
vn 0.9761 -0.0457 -0.2124
vn -0.9721 -0.0449 0.2303
vn 0.9417 -0.0749 0.3279
vn -0.8547 -0.4419 -0.2724
vn 0.9886 -0.1502 0.0052
vn 0.9076 -0.1403 0.3956
vn 0.9114 -0.1214 0.3932
vn -0.9358 -0.1376 -0.3245
vn -0.9308 -0.0729 -0.3582
vn -0.9890 -0.1476 0.0051
vn 0.9215 -0.2134 0.3244
vn -0.9245 -0.1693 -0.3416
vn -0.0008 -0.9995 0.0331
vn 0.2129 0.9525 -0.2179
vn 0.9402 -0.0845 -0.3299
vn -0.9427 -0.0549 0.3290
vn -0.1837 -0.9815 0.0532
vn 0.2047 -0.9753 -0.0832
vn 0.1871 0.6927 0.6965
vn 0.1468 0.6400 0.7543
vn -0.6295 0.7249 0.2798
vn -0.6287 0.7257 -0.2793
vn 0.1473 0.6416 -0.7528
vn 0.1874 0.6944 -0.6947
vn 0.6609 0.7235 -0.1992
vn 0.6617 0.7225 0.2001
vn 0.0181 -0.5292 0.8483
vn 0.6803 -0.5067 0.5296
vn 0.8671 -0.4809 -0.1297
vn 0.0095 -0.5460 -0.8377
vn -0.0096 -0.5454 -0.8381
vn -0.8677 -0.4795 -0.1307
vn -0.6822 -0.5047 0.5290
vn -0.0183 -0.5280 0.8491
vn -0.0015 -0.1232 0.9924
vn 0.9122 -0.1362 -0.3864
vn -0.0578 -0.1111 -0.9921
vn -0.9320 -0.1412 0.3338
vn -0.0426 -0.0225 0.9988
vn 0.0202 -0.0224 -0.9995
vn 0.9159 -0.0959 0.3898
vn -0.9231 -0.0206 -0.3839
# 128 vertex normals

vt 0.1449 0.7708 0.0000
vt 0.1883 0.7709 0.0000
vt 0.1884 0.8094 0.0000
vt 0.1449 0.8093 0.0000
vt 0.2509 0.2680 0.0000
vt 0.3545 0.2325 0.0000
vt 0.3603 0.3650 0.0000
vt 0.2375 0.3650 0.0000
vt 0.2291 0.8515 0.0000
vt 0.7596 0.8805 0.0000
vt 0.7565 0.9367 0.0000
vt 0.2267 0.8949 0.0000
vt 0.2314 0.8089 0.0000
vt 0.2307 0.7710 0.0000
vt 0.7356 0.7724 0.0000
vt 0.7626 0.8254 0.0000
vt 0.2294 0.6904 0.0000
vt 0.7035 0.6659 0.0000
vt 0.7064 0.7201 0.0000
vt 0.2316 0.7330 0.0000
vt 0.2220 0.6097 0.0000
vt 0.7243 0.5556 0.0000
vt 0.7006 0.6106 0.0000
vt 0.2272 0.6470 0.0000
vt 0.9086 0.5973 0.0000
vt 0.9544 0.6390 0.0000
vt 0.9080 0.6676 0.0000
vt 0.8644 0.6256 0.0000
vt 0.8601 0.9078 0.0000
vt 0.9035 0.9374 0.0000
vt 0.8591 0.9860 0.0000
vt 0.8181 0.9475 0.0000
vt 0.9508 0.8255 0.0000
vt 0.9689 0.8325 0.0000
vt 0.9505 0.8971 0.0000
vt 0.9050 0.8672 0.0000
vt 0.9525 0.7105 0.0000
vt 0.9709 0.7041 0.0000
vt 0.9782 0.7684 0.0000
vt 0.9625 0.7682 0.0000
vt 0.6114 0.1320 0.0000
vt 0.6286 0.1867 0.0000
vt 0.5486 0.1986 0.0000
vt 0.5414 0.1527 0.0000
vt 0.6011 0.4497 0.0000
vt 0.5933 0.5018 0.0000
vt 0.5122 0.4788 0.0000
vt 0.5042 0.4265 0.0000
vt 0.5150 0.3392 0.0000
vt 0.6300 0.3442 0.0000
vt 0.6162 0.3948 0.0000
vt 0.5091 0.3830 0.0000
vt 0.5560 0.2450 0.0000
vt 0.6443 0.2372 0.0000
vt 0.6413 0.2908 0.0000
vt 0.5370 0.2929 0.0000
vt 0.1057 0.1337 0.0000
vt 0.1743 0.0858 0.0000
vt 0.2264 0.1701 0.0000
vt 0.1571 0.1981 0.0000
vt 0.1088 0.5946 0.0000
vt 0.1783 0.6409 0.0000
vt 0.1117 0.7142 0.0000
vt 0.0535 0.6483 0.0000
vt 0.1614 0.4415 0.0000
vt 0.2506 0.4571 0.0000
vt 0.2285 0.5555 0.0000
vt 0.1597 0.5296 0.0000
vt 0.1621 0.2857 0.0000
vt 0.1584 0.3649 0.0000
vt 0.1886 0.7324 0.0000
vt 0.4527 0.2640 0.0000
vt 0.4882 0.3651 0.0000
vt 0.8410 0.1474 0.0000
vt 0.8706 0.2169 0.0000
vt 0.8168 0.4965 0.0000
vt 0.8458 0.4289 0.0000
vt 0.9164 0.5914 0.0000
vt 0.9627 0.6336 0.0000
vt 0.8657 0.5474 0.0000
vt 0.8731 0.5409 0.0000
vt 0.9586 0.9027 0.0000
vt 0.9111 0.9435 0.0000
vt 0.9779 0.8358 0.0000
vt 0.9881 0.7686 0.0000
vt 0.9799 0.7011 0.0000
vt 0.1356 0.2062 0.0000
vt 0.0991 0.1480 0.0000
vt 0.0387 0.1026 0.0000
vt 0.0454 0.0815 0.0000
vt 0.1047 0.5806 0.0000
vt 0.1415 0.5232 0.0000
vt 0.1488 0.4471 0.0000
vt 0.1400 0.3650 0.0000
vt 0.1472 0.2822 0.0000
vt 0.1451 0.7322 0.0000
vt 0.3546 0.4927 0.0000
vt 0.7238 0.9864 0.0000
vt 0.2215 0.9320 0.0000
vt 0.8236 0.5847 0.0000
vt 0.7821 0.0077 0.0000
vt 0.8096 0.0809 0.0000
vt 0.5856 0.0854 0.0000
vt 0.8728 0.3584 0.0000
vt 0.8800 0.2875 0.0000
vt 0.1004 0.0127 0.0000
vt 0.4529 0.4611 0.0000
vt 0.8663 0.9927 0.0000
vt 0.0461 0.6278 0.0000
vt 0.8279 0.0764 0.0000
vt 0.8612 0.1424 0.0000
vt 0.8875 0.2136 0.0000
vt 0.8991 0.2872 0.0000
vt 0.8898 0.3611 0.0000
vt 0.8660 0.4332 0.0000
vt 0.8352 0.5003 0.0000
vt 0.8195 0.5680 0.0000
vt 0.7927 0.5709 0.0000
vt 0.8090 0.0094 0.0000
vt 0.5310 0.2014 0.0000
vt 0.5255 0.1573 0.0000
vt 0.4922 0.1235 0.0000
vt 0.5062 0.1127 0.0000
vt 0.4956 0.4720 0.0000
vt 0.4881 0.4246 0.0000
vt 0.4912 0.3808 0.0000
vt 0.4989 0.3365 0.0000
vt 0.5200 0.2914 0.0000
vt 0.5393 0.2460 0.0000
# 129 texture coords

o Box002
g Box002
usemtl wire_176026026
s off
f 1/1/1 2/2/2 3/3/3 4/4/4 
f 5/5/5 6/6/6 7/7/7 8/8/8 
f 3/9/9 9/10/9 10/11/9 4/12/9 
f 11/13/10 12/14/11 13/15/12 14/16/10 
f 15/17/13 16/18/13 17/19/13 18/20/13 
f 1/21/14 19/22/15 20/23/16 21/24/16 
f 22/25/17 23/26/18 24/27/19 25/28/17 
f 26/29/20 27/30/20 28/31/21 29/32/22 
f 30/33/23 31/34/23 32/35/24 33/36/25 
f 34/37/26 35/38/26 36/39/27 37/40/28 
f 38/41/29 39/42/30 40/43/31 41/44/32 
f 42/45/33 43/46/34 44/47/35 45/48/36 
f 46/49/37 47/50/38 48/51/39 49/52/40 
f 50/53/41 51/54/42 52/55/43 53/56/44 
f 54/57/45 55/58/45 6/59/46 56/60/47 
f 57/61/48 58/62/48 59/63/49 60/64/50 
f 61/65/51 62/66/51 63/67/52 64/68/53 
f 65/69/54 5/5/54 8/8/55 66/70/56 
f 18/20/57 12/14/58 2/2/2 15/71/59 
f 55/72/60 59/73/61 7/7/7 6/6/6 
f 11/13/9 14/16/9 9/10/9 3/9/9 
f 21/24/13 20/23/13 16/18/13 15/17/13 
f 23/26/18 35/38/62 34/37/62 24/27/19 
f 27/30/63 26/29/63 33/36/25 32/35/24 
f 67/74/64 68/75/65 51/54/66 39/42/30 
f 69/76/67 42/45/68 48/51/39 70/77/69 
f 6/59/46 5/5/70 65/69/70 56/60/47 
f 63/67/52 58/62/71 57/61/71 64/68/53 
f 23/26/72 22/25/72 71/78/72 72/79/72 
f 22/25/73 28/80/73 73/81/73 71/78/73 
f 27/30/74 32/35/74 74/82/74 75/83/74 
f 32/35/75 31/34/75 76/84/75 74/82/75 
f 31/34/76 36/39/76 77/85/76 76/84/76 
f 35/38/77 23/26/77 72/79/77 78/86/77 
f 72/87/78 71/88/78 54/57/78 56/60/78 
f 71/88/79 73/89/79 60/90/79 54/57/79 
f 75/91/80 74/92/80 64/68/80 57/61/80 
f 74/92/81 76/93/81 61/65/81 64/68/81 
f 76/93/82 77/94/82 66/70/82 61/65/82 
f 78/95/83 72/87/83 56/60/83 65/69/83 
f 21/96/84 15/71/59 2/2/2 1/1/1 
f 7/7/7 63/97/85 62/66/86 8/8/8 
f 12/14/11 18/20/87 17/19/87 13/15/12 
f 4/12/88 10/11/88 19/98/15 1/99/14 
f 28/80/21 22/25/89 25/28/89 29/100/22 
f 36/39/27 31/34/90 30/33/90 37/40/28 
f 79/101/91 80/102/92 38/41/93 43/103/34 
f 81/104/94 47/50/95 52/55/43 82/105/96 
f 59/106/49 55/58/97 54/57/97 60/90/50 
f 8/8/55 62/66/98 61/65/98 66/70/56 
f 11/13/99 3/3/3 2/2/2 12/14/58 
f 58/107/100 63/97/85 7/7/7 59/73/61 
f 27/30/101 75/83/101 73/108/101 28/31/101 
f 35/38/102 78/86/102 77/85/102 36/39/102 
f 75/91/103 57/61/103 60/64/103 73/109/103 
f 78/95/104 65/69/104 66/70/104 77/94/104 
f 25/110/105 24/111/105 67/74/105 80/102/105 
f 24/111/106 34/112/106 68/75/106 67/74/106 
f 34/112/107 37/113/107 82/105/107 68/75/107 
f 37/113/108 30/114/108 81/104/108 82/105/108 
f 30/114/109 33/115/109 70/77/109 81/104/109 
f 33/115/110 26/116/110 69/76/110 70/77/110 
f 26/116/111 29/117/111 79/118/111 69/76/111 
f 29/119/112 25/110/112 80/102/112 79/101/112 
f 9/120/113 14/121/113 41/44/113 40/43/113 
f 14/121/114 13/122/114 44/123/114 41/44/114 
f 13/124/115 17/125/115 45/48/115 44/47/115 
f 17/125/116 16/126/116 49/52/116 45/48/116 
f 16/126/117 20/127/117 46/49/117 49/52/117 
f 20/127/118 19/128/118 53/56/118 46/49/118 
f 19/128/119 10/129/119 50/53/119 53/56/119 
f 10/129/120 9/120/120 40/43/120 50/53/120 
f 80/102/121 67/74/64 39/42/30 38/41/29 
f 69/76/122 79/118/91 43/46/34 42/45/33 
f 47/50/38 81/104/123 70/77/69 48/51/39 
f 51/54/42 68/75/124 82/105/96 52/55/43 
f 50/53/125 40/43/31 39/42/30 51/54/66 
f 42/45/68 45/48/126 49/52/40 48/51/39 
f 41/44/127 44/123/35 43/103/34 38/41/93 
f 47/50/95 46/49/128 53/56/44 52/55/43 
# 80 polygons

