# 3ds Max Wavefront OBJ Exporter v0.97b - (c)2007 guruware
# File Created: 16.04.2019 11:13:53

mtllib pedestal.mtl

#
# object Box001
#

v  -39.9615 35.0982 29.5630
v  -23.7828 35.0982 29.5630
v  -23.7828 35.0982 18.6480
v  -39.9615 35.0982 18.6480
v  -51.5044 22.2060 38.1075
v  -30.6870 22.2060 38.1075
v  40.5566 35.0982 29.5630
v  52.5066 21.7513 38.4089
v  52.5066 21.7513 24.2541
v  40.5566 35.0982 18.6480
v  40.5566 35.0982 -30.0399
v  52.1034 22.2016 -38.5873
v  31.6136 22.2016 -38.5873
v  24.6337 35.0982 -30.0399
v  -39.9615 35.0982 -30.0399
v  -51.7445 21.9377 -38.7622
v  -51.7445 21.9377 -24.0797
v  -39.9615 35.0982 -18.6817
v  -21.7625 35.0982 29.5630
v  22.7176 35.0982 29.5630
v  22.7176 35.0982 18.6480
v  -21.7625 35.0982 18.6480
v  24.6337 35.0982 29.5630
v  24.6337 35.0982 18.6480
v  -21.7625 35.0982 17.2469
v  -21.7625 35.0982 -17.3680
v  -23.7828 35.0982 -17.3680
v  -23.7828 35.0982 17.2469
v  22.7176 35.0982 17.2469
v  22.7176 35.0982 -17.3680
v  40.5566 35.0982 17.2469
v  40.5566 35.0982 -17.3680
v  24.6337 35.0982 -17.3680
v  24.6337 35.0982 17.2469
v  -21.7625 35.0982 -18.6817
v  -23.7828 35.0982 -18.6817
v  22.7176 35.0982 -18.6817
v  40.5566 35.0982 -18.6817
v  24.6337 35.0982 -18.6817
v  -39.9615 35.0982 -17.3680
v  -39.9615 35.0982 17.2469
v  -23.7828 35.0982 -30.0399
v  22.7176 35.0982 -30.0399
v  -21.7625 35.0982 -30.0399
v  -53.7826 19.6614 39.7940
v  -32.0497 19.6614 39.7940
v  54.3381 19.7057 39.7646
v  54.3381 19.7057 25.1133
v  54.4602 19.5693 -40.3319
v  33.0383 19.5693 -40.3319
v  -53.7839 19.6599 -40.2718
v  -53.7839 19.6599 -25.0140
v  29.4075 19.5090 29.5634
v  22.0502 34.2647 29.5643
v  -21.0911 34.2647 29.5643
v  -28.3281 19.5134 29.5605
v  -30.8306 21.9377 -38.7622
v  -28.4384 19.5660 -30.0206
v  29.5156 19.5660 -30.0206
v  31.8573 21.7513 38.4089
v  29.3725 21.7513 38.4089
v  40.5591 19.8289 -23.1848
v  40.5591 19.8289 23.1846
v  -51.5044 22.2060 24.0631
v  -39.9570 19.8289 23.1846
v  -39.9570 19.8289 -23.1848
v  52.1034 22.2016 -23.9715
v  -28.0875 22.2060 38.1075
v  -29.3359 19.6614 39.7940
v  -29.0221 19.5338 39.8804
v  30.1961 19.5323 39.8814
v  -32.0504 19.6599 -40.2718
v  -31.6248 19.5409 -40.3143
v  32.8041 19.5409 -40.3143
v  32.9644 19.7057 39.7646
v  30.1955 19.5670 39.8583
v  54.2136 19.8112 -24.7667
v  54.2136 19.8112 24.8673
v  -53.7826 19.6614 25.1319
v  -53.4297 19.7685 24.4658
v  -53.4297 19.7685 -24.3652
v  54.4602 19.5693 -25.0512
v  -65.9807 6.0374 48.8235
v  -39.3457 6.0374 48.8235
v  66.5758 6.0374 48.8235
v  66.5758 6.0374 30.8543
v  66.2775 6.3705 -49.0796
v  40.1817 6.3705 -49.0796
v  -65.9742 6.0447 -49.2956
v  -65.9742 6.0447 -30.5985
v  -36.0198 6.0374 48.8235
v  -33.5272 5.9229 41.0696
v  34.7364 5.9224 41.0698
v  -39.3418 6.0447 -49.2956
v  -34.9248 5.8775 -40.2954
v  36.1421 5.8775 -40.2954
v  40.3620 6.0374 48.8235
v  37.1504 6.0374 48.8239
v  54.2315 5.8794 -27.2410
v  54.2315 5.8794 27.3791
v  -65.9807 6.0374 30.8543
v  -53.4483 5.9890 27.8823
v  -53.4483 5.9890 -28.1955
v  66.2775 6.3705 -30.4649
# 104 vertices

vn 0.0000 1.0000 -0.0000
vn 0.0000 0.5524 0.8335
vn 0.7450 0.6670 -0.0000
vn 0.0000 0.5524 -0.8335
vn -0.7450 0.6670 -0.0000
vn 0.7450 0.6670 0.0000
vn -0.0001 -0.0001 1.0000
vn -0.0000 0.0008 1.0000
vn -0.0000 0.0007 1.0000
vn -0.0000 -0.0002 1.0000
vn 0.9272 -0.1537 -0.3416
vn 0.2418 -0.0737 -0.9675
vn 0.0000 -0.0012 -1.0000
vn 0.8931 -0.2436 -0.3781
vn 0.0001 0.5526 0.8335
vn 0.0000 0.5526 0.8334
vn 1.0000 0.0002 -0.0000
vn -0.1499 -0.1200 -0.9814
vn -0.9425 -0.0954 -0.3203
vn -1.0000 -0.0003 -0.0000
vn -0.1759 -0.2561 -0.9505
vn 0.1282 -0.2317 0.9643
vn 0.9420 -0.0948 0.3221
vn 0.1681 -0.2714 0.9477
vn -0.0000 0.5524 -0.8335
vn -0.8916 -0.2685 -0.3645
vn -0.2397 -0.0765 -0.9678
vn -0.9183 -0.2359 -0.3179
vn 0.1791 -0.2721 -0.9455
vn 0.9426 -0.0950 -0.3201
vn 0.1401 -0.2132 -0.9669
vn -0.1659 -0.2551 0.9526
vn -0.9418 -0.0953 0.3222
vn -0.1470 -0.0970 0.9844
vn -0.0000 0.0016 1.0000
vn 0.0000 0.0016 1.0000
vn 0.3950 -0.1666 0.9034
vn 0.9173 -0.3865 0.0959
vn 0.9214 -0.3656 0.1319
vn -0.0014 0.0004 1.0000
vn 0.6214 0.4807 0.6187
vn 0.0779 0.6833 0.7260
vn -0.9295 -0.3540 0.1033
vn -0.4261 0.3425 0.8373
vn -0.6088 0.1884 0.7706
vn -0.9008 -0.4218 0.1035
vn 0.0000 1.0000 -0.0023
vn 0.0000 1.0000 -0.0022
vn 0.0001 1.0000 -0.0020
vn 0.1533 0.2203 -0.9633
vn 0.2504 0.2180 -0.9433
vn 0.0000 1.0000 -0.0024
vn 0.0002 0.5525 0.8335
vn 0.0004 0.5527 0.8334
vn 0.0013 1.0000 -0.0000
vn -0.7943 0.0349 -0.6065
vn -0.7630 0.2610 -0.5913
vn -0.0045 1.0000 -0.0000
vn 0.6587 -0.0466 0.7509
vn 0.7736 0.3954 0.4951
vn -0.3348 0.1934 -0.9222
vn -0.2575 0.1468 -0.9550
vn 0.8136 0.3605 -0.4561
vn 0.8199 0.0473 -0.5705
vn -0.7536 0.2610 0.6033
vn -0.7849 0.0149 0.6194
vn 0.9200 -0.2529 0.2995
vn 0.9162 -0.2505 0.3127
vn -0.9838 -0.0069 0.1791
vn -0.4374 0.4450 0.7814
vn -0.0000 0.0870 0.9962
vn 0.8812 -0.1830 -0.4359
vn 0.8735 -0.1814 -0.4518
vn 0.0000 -0.0014 -1.0000
vn 0.0000 0.5525 0.8335
vn 0.0001 0.5525 0.8335
vn 1.0000 0.0013 0.0000
vn 1.0000 0.0013 -0.0000
vn -0.2269 -0.1974 -0.9537
vn -0.2494 -0.1968 -0.9482
vn -1.0000 0.0013 0.0000
vn -1.0000 0.0013 -0.0000
vn 0.2613 -0.1567 0.9525
vn 0.2686 -0.1565 0.9505
vn -0.8818 -0.2010 -0.4267
vn -0.8855 -0.2019 -0.4185
vn 0.2772 -0.1575 -0.9478
vn 0.2695 -0.1578 -0.9500
vn -0.2069 -0.2266 0.9518
vn -0.1845 -0.2271 0.9563
vn -0.9153 -0.2796 0.2899
vn -0.9154 -0.2801 0.2891
vn -0.0019 -1.0000 -0.0034
vn 0.0000 -0.9999 0.0148
vn -0.0034 -0.9999 0.0094
vn 0.0000 -1.0000 0.0000
vn -0.0014 -1.0000 0.0018
vn -0.0017 -1.0000 0.0053
vn -0.0056 -1.0000 0.0002
vn -0.0044 -1.0000 -0.0000
vn -0.0042 -1.0000 -0.0030
vn 0.0000 -0.9998 -0.0186
vn -0.0022 -1.0000 -0.0029
vn 0.0025 -0.9999 -0.0145
vn 0.0000 -0.9984 -0.0560
vn 0.0189 -0.9997 -0.0181
vn 0.0407 -0.9992 -0.0000
vn 0.0108 -0.9999 -0.0048
vn -0.0044 -1.0000 0.0018
vn 0.0128 -0.9999 0.0000
vn 0.0043 -1.0000 0.0049
vn 0.0022 -1.0000 0.0080
vn 0.0068 -1.0000 0.0034
# 113 vertex normals

vt 0.0073 0.0066 0.0000
vt 0.1185 0.0066 0.0000
vt 0.1185 0.0900 0.0000
vt 0.0073 0.0900 0.0000
vt 0.8509 0.1259 0.0000
vt 0.7340 0.1335 0.0000
vt 0.8621 0.0435 0.0000
vt 0.9504 0.0559 0.0000
vt 0.7142 0.3505 0.0000
vt 0.8266 0.3651 0.0000
vt 0.7496 0.4290 0.0000
vt 0.6548 0.3998 0.0000
vt 0.1025 0.5386 0.0000
vt 0.1930 0.5441 0.0000
vt 0.0832 0.5972 0.0000
vt 0.0171 0.5799 0.0000
vt 0.8518 0.5294 0.0000
vt 0.7510 0.5394 0.0000
vt 0.8022 0.4717 0.0000
vt 0.8914 0.4771 0.0000
vt 0.1324 0.0066 0.0000
vt 0.4382 0.0066 0.0000
vt 0.4382 0.0900 0.0000
vt 0.1324 0.0900 0.0000
vt 0.4513 0.0066 0.0000
vt 0.4513 0.0900 0.0000
vt 0.1324 0.1007 0.0000
vt 0.1324 0.3652 0.0000
vt 0.1185 0.3652 0.0000
vt 0.1185 0.1007 0.0000
vt 0.4382 0.1007 0.0000
vt 0.4382 0.3652 0.0000
vt 0.5608 0.1007 0.0000
vt 0.5608 0.3652 0.0000
vt 0.4513 0.3652 0.0000
vt 0.4513 0.1007 0.0000
vt 0.1324 0.3752 0.0000
vt 0.1185 0.3752 0.0000
vt 0.4382 0.3752 0.0000
vt 0.5608 0.3752 0.0000
vt 0.4513 0.3752 0.0000
vt 0.0073 0.3652 0.0000
vt 0.0073 0.1007 0.0000
vt 0.1185 0.4620 0.0000
vt 0.0073 0.4620 0.0000
vt 0.0073 0.3752 0.0000
vt 0.5608 0.0066 0.0000
vt 0.5608 0.0900 0.0000
vt 0.4513 0.4620 0.0000
vt 0.4382 0.4620 0.0000
vt 0.1324 0.4620 0.0000
vt 0.5608 0.4620 0.0000
vt 0.7110 0.1349 0.0000
vt 0.8446 0.0410 0.0000
vt 0.8439 0.3673 0.0000
vt 0.7642 0.4335 0.0000
vt 0.2115 0.5452 0.0000
vt 0.0967 0.6007 0.0000
vt 0.7336 0.5411 0.0000
vt 0.7867 0.4708 0.0000
vt 0.3313 0.9283 0.0000
vt 0.3049 0.9933 0.0000
vt 0.0997 0.9939 0.0000
vt 0.0741 0.9291 0.0000
vt 0.6282 0.7059 0.0000
vt 0.6757 0.6330 0.0000
vt 0.6834 0.6295 0.0000
vt 0.6614 0.6990 0.0000
vt 0.8926 0.6294 0.0000
vt 0.9154 0.6988 0.0000
vt 0.7155 0.2710 0.0000
vt 0.6284 0.2779 0.0000
vt 0.6181 0.2692 0.0000
vt 0.7021 0.2596 0.0000
vt 0.8918 0.9275 0.0000
vt 0.8760 0.9942 0.0000
vt 0.6955 0.9941 0.0000
vt 0.6785 0.9272 0.0000
vt 0.0567 0.7154 0.0000
vt 0.1082 0.6375 0.0000
vt 0.1140 0.6335 0.0000
vt 0.0978 0.6996 0.0000
vt 0.2920 0.6335 0.0000
vt 0.3079 0.6995 0.0000
vt 0.9337 0.9115 0.0000
vt 0.8817 0.9902 0.0000
vt 0.8780 0.0322 0.0000
vt 0.9628 0.0472 0.0000
vt 0.9485 0.5708 0.0000
vt 0.8760 0.5929 0.0000
vt 0.9000 0.6330 0.0000
vt 0.9482 0.7040 0.0000
vt 0.6899 0.9900 0.0000
vt 0.6353 0.9095 0.0000
vt 0.9094 0.1800 0.0000
vt 0.8094 0.2030 0.0000
vt 0.2975 0.6375 0.0000
vt 0.3496 0.7166 0.0000
vt 0.0644 0.4915 0.0000
vt 0.1440 0.4835 0.0000
vt 0.3073 0.9954 0.0000
vt 0.0971 0.9961 0.0000
vt 0.0453 0.9249 0.0000
vt 0.0552 0.8961 0.0000
vt 0.0598 0.8929 0.0000
vt 0.3609 0.9225 0.0000
vt 0.3468 0.8924 0.0000
vt 0.6336 0.7316 0.0000
vt 0.6378 0.7347 0.0000
vt 0.9388 0.7348 0.0000
vt 0.7288 0.2699 0.0000
vt 0.7144 0.2568 0.0000
vt 0.9143 0.8774 0.0000
vt 0.6542 0.8777 0.0000
vt 0.0685 0.7466 0.0000
vt 0.0767 0.7485 0.0000
vt 0.3294 0.7483 0.0000
vt 0.9214 0.8792 0.0000
vt 0.8613 0.0293 0.0000
vt 0.8634 0.5968 0.0000
vt 0.9427 0.7321 0.0000
vt 0.6470 0.8805 0.0000
vt 0.7897 0.2076 0.0000
vt 0.3378 0.7463 0.0000
vt 0.1603 0.4819 0.0000
vt 0.5875 0.1429 0.0000
vt 0.7513 0.0278 0.0000
vt 0.9590 0.3823 0.0000
vt 0.8613 0.4634 0.0000
vt 0.3042 0.5508 0.0000
vt 0.1643 0.6185 0.0000
vt 0.6293 0.5514 0.0000
vt 0.6944 0.4653 0.0000
vt 0.0049 0.8310 0.0000
vt 0.0431 0.8290 0.0000
vt 0.3516 0.8957 0.0000
vt 0.3634 0.8285 0.0000
vt 0.5801 0.7944 0.0000
vt 0.6259 0.7981 0.0000
vt 0.9506 0.7983 0.0000
vt 0.8179 0.2627 0.0000
vt 0.8006 0.2481 0.0000
vt 0.9199 0.8127 0.0000
vt 0.6483 0.8129 0.0000
vt 0.0037 0.8095 0.0000
vt 0.0667 0.8123 0.0000
vt 0.3415 0.8123 0.0000
vt 0.9819 0.8146 0.0000
vt 0.7718 0.0134 0.0000
vt 0.7884 0.6196 0.0000
vt 0.9946 0.7931 0.0000
vt 0.5846 0.8132 0.0000
vt 0.6839 0.2320 0.0000
vt 0.4037 0.8077 0.0000
vt 0.2418 0.4737 0.0000
vt 0.4015 0.8304 0.0000
vt 0.4154 0.6639 0.0000
vt 0.4100 0.6808 0.0000
vt 0.4028 0.6808 0.0000
vt 0.3448 0.6808 0.0000
vt 0.3448 0.6417 0.0000
vt 0.3721 0.6352 0.0000
vt 0.3721 0.5132 0.0000
vt 0.3448 0.5079 0.0000
vt 0.3448 0.4672 0.0000
vt 0.4028 0.4672 0.0000
vt 0.4124 0.4868 0.0000
vt 0.5671 0.4868 0.0000
vt 0.5758 0.4677 0.0000
vt 0.6326 0.4677 0.0000
vt 0.6326 0.5082 0.0000
vt 0.6064 0.5152 0.0000
vt 0.6064 0.6341 0.0000
vt 0.6333 0.6417 0.0000
vt 0.6333 0.6808 0.0000
vt 0.5762 0.6808 0.0000
vt 0.5692 0.6808 0.0000
vt 0.5640 0.6639 0.0000
# 178 texture coords

g Box001
usemtl wire_061135006
s 1
f 1/1/1 2/2/1 3/3/1 4/4/1 
s 2
f 1/5/2 5/6/2 6/7/2 2/8/2 
f 7/9/3 8/10/3 9/11/3 10/12/3 
f 11/13/4 12/14/4 13/15/4 14/16/4 
f 15/17/5 16/18/5 17/19/5 18/20/5 
s 1
f 19/21/1 20/22/1 21/23/1 22/24/1 
f 20/22/1 23/25/1 24/26/1 21/23/1 
f 25/27/1 26/28/1 27/29/1 28/30/1 
f 29/31/1 30/32/1 26/28/1 25/27/1 
f 31/33/1 32/34/1 33/35/1 34/36/1 
f 26/28/1 35/37/1 36/38/1 27/29/1 
f 30/32/1 37/39/1 35/37/1 26/28/1 
f 32/34/1 38/40/1 39/41/1 33/35/1 
f 2/2/1 19/21/1 22/24/1 3/3/1 
f 27/29/1 40/42/1 41/43/1 28/30/1 
f 42/44/1 15/45/1 18/46/1 36/38/1 
f 23/25/1 7/47/1 10/48/1 24/26/1 
f 33/35/1 30/32/1 29/31/1 34/36/1 
f 14/49/1 43/50/1 37/39/1 39/41/1 
f 3/3/1 28/30/1 41/43/1 4/4/1 
f 21/23/1 29/31/1 25/27/1 22/24/1 
f 24/26/1 34/36/1 29/31/1 21/23/1 
f 22/24/1 25/27/1 28/30/1 3/3/1 
f 10/48/1 31/33/1 34/36/1 24/26/1 
f 35/37/1 44/51/1 42/44/1 36/38/1 
f 37/39/1 43/50/1 44/51/1 35/37/1 
f 38/40/1 11/52/1 14/49/1 39/41/1 
f 18/46/1 40/42/1 27/29/1 36/38/1 
f 37/39/1 30/32/1 33/35/1 39/41/1 
s 2
f 5/6/2 45/53/2 46/54/2 6/7/2 
f 8/10/3 47/55/6 48/56/3 9/11/3 
f 12/14/4 49/57/4 50/58/4 13/15/4 
f 16/18/5 51/59/5 52/60/5 17/19/5 
s 4
f 53/61/7 54/62/8 55/63/9 56/64/10 
s 2
f 57/65/11 42/66/12 44/67/13 58/68/14 
s 4
f 58/68/13 44/67/13 43/69/13 59/70/13 
s 8
f 60/71/15 23/72/2 20/73/2 61/74/16 
s 2
f 62/75/17 32/76/17 31/77/17 63/78/17 
f 64/79/18 4/80/19 41/81/20 65/82/21 
s 4
f 65/82/20 41/81/20 40/83/20 66/84/20 
f 67/85/22 38/86/23 32/76/17 62/75/24 
s 2
f 68/87/2 19/88/2 2/8/2 6/7/2 
s 4
f 16/18/25 15/17/25 42/89/4 57/90/25 
s 8
f 59/70/26 43/69/13 14/91/27 13/92/28 
f 8/10/2 7/9/2 23/72/2 60/71/15 
s 4
f 63/78/29 31/77/17 10/93/30 9/94/31 
f 5/6/5 1/5/5 4/95/5 64/96/5 
s 8
f 66/84/32 40/83/20 18/97/33 17/98/34 
f 12/14/3 11/13/3 38/99/3 67/100/3 
s 4
f 20/101/35 19/102/36 55/63/9 54/62/8 
s 8
f 19/102/37 68/103/38 56/64/39 55/63/40 
f 68/103/38 69/104/41 70/105/42 56/64/39 
s 2
f 61/106/43 20/101/44 54/62/45 53/61/46 
s 1
f 71/107/47 53/61/48 56/64/49 70/105/49 
s 2
f 72/108/50 57/65/11 58/68/14 73/109/51 
s 1
f 73/109/52 58/68/52 59/70/52 74/110/52 
s 8
f 75/111/53 60/71/15 61/74/16 76/112/54 
s 1
f 77/113/55 62/75/55 63/78/55 78/114/55 
s 2
f 79/115/56 64/79/18 65/82/21 80/116/57 
s 1
f 80/116/58 65/82/58 66/84/58 81/117/58 
s 4
f 82/118/59 67/85/22 62/75/24 77/113/60 
s 2
f 69/119/2 68/87/2 6/7/2 46/54/2 
s 4
f 51/59/25 16/18/25 57/90/25 72/120/25 
s 8
f 74/110/61 59/70/26 13/92/28 50/121/62 
f 47/55/2 8/10/2 60/71/15 75/111/53 
s 4
f 78/114/63 63/78/29 9/94/31 48/122/64 
f 45/53/5 5/6/5 64/96/5 79/123/5 
s 8
f 81/117/65 66/84/32 17/98/34 52/124/66 
f 49/57/3 12/14/3 67/100/3 82/125/3 
s 2
f 45/53/2 83/126/2 84/127/2 46/54/2 
f 47/55/6 85/128/6 86/129/6 48/56/3 
f 49/57/4 87/130/4 88/131/4 50/58/4 
f 51/59/5 89/132/5 90/133/5 52/60/5 
s 8
f 69/104/41 91/134/67 92/135/68 70/105/42 
s 2
f 76/136/69 61/106/43 53/61/46 71/107/70 
s 4
f 93/137/71 71/107/71 70/105/71 92/135/71 
s 2
f 94/138/72 72/108/50 73/109/51 95/139/73 
s 4
f 95/139/74 73/109/74 74/110/74 96/140/74 
s 8
f 97/141/75 75/111/53 76/112/54 98/142/76 
s 2
f 99/143/77 77/113/77 78/114/78 100/144/78 
f 101/145/79 79/115/56 80/116/57 102/146/80 
s 4
f 102/146/81 80/116/81 81/117/82 103/147/82 
f 104/148/83 82/118/59 77/113/60 99/143/84 
s 2
f 91/149/2 69/119/2 46/54/2 84/127/2 
s 4
f 89/132/25 51/59/25 72/120/25 94/150/25 
s 8
f 96/140/85 74/110/61 50/121/62 88/151/86 
f 85/128/2 47/55/2 75/111/53 97/141/75 
s 4
f 100/144/87 78/114/63 48/122/64 86/152/88 
f 83/126/5 45/53/5 79/123/5 101/153/5 
s 8
f 103/147/89 81/117/65 52/124/66 90/154/90 
f 87/130/3 49/57/3 82/125/3 104/155/3 
s 2
f 98/156/91 76/136/69 71/107/70 93/137/92 
s 1
f 92/157/93 91/158/94 84/159/95 83/160/96 101/161/97 102/162/98 103/163/99 90/164/100 89/165/101 94/166/102 95/167/103 96/168/104 88/169/105 87/170/106 104/171/107 99/172/108 100/173/109 86/174/110 85/175/111 97/176/112 98/177/94 93/178/113 
# 93 polygons

