# 3ds Max Wavefront OBJ Exporter v0.97b - (c)2007 guruware
# File Created: 21.04.2019 01:14:12

mtllib lever.mtl

#
# object Box001
#

v  -38.4471 -43.6703 3.5642
v  18.8281 -50.3170 3.5642
v  18.8281 -50.3170 25.3597
v  -38.4471 -43.6703 25.3597
v  18.8281 50.3170 25.3597
v  18.8281 50.3170 3.5663
v  -38.4471 43.1483 3.5663
v  -38.4471 43.1483 25.3597
v  33.9138 -24.5599 25.3597
v  -38.4471 -24.5599 25.3597
v  33.9138 -24.5599 3.5647
v  -38.4471 -43.6703 -25.3597
v  -38.4471 -24.5599 -25.3597
v  33.9138 -24.5599 -25.3597
v  18.8281 -50.3170 -25.3597
v  -38.4471 -43.6703 -6.3099
v  -38.4471 -24.5599 -6.3099
v  -38.2991 -27.0505 -4.8643
v  -3.5262 -31.0858 -4.8643
v  -3.5262 -31.0858 2.3594
v  -38.2991 -27.0505 2.3594
v  -3.5262 31.2335 -4.8643
v  -38.2998 26.8812 -4.8643
v  -38.2998 26.8812 2.3608
v  -3.5262 31.2335 2.3608
v  5.8159 -15.1353 -4.8643
v  5.8159 -15.1353 2.3598
v  -38.4471 -24.5599 3.5647
v  18.8281 -50.3170 -6.3099
v  18.8281 50.3170 -25.3597
v  -38.4471 43.1483 -25.3597
v  -38.4471 43.1483 -6.3099
v  18.8281 50.3170 -6.3099
v  33.9138 -24.5599 -6.3099
v  -38.4471 25.7571 25.3597
v  33.9138 25.7571 25.3597
v  33.9138 25.7571 3.5658
v  33.9138 25.7571 -25.3597
v  -38.4471 25.7571 -25.3597
v  -38.4471 25.7571 -6.3099
v  5.8159 16.0244 2.3604
v  5.8159 16.0243 -4.8643
v  -38.4471 25.7571 3.5658
v  33.9138 25.7571 -6.3099
v  38.4472 0.2223 25.3597
v  -38.4471 0.2223 25.3597
v  38.4472 0.2223 3.5653
v  -38.4471 0.2223 -25.3597
v  38.4472 0.2223 -25.3597
v  -38.4471 0.2223 -6.3099
v  8.6232 0.2115 -4.8643
v  8.6232 0.2115 2.3601
v  -38.4471 0.2223 3.5653
v  38.4472 0.2223 -6.3099
# 54 vertices

vn -0.1153 -0.9933 -0.0000
vn -0.1242 0.9923 -0.0000
vn -0.0000 -0.0000 1.0000
vn -0.0000 0.0000 1.0000
vn 0.8629 -0.5054 -0.0000
vn 0.9375 -0.3479 -0.0000
vn 0.0000 0.0000 -1.0000
vn 0.0000 -0.0000 -1.0000
vn -1.0000 0.0000 0.0000
vn -1.0000 0.0000 -0.0000
vn -0.1153 -0.9933 0.0000
vn 0.8629 -0.5054 0.0000
vn 0.9375 -0.3479 0.0000
vn 0.0000 0.0000 1.0000
vn 0.8521 0.5234 -0.0000
vn 0.9347 0.3553 -0.0000
vn -1.0000 -0.0000 0.0000
vn -1.0000 -0.0000 -0.0000
vn 1.0000 -0.0026 -0.0000
vn 1.0000 -0.0089 -0.0000
vn -0.0100 -0.0866 0.9962
vn 0.0429 -0.0252 0.9988
vn 0.0484 -0.0089 0.9988
vn 0.0484 0.0086 0.9988
vn 0.0424 0.0260 0.9988
vn -0.0111 0.0884 0.9960
vn 1.0000 0.0091 -0.0000
vn -0.0092 0.0738 -0.9972
vn 0.0353 0.0217 -0.9991
vn 0.0404 0.0072 -0.9992
vn 0.0404 -0.0074 -0.9992
vn 0.0358 -0.0210 -0.9991
vn -0.0084 -0.0722 -0.9974
# 33 vertex normals

vt 0.9074 0.7312 0.0000
vt 0.9136 0.5208 0.0000
vt 0.9932 0.5231 0.0000
vt 0.9870 0.7335 0.0000
vt 0.5707 0.4903 0.0000
vt 0.6502 0.4874 0.0000
vt 0.6579 0.6980 0.0000
vt 0.5784 0.7009 0.0000
vt 0.5124 0.6070 0.0000
vt 0.5675 0.7010 0.0000
vt 0.3033 0.7011 0.0000
vt 0.3033 0.6313 0.0000
vt 0.3862 0.0065 0.0000
vt 0.4882 0.0388 0.0000
vt 0.4402 0.1677 0.0000
vt 0.3409 0.1459 0.0000
vt 0.2962 0.6270 0.0000
vt 0.2962 0.6968 0.0000
vt 0.0320 0.6967 0.0000
vt 0.0871 0.6026 0.0000
vt 0.0932 0.0789 0.0000
vt 0.0932 0.1620 0.0000
vt 0.0104 0.1620 0.0000
vt 0.0104 0.0789 0.0000
vt 0.8469 0.7623 0.0000
vt 0.7190 0.7623 0.0000
vt 0.7190 0.7359 0.0000
vt 0.8468 0.7359 0.0000
vt 0.8451 0.7291 0.0000
vt 0.7172 0.7291 0.0000
vt 0.7172 0.7027 0.0000
vt 0.8451 0.7027 0.0000
vt 0.2589 0.0419 0.0000
vt 0.3150 0.0419 0.0000
vt 0.3150 0.1856 0.0000
vt 0.2589 0.1856 0.0000
vt 0.2309 0.0789 0.0000
vt 0.2309 0.1620 0.0000
vt 0.1361 0.1620 0.0000
vt 0.1361 0.0789 0.0000
vt 0.9771 0.7656 0.0000
vt 0.9822 0.9760 0.0000
vt 0.9126 0.9777 0.0000
vt 0.9076 0.7673 0.0000
vt 0.5817 0.9425 0.0000
vt 0.5882 0.7319 0.0000
vt 0.6577 0.7341 0.0000
vt 0.6512 0.9447 0.0000
vt 0.8511 0.0159 0.0000
vt 0.8980 0.1548 0.0000
vt 0.8113 0.1740 0.0000
vt 0.7622 0.0451 0.0000
vt 0.5125 0.9744 0.0000
vt 0.3034 0.9483 0.0000
vt 0.3034 0.8848 0.0000
vt 0.5676 0.8847 0.0000
vt 0.4768 0.5167 0.0000
vt 0.3733 0.5449 0.0000
vt 0.3349 0.4082 0.0000
vt 0.4348 0.3910 0.0000
vt 0.2961 0.9440 0.0000
vt 0.0870 0.9700 0.0000
vt 0.0319 0.8804 0.0000
vt 0.2961 0.8805 0.0000
vt 0.0932 0.4563 0.0000
vt 0.0104 0.4563 0.0000
vt 0.0104 0.3807 0.0000
vt 0.0932 0.3807 0.0000
vt 0.3150 0.5704 0.0000
vt 0.2589 0.5704 0.0000
vt 0.2589 0.4317 0.0000
vt 0.3150 0.4317 0.0000
vt 0.2309 0.3807 0.0000
vt 0.2309 0.4563 0.0000
vt 0.1361 0.4563 0.0000
vt 0.1361 0.3807 0.0000
vt 0.8553 0.5512 0.0000
vt 0.7660 0.5226 0.0000
vt 0.8131 0.3984 0.0000
vt 0.8997 0.4165 0.0000
vt 0.5841 0.7914 0.0000
vt 0.3033 0.7915 0.0000
vt 0.4248 0.2773 0.0000
vt 0.3229 0.2749 0.0000
vt 0.2961 0.7872 0.0000
vt 0.0154 0.7871 0.0000
vt 0.0932 0.2697 0.0000
vt 0.0104 0.2697 0.0000
vt 0.3150 0.3069 0.0000
vt 0.2589 0.3069 0.0000
vt 0.2309 0.2697 0.0000
vt 0.1361 0.2697 0.0000
vt 0.9149 0.2837 0.0000
vt 0.8259 0.2844 0.0000
vt 0.8499 0.8900 0.0000
vt 0.6756 0.2060 0.0000
vt 0.6419 0.1223 0.0000
vt 0.6852 0.2854 0.0000
vt 0.6768 0.3673 0.0000
vt 0.6441 0.4483 0.0000
vt 0.7132 0.8570 0.0000
vt 0.7126 0.5748 0.0000
vt 0.5716 0.3638 0.0000
vt 0.6016 0.4463 0.0000
vt 0.5652 0.2806 0.0000
vt 0.5755 0.2002 0.0000
vt 0.6091 0.1160 0.0000
vt 0.8505 0.6081 0.0000
# 108 texture coords

o Box001
g Box001
usemtl wire_214227153
s off
f 1/1/1 2/2/1 3/3/1 4/4/1 
f 5/5/2 6/6/2 7/7/2 8/8/2 
f 3/9/3 9/10/4 10/11/4 4/12/3 
f 3/13/5 2/14/5 11/15/6 9/16/6 
f 12/17/7 13/18/8 14/19/8 15/20/7 
f 16/21/9 17/22/9 13/23/10 12/24/10 
f 18/25/11 19/26/11 20/27/11 21/28/11 
f 22/29/2 23/30/2 24/31/2 25/32/2 
f 20/33/12 19/34/12 26/35/13 27/36/13 
f 4/37/10 10/38/10 28/39/9 1/40/9 
f 1/40/9 28/39/9 17/22/9 16/21/9 
f 12/41/1 15/42/1 29/43/1 16/44/1 
f 30/45/2 31/46/2 32/47/2 33/48/2 
f 15/49/5 14/50/6 34/51/6 29/52/5 
f 5/53/14 8/54/14 35/55/14 36/56/14 
f 6/57/15 5/58/15 36/59/16 37/60/16 
f 31/61/7 30/62/7 38/63/7 39/64/7 
f 32/65/17 31/66/10 39/67/18 40/68/17 
f 22/69/15 25/70/15 41/71/16 42/72/16 
f 35/73/18 8/74/10 7/75/17 43/76/17 
f 43/76/17 7/75/17 32/65/17 40/68/17 
f 30/77/15 33/78/15 44/79/16 38/80/16 
f 45/81/4 46/82/4 10/11/4 9/10/4 
f 47/83/19 45/84/19 9/16/6 11/15/6 
f 48/85/8 49/86/8 14/19/8 13/18/8 
f 50/87/17 48/88/18 13/23/10 17/22/9 
f 51/89/19 52/90/19 27/36/13 26/35/13 
f 10/38/10 46/91/18 53/92/17 28/39/9 
f 28/39/9 53/92/17 50/87/17 17/22/9 
f 49/93/19 54/94/19 34/51/6 14/50/6 
f 36/56/14 35/55/14 46/82/4 45/81/4 
f 37/60/16 36/59/16 45/84/19 47/83/19 
f 39/64/7 38/63/7 49/86/8 48/85/8 
f 40/68/17 39/67/18 48/88/18 50/87/17 
f 42/72/16 41/71/16 52/90/19 51/89/19 
f 46/91/18 35/73/18 43/76/17 53/92/17 
f 53/92/17 43/76/17 40/68/17 50/87/17 
f 38/80/16 44/79/16 54/94/19 49/93/19 
f 1/1/20 16/44/20 18/25/20 21/28/20 
f 16/44/21 29/43/21 19/95/21 18/25/21 
f 29/52/22 34/51/22 26/96/22 19/97/22 
f 34/51/23 54/94/23 51/98/23 26/96/23 
f 54/94/24 44/79/24 42/99/24 51/98/24 
f 44/79/25 33/78/25 22/100/25 42/99/25 
f 33/48/26 32/47/26 23/30/26 22/101/26 
f 32/47/27 7/7/27 24/31/27 23/30/27 
f 7/7/28 6/6/28 25/102/28 24/31/28 
f 6/57/29 37/60/29 41/103/29 25/104/29 
f 37/60/30 47/83/30 52/105/30 41/103/30 
f 47/83/31 11/15/31 27/106/31 52/105/31 
f 11/15/32 2/14/32 20/107/32 27/106/32 
f 2/2/33 1/1/33 21/28/33 20/108/33 
# 52 polygons

